<svg width="294" height="277" viewBox="0 0 294 277" fill="none" xmlns="http://www.w3.org/2000/svg">
<path d="M65 45H40V82H65V45Z" fill="#00B2FF"/>
<path d="M44.7986 62C44.7986 62 45.7631 80.4065 37.2345 81.1613C31.2673 81.6894 48.8717 98 48.8717 98L64 77.0968C64 77.0968 52.6599 78.2557 59.927 65.4839L44.7986 62Z" fill="#FFDCC9"/>
<path opacity="0.1" d="M64 77.0986L59.2201 83.7058L48.8714 98C48.8714 98 40.2296 89.9904 37.1091 85.0178C35.9367 83.1466 35.5402 81.7056 36.6781 81.2797C36.6831 81.2763 36.6892 81.2748 36.6953 81.2754C36.8587 81.2144 37.03 81.1767 37.2039 81.1636C37.2138 81.1613 37.2239 81.1599 37.2341 81.1593C37.731 81.1176 38.2198 81.0076 38.6866 80.8324C45.6518 78.2342 44.7984 62 44.7984 62L59.9269 65.4843C55.078 74.0057 58.5132 76.3286 61.3363 76.9265C61.9559 77.0555 62.587 77.1218 63.2199 77.1244C63.6983 77.1287 64 77.0986 64 77.0986Z" fill="black"/>
<path d="M68.2853 47.0002C65.5241 55.372 61.29 63 52.6609 63C44.0317 63 37.5226 55.8226 37.0364 47.0002C36.4151 35.7269 43.8327 30.9536 52.6609 31.0003C63.09 31.0555 71.5623 37.0648 68.2853 47.0002Z" fill="#00B2FF"/>
<path d="M31 179L35.1607 207.115C35.1607 207.115 31.5944 224.328 33.3775 236.377L35.1607 249H43.4821L45.8597 235.803C45.8597 235.803 48.2372 222.033 48.2372 215.721C48.2372 215.721 54.7755 187.033 50.6147 181.295L31 179Z" fill="#FFDCC9"/>
<path d="M81 177L76.8393 206.952C76.8393 206.952 80.4056 224.232 78.6225 236.328L76.8393 249H68.5179L66.1403 235.752C66.1403 235.752 63.7628 221.928 63.7628 215.592C63.7628 215.592 57.2245 185.064 61.3853 179.304L81 177Z" fill="#FFDCC9"/>
<path d="M72.7256 247.62C72.7256 247.62 77.1734 245.897 77.7294 248.195C78.2853 250.492 79.3973 262.552 79.3973 262.552C79.3973 262.552 82.7331 267.721 84.9569 268.295C87.1808 268.869 92.1845 276.335 86.0689 276.909C79.9532 277.484 73.8376 275.186 73.8376 274.038C73.8376 272.889 71.6137 272.315 70.5018 272.315C69.3898 272.315 65.4981 270.592 66.054 268.869C66.61 267.146 68.2779 247.046 68.2779 247.046L72.7256 247.62Z" fill="#00B2FF"/>
<path d="M39.2744 247.62C39.2744 247.62 34.8266 245.897 34.2706 248.195C33.7147 250.492 32.6027 262.552 32.6027 262.552C32.6027 262.552 29.2669 267.721 27.0431 268.295C24.8192 268.869 19.8155 276.335 25.9311 276.909C32.0468 277.484 38.1624 275.186 38.1624 274.038C38.1624 272.889 40.3863 272.315 41.4982 272.315C42.6102 272.315 46.5019 270.592 45.946 268.869C45.39 267.146 43.7221 247.046 43.7221 247.046L39.2744 247.62Z" fill="#00B2FF"/>
<path d="M53.5 68C60.4036 68 66 62.8513 66 56.5C66 50.1487 60.4036 45 53.5 45C46.5964 45 41 50.1487 41 56.5C41 62.8513 46.5964 68 53.5 68Z" fill="#FFD6BE"/>
<path d="M98.3744 122.545C98.3744 122.545 74.3204 132.944 72.0291 121.967C70.6203 115.106 69.6635 108.16 69.165 101.172C69.1628 101.169 69.1598 101.168 69.1566 101.168C68.8214 100.962 56.9705 93.6267 59.3042 83.4839C59.8474 81.2869 60.8676 79.2389 62.2913 77.4881C62.2913 77.4881 62.6435 77.257 63.2417 76.936C63.9431 76.5582 64.6672 76.2252 65.4099 75.9389C69.4536 74.3853 76.1789 73.508 77.753 83.8391C80.0443 98.8608 80.0443 115.038 80.0443 115.038C80.0443 115.038 86.9181 119.082 96.0831 115.038C105.248 110.994 114.413 113.305 114.986 118.504C115.559 123.7 98.3744 122.545 98.3744 122.545Z" fill="#FFDCC9"/>
<path d="M37 81L36.8773 84.8045L35.5151 127.693L35.2867 134.818L15.3018 157.149C15.3018 157.149 11.304 169.169 2.7373 170.886C-5.82943 172.604 8.44846 154.286 8.44846 154.286L27.8664 125.657L27.896 124.694C28.1147 116.673 27.4479 108.652 25.9077 100.777C25.3377 97.8463 25.2278 94.844 25.5819 91.879C26.3773 85.4916 31.6188 82.722 34.7155 81.632C35.2847 81.4274 35.8653 81.256 36.4543 81.1188C36.4592 81.1154 36.4652 81.1139 36.4712 81.1145C36.7292 81.0509 36.9027 81.017 36.9704 81.0043C36.9801 81.002 36.99 81.0006 37 81Z" fill="#FFDCC9"/>
<path d="M69 122.408V124.709C60.7338 134.958 42.4371 130.117 35.7712 127.906C34.2045 127.386 33.2804 127.011 33.2804 127.011C33.6197 126.29 33.8126 125.507 33.8475 124.709V119.536C33.8475 117.81 34.4103 118.961 34.9774 118.385C35.5444 117.81 33.2804 114.358 33.2804 114.358C27.61 110.906 31.0122 101.126 31.0122 101.126L34.9774 92.4964V81.6252C35.5425 81.4196 36.1189 81.2474 36.7037 81.1096C36.7086 81.1062 36.7146 81.1047 36.7205 81.1053C36.8797 81.0448 37.0466 81.0075 37.2161 80.9945C37.2258 80.9923 37.2356 80.9908 37.2455 80.9903C37.7298 80.949 38.2062 80.84 38.661 80.6664C39.7237 82.8909 42.0339 85.8186 46.8853 86.168C52.6943 86.5899 58.2009 80.236 60.7337 76.7969C61.3375 76.9247 61.9525 76.9903 62.5693 76.9929C63.2635 76.6167 63.9804 76.2851 64.7156 76L62.1955 86.7433C59.9651 92.3984 68.1431 100.828 68.4245 101.122C68.4277 101.122 68.4307 101.124 68.4329 101.126V107.454L67.8659 114.358L67.2988 116.084L68.4329 117.81L67.8659 119.536L68.4329 120.686C69 121.833 69 121.262 69 122.408Z" fill="#554044"/>
<path d="M34.341 126.524L32.6196 125.949C32.6196 125.949 11.9626 177.688 25.7339 179.987C39.5052 182.287 49.8337 186.311 52.1289 182.287C54.4241 178.262 53.2765 163.891 53.2765 163.891L55.5717 163.316C55.5717 163.316 51.5551 184.586 59.5884 182.861C67.6216 181.137 90 178.262 90 175.963C90 173.663 69.343 124 69.343 124C69.343 124 60.736 129.398 34.341 126.524Z" fill="#00B2FF"/>
<path d="M52.5 35C56.0899 35 59 32.3137 59 29C59 25.6863 56.0899 23 52.5 23C48.9101 23 46 25.6863 46 29C46 32.3137 48.9101 35 52.5 35Z" fill="#00B2FF"/>
<path d="M45.2727 25C45.2728 23.5126 45.8589 22.0783 46.9171 20.9753C47.9754 19.8722 49.4304 19.1791 51 19.0303C50.7906 19.0107 50.5785 19 50.3636 19C48.6759 19 47.0573 19.6321 45.8639 20.7574C44.6705 21.8826 44 23.4087 44 25C44 26.5913 44.6705 28.1174 45.8639 29.2426C47.0573 30.3679 48.6759 31 50.3636 31C50.5785 31 50.7906 30.9893 51 30.9697C49.4304 30.8209 47.9754 30.1278 46.9171 29.0247C45.8589 27.9217 45.2729 26.4874 45.2727 25Z" fill="#00B2FF"/>
<path d="M48.3241 41.1268C48.3241 41.1268 48.1983 40.4051 43.2787 42.3065C38.3591 44.2079 35.4101 58.2394 37.8699 66.4789C38.8612 69.7993 38.0548 72.1934 36.7387 73.8685C31.7996 80.1544 33.7439 89.5956 40.938 92.828C41.1411 92.9193 41.3483 93.0094 41.5596 93.0986L44.6344 95C44.6344 95 40.7147 89.6845 42.6763 82.8849C44.3797 77.0914 44.5901 70.9406 43.2867 65.0379C43.0616 64.0421 42.806 63.0157 42.5156 61.9682C40.0558 53.095 41.2522 54.1197 49.8615 45.2465C49.8615 45.2465 54.7811 49.0493 59.0858 50.9507C63.3905 52.8521 67.0802 54.7535 64.0054 61.0915C60.9306 67.4295 53.5512 73.1338 58.4708 81.3732C63.3904 89.6127 64.0054 86.4436 63.3904 89.6127L62.7755 92.7817L66.4652 88.9789L64.0054 94.0493C64.0054 94.0493 71.9998 94.0493 74.4596 87.7112L75.6895 88.9788C75.6895 88.9788 80.6091 80.1056 71.3848 71.8662C71.3848 71.8662 68.31 69.9648 72.6147 63.6267C76.9194 57.2887 73.6133 43.6619 68.0788 41.1267C62.5442 38.5916 48.3241 41.1268 48.3241 41.1268Z" fill="#00B2FF"/>
<path d="M112.255 138L129 132.798C128.073 125.892 125.958 119.196 122.745 113L106 118.202C109.93 124.083 112.098 130.947 112.255 138Z" fill="#FFE600"/>
<path d="M284 69C284 107.108 253.108 138 215 138C176.892 138 146 107.108 146 69C146 30.8924 176.892 0 215 0C253.108 0 284 30.8924 284 69Z" fill="#EFEFEF"/>
<path d="M150.8 129.548L159.676 109.2L171.336 121.487L150.8 129.548Z" fill="#EFEFEF"/>
<path d="M252.005 65.7873C252.005 39.8109 235.954 25.0005 215.004 25.0005C193.938 25.0005 178.003 39.8109 178.003 65.7873C178.003 91.6474 193.938 106.574 215.004 106.574C219.942 106.574 224.611 105.76 228.855 104.132L235.221 112.002H250.808L239.504 97.7344C247.22 90.7945 252.005 79.9387 252.005 65.7873ZM209.216 77.8838L219.325 91.2985C217.975 91.5699 216.509 91.725 215.004 91.725C202.85 91.725 194.941 82.6138 194.941 65.7873C194.941 48.9608 202.85 39.8497 215.004 39.8497C227.119 39.8497 235.067 48.9608 235.067 65.7873C235.067 74.4332 232.945 81.063 229.279 85.4441L223.415 77.8838H209.216Z" fill="white"/>
<path d="M254.563 238.429C232.786 244.264 210.401 231.34 204.566 209.563C198.731 187.785 211.654 165.401 233.432 159.566C255.209 153.73 277.594 166.654 283.429 188.432C289.264 210.209 276.34 232.594 254.563 238.429Z" fill="#EFEFEF"/>
<path d="M199.565 171.58L212.553 173.537L207.317 182.082L199.565 171.58Z" fill="#EFEFEF"/>
<path d="M266.004 198.912C266.004 183.685 256.461 175.003 244.004 175.003C231.478 175.003 222.004 183.685 222.004 198.912C222.004 214.071 231.478 222.821 244.004 222.821C246.94 222.821 249.716 222.344 252.24 221.39L256.025 226.003H265.293L258.571 217.64C263.159 213.571 266.004 207.208 266.004 198.912ZM240.563 206.003L246.573 213.867C245.77 214.026 244.899 214.117 244.004 214.117C236.778 214.117 232.075 208.776 232.075 198.912C232.075 189.049 236.778 183.708 244.004 183.708C251.207 183.708 255.933 189.049 255.933 198.912C255.933 203.981 254.671 207.867 252.492 210.435L249.005 206.003H240.563Z" fill="white"/>
<path d="M150.475 261.705C138.615 258.527 131.576 246.336 134.754 234.476C137.932 222.615 150.124 215.576 161.984 218.754C173.845 221.932 180.883 234.124 177.705 245.984C174.527 257.845 162.336 264.883 150.475 261.705Z" fill="#EFEFEF"/>
<path d="M142.739 215.199L148.332 219.658L143.535 222.263L142.739 215.199Z" fill="#EFEFEF"/>
<path d="M168.003 239.6C168.003 230.941 162.797 226.004 156.003 226.004C149.171 226.004 144.003 230.941 144.003 239.6C144.003 248.219 149.171 253.195 156.003 253.195C157.604 253.195 159.118 252.924 160.495 252.381L162.56 255.004H167.615L163.948 250.248C166.451 247.935 168.003 244.317 168.003 239.6ZM154.126 243.632L157.404 248.103C156.966 248.194 156.491 248.245 156.003 248.245C152.061 248.245 149.496 245.208 149.496 239.6C149.496 233.991 152.061 230.954 156.003 230.954C159.932 230.954 162.509 233.991 162.509 239.6C162.509 242.481 161.821 244.691 160.633 246.152L158.731 243.632H154.126Z" fill="white"/>
</svg>
