<svg width="422" height="256" viewBox="0 0 422 256" fill="none" xmlns="http://www.w3.org/2000/svg">
<path d="M277.716 4C275.069 4 272.574 4.62449 270.344 5.70889C269.739 5.6043 269.121 5.53816 268.487 5.53816C262.541 5.53816 257.72 10.3587 257.72 16.3053V34.7631H257.748C258.029 44.7104 266.163 52.6919 276.178 52.6919C286.193 52.6919 294.327 44.7104 294.608 34.7631H294.636V20.9197C294.636 11.5754 287.06 4 277.716 4Z" fill="#FFAC33"/>
<path d="M290.021 45.5302H262.334C258.936 45.5302 256.181 48.2851 256.181 51.6828V59.3736H296.173V51.6828C296.173 48.2851 293.419 45.5302 290.021 45.5302Z" fill="#9268CA"/>
<path d="M271.563 37.8394V47.0684C271.563 49.6171 273.629 51.6828 276.177 51.6828C278.726 51.6828 280.792 49.6171 280.792 47.0684V37.8394H271.563Z" fill="#FFDC5D"/>
<path d="M262.334 11.6908V30.1487C262.334 37.7948 268.531 43.9921 276.177 43.9921C283.824 43.9921 290.021 37.7948 290.021 30.1487V11.6908H262.334Z" fill="#FFDC5D"/>
<path d="M291.557 11.6908L288.483 10.1526H260.796V20.9197C270.025 20.9197 270.025 11.6908 270.025 11.6908C270.025 11.6908 273.101 22.4579 291.559 22.4579L291.557 11.6908Z" fill="#FFAC33"/>
<path d="M262.334 53.2209H263.872V59.3736H262.334V53.2209ZM288.483 53.2209H290.021V59.3736H288.483V53.2209Z" fill="#7450A8"/>
<path d="M276.178 40.9166C277.027 40.9166 277.716 40.2277 277.716 39.378C277.716 38.5283 277.027 37.8394 276.178 37.8394C275.328 37.8394 274.639 38.5283 274.639 39.378C274.639 40.2277 275.328 40.9166 276.178 40.9166Z" fill="#DF1F32"/>
<path d="M270.025 28.6105C269.176 28.6105 268.487 27.9214 268.487 27.0723V25.5342C268.487 24.6851 269.176 23.996 270.025 23.996C270.874 23.996 271.563 24.6851 271.563 25.5342V27.0723C271.563 27.9214 270.874 28.6105 270.025 28.6105ZM282.33 28.6105C281.479 28.6105 280.792 27.9214 280.792 27.0723V25.5342C280.792 24.6851 281.479 23.996 282.33 23.996C283.181 23.996 283.868 24.6851 283.868 25.5342V27.0723C283.868 27.9214 283.181 28.6105 282.33 28.6105Z" fill="#662113"/>
<path d="M277.716 33.994H274.639C274.215 33.994 273.87 33.6495 273.87 33.2249C273.87 32.8004 274.215 32.4559 274.639 32.4559H277.716C278.14 32.4559 278.485 32.8004 278.485 33.2249C278.485 33.6495 278.14 33.994 277.716 33.994Z" fill="#C1694F"/>
<path d="M170.044 57.0972V50.9446C170.044 45.8471 165.915 41.7156 160.816 41.7156H136.205C131.109 41.7156 126.976 45.8471 126.976 50.9446V57.0972H170.044Z" fill="#3B88C3"/>
<path d="M142.358 41.7156L148.51 49.4079L154.663 41.7156V35.563H142.358V41.7156Z" fill="#F3D2A2"/>
<path d="M142.358 38.6393C144.228 40.7527 145.98 41.2834 148.504 41.2834C151.025 41.2834 152.791 40.7512 154.663 38.6393V32.4867H142.358V38.6393Z" fill="#E2C196"/>
<path d="M138.426 23.1593C138.426 25.3865 137.297 27.1923 135.905 27.1923C134.513 27.1923 133.384 25.3865 133.384 23.1593C133.384 20.932 134.513 19.1247 135.905 19.1247C137.297 19.1232 138.426 20.9305 138.426 23.1593ZM163.635 23.1593C163.635 25.3865 162.508 27.1923 161.114 27.1923C159.722 27.1923 158.593 25.3865 158.593 23.1593C158.593 20.932 159.721 19.1247 161.114 19.1247C162.508 19.1232 163.635 20.9305 163.635 23.1593Z" fill="#F3D2A2"/>
<path d="M135.401 24.7344C135.401 16.1376 141.27 9.16669 148.511 9.16669C155.751 9.16669 161.619 16.1376 161.619 24.7344C161.619 33.3311 155.751 40.302 148.511 40.302C141.27 40.3005 135.401 33.3311 135.401 24.7344" fill="#F3D2A2"/>
<path d="M148.51 35.2583C144.274 35.2583 142.973 34.1739 142.756 33.954C142.362 33.5602 142.362 32.9219 142.756 32.5281C143.137 32.1467 143.75 32.1359 144.143 32.4927C144.223 32.5496 145.252 33.2418 148.51 33.2418C151.894 33.2418 152.872 32.4958 152.882 32.4881C153.275 32.0959 153.892 32.1144 154.286 32.5112C154.68 32.905 154.658 33.5618 154.265 33.954C154.048 34.1739 152.746 35.2583 148.51 35.2583Z" fill="#C1694F"/>
<path d="M148.51 4C157.198 4 162.628 10.411 162.628 15.7531C162.628 21.0951 161.542 23.2331 160.456 21.0951L158.284 16.8221C158.284 16.8221 151.77 16.8221 149.598 14.684C149.598 14.684 152.856 21.0951 146.34 14.684C146.34 14.684 147.426 18.9586 140.91 13.6166C140.91 13.6166 137.653 15.7531 136.567 21.0951C136.265 22.5779 134.395 21.0951 134.395 15.7531C134.393 10.411 138.737 4 148.51 4Z" fill="#FFE51E"/>
<path d="M142.358 24.7959C141.512 24.7959 140.82 24.1038 140.82 23.2578V21.7196C140.82 20.8736 141.512 20.1815 142.358 20.1815C143.204 20.1815 143.896 20.8736 143.896 21.7196V23.2578C143.896 24.1038 143.204 24.7959 142.358 24.7959ZM154.663 24.7959C153.817 24.7959 153.125 24.1038 153.125 23.2578V21.7196C153.125 20.8736 153.817 20.1815 154.663 20.1815C155.509 20.1815 156.201 20.8736 156.201 21.7196V23.2578C156.201 24.1038 155.509 24.7959 154.663 24.7959Z" fill="#662113"/>
<path d="M149.664 29.0259H147.357C146.722 29.0259 146.203 28.5075 146.203 27.8722C146.203 27.237 146.722 26.7186 147.357 26.7186H149.664C150.299 26.7186 150.818 27.237 150.818 27.8722C150.818 28.5075 150.299 29.0259 149.664 29.0259Z" fill="#C1694F"/>
<path d="M136.205 51.7136H133.129C133.129 45.4164 136.016 38.6393 142.358 38.6393V41.7156C137.491 41.7156 136.205 48.2558 136.205 51.7136ZM162.354 45.561H159.278C159.278 44.9288 158.476 41.7156 154.663 41.7156V38.6393C160.097 38.6393 162.354 43.1476 162.354 45.561Z" fill="#292F33"/>
<path d="M134.667 56.3282C137.216 56.3282 139.282 54.2622 139.282 51.7137C139.282 49.1652 137.216 47.0992 134.667 47.0992C132.119 47.0992 130.053 49.1652 130.053 51.7137C130.053 54.2622 132.119 56.3282 134.667 56.3282Z" fill="#CCD6DD"/>
<path d="M134.667 54.79C136.366 54.79 137.743 53.4126 137.743 51.7136C137.743 50.0146 136.366 48.6373 134.667 48.6373C132.968 48.6373 131.591 50.0146 131.591 51.7136C131.591 53.4126 132.968 54.79 134.667 54.79Z" fill="#F5F8FA"/>
<path d="M166.968 54.0209H163.892C163.892 52.7365 163.726 46.3301 160.431 46.3301C157.136 46.3301 156.97 52.7365 156.97 54.0209H153.894C153.894 47.2791 156.338 43.2538 160.431 43.2538C164.524 43.2538 166.968 47.2791 166.968 54.0209Z" fill="#292F33"/>
<path d="M155.432 55.5599C156.282 55.5599 156.971 54.871 156.971 54.0213C156.971 53.1716 156.282 52.4827 155.432 52.4827C154.583 52.4827 153.894 53.1716 153.894 54.0213C153.894 54.871 154.583 55.5599 155.432 55.5599Z" fill="#CCD6DD"/>
<path d="M165.431 55.5599C166.28 55.5599 166.969 54.871 166.969 54.0213C166.969 53.1716 166.28 52.4827 165.431 52.4827C164.581 52.4827 163.892 53.1716 163.892 54.0213C163.892 54.871 164.581 55.5599 165.431 55.5599Z" fill="#CCD6DD"/>
<path d="M231.571 43.9921C231.571 47.3899 228.816 50.1447 225.418 50.1447H191.579C188.181 50.1447 185.426 47.3899 185.426 43.9921V10.1526C185.426 6.75484 188.181 4 191.579 4H225.418C228.816 4 231.571 6.75484 231.571 10.1526V43.9921Z" fill="#D99E82"/>
<path d="M228.495 43.9929C228.495 45.691 227.117 47.0692 225.419 47.0692H191.58C189.882 47.0692 188.503 45.691 188.503 43.9929V10.1535C188.503 8.4538 189.882 7.07715 191.58 7.07715H225.419C227.117 7.07715 228.495 8.4538 228.495 10.1535V43.9929Z" fill="#5C913B"/>
<path d="M196.986 17.6865C196.862 17.8342 196.702 18.0557 196.702 18.3141C196.702 18.8801 197.121 19.1262 197.662 19.1262H201.769C202.237 19.1262 202.655 18.8801 202.655 18.3141C202.655 17.7481 202.238 17.502 201.695 17.502H199.445C200.489 16.1868 202.397 14.4902 202.397 12.7798C202.397 11.2186 201.179 10.2219 199.667 10.2219C198.155 10.2219 196.776 11.4632 196.776 13.0136C196.776 13.492 197.084 13.9104 197.675 13.9104C198.856 13.9104 198.179 11.9184 199.593 11.9184C200.097 11.9184 200.479 12.3614 200.479 12.866C200.479 13.3089 200.269 13.6904 200.048 14.0103C199.113 15.3624 198.007 16.4699 196.986 17.6865V17.6865ZM194.975 26.0433H193.192V24.2591C193.192 23.8161 192.909 23.5223 192.454 23.5223C192 23.5223 191.717 23.8176 191.717 24.2591V26.0433H189.935C189.479 26.0433 189.196 26.3387 189.196 26.7801C189.196 27.2231 189.479 27.5184 189.935 27.5184H191.717V29.3012C191.717 29.7441 192 30.0379 192.454 30.0379C192.909 30.0379 193.192 29.7441 193.192 29.3012V27.5184H194.975C195.43 27.5184 195.713 27.2231 195.713 26.7801C195.713 26.3387 195.43 26.0433 194.975 26.0433V26.0433ZM201.695 28.2691H199.443C200.489 26.9539 202.395 25.2573 202.395 23.5469C202.395 21.9857 201.177 20.989 199.665 20.989C198.153 20.989 196.775 22.2318 196.775 23.7807C196.775 24.2591 197.082 24.6775 197.672 24.6775C198.853 24.6775 198.176 22.6855 199.591 22.6855C200.096 22.6855 200.477 23.1285 200.477 23.633C200.477 24.076 200.268 24.4575 200.046 24.7774C199.111 26.1295 198.005 27.2369 196.984 28.4552C196.861 28.6028 196.701 28.8243 196.701 29.0827C196.701 29.6488 197.119 29.8949 197.661 29.8949H201.768C202.235 29.8949 202.654 29.6488 202.654 29.0827C202.654 28.5152 202.237 28.2691 201.695 28.2691V28.2691ZM202.987 33.1788H190.168C189.744 33.1788 189.399 32.8343 189.399 32.4098C189.399 31.9852 189.744 31.6407 190.168 31.6407H202.986C203.41 31.6407 203.755 31.9852 203.755 32.4098C203.756 32.8343 203.412 33.1788 202.987 33.1788Z" fill="white"/>
<path d="M240.8 59.3736V56.2973C240.8 51.1998 236.668 47.0684 231.571 47.0684H206.96C201.864 47.0684 197.731 51.1998 197.731 56.2973V59.3736H240.8Z" fill="#E1E8ED"/>
<path d="M212.559 47.2238C215.242 49.1742 216.94 49.6079 219.266 49.6079C221.591 49.6079 223.288 49.1726 225.97 47.2238V41.3619H212.558V47.2238H212.559Z" fill="#F7DECE"/>
<path d="M212.547 43.9506C214.418 46.0641 216.737 46.6363 219.26 46.6363C221.781 46.6363 224.099 46.0625 225.971 43.9506V38.5809H212.546V43.9506H212.547Z" fill="#EEC2AD"/>
<path d="M209.181 28.5121C209.181 30.7393 208.052 32.5451 206.66 32.5451C205.268 32.5451 204.139 30.7393 204.139 28.5121C204.139 26.2848 205.268 24.4775 206.66 24.4775C208.052 24.4759 209.181 26.2833 209.181 28.5121ZM234.39 28.5121C234.39 30.7393 233.263 32.5451 231.869 32.5451C230.477 32.5451 229.348 30.7393 229.348 28.5121C229.348 26.2848 230.476 24.4775 231.869 24.4775C233.263 24.4759 234.39 26.2833 234.39 28.5121Z" fill="#F7DECE"/>
<path d="M206.156 30.0856C206.156 21.4889 212.026 14.5179 219.266 14.5179C226.506 14.5179 232.374 21.4889 232.374 30.0856C232.374 38.6824 226.506 45.6533 219.266 45.6533C212.027 45.6533 206.156 38.6839 206.156 30.0856" fill="#F7DECE"/>
<path d="M226.226 36.8334L224.276 36.412C223.654 36.2674 222.471 36.3012 221.915 36.3012H216.24C215.683 36.3012 214.501 36.2674 213.878 36.4104L211.93 36.8319C211.395 36.9872 211.084 37.4364 211.238 37.9701C211.364 38.4131 211.769 38.6484 212.207 38.6484C212.298 38.6484 212.392 38.6085 212.484 38.5838L214.433 38.0132C214.213 38.307 214.155 38.6992 214.331 39.053C214.508 39.4037 214.865 39.6067 215.234 39.6067C215.387 39.6067 215.54 39.5698 215.685 39.4975L217.275 38.7007C217.309 39.0314 217.489 39.3375 217.808 39.4975C217.952 39.5683 218.108 39.6036 218.258 39.6036C218.629 39.6036 218.986 39.3975 219.161 39.0453L219.266 38.833L219.184 39.0453C219.36 39.3975 219.529 39.6036 219.9 39.6036C220.05 39.6036 220.204 39.5683 220.349 39.4975C220.667 39.3375 220.845 39.0314 220.882 38.7007L222.471 39.4975C222.617 39.5698 222.771 39.6067 222.922 39.6067C223.293 39.6067 223.648 39.4037 223.825 39.053C224 38.7007 223.942 38.3085 223.723 38.0132L225.671 38.5838C225.761 38.6085 225.857 38.6484 225.949 38.6484C226.387 38.6484 226.79 38.4146 226.918 37.9701C227.07 37.4364 226.761 36.9872 226.226 36.8334V36.8334ZM219.266 9.35272C227.953 9.35272 233.383 15.7638 233.383 21.1058C233.383 26.4478 232.297 28.5858 231.211 26.4478L229.039 22.1748C229.039 22.1748 222.525 22.1748 220.353 20.0368C220.353 20.0368 223.611 26.4478 217.095 20.0368C217.095 20.0368 218.181 24.3113 211.666 18.9693C211.666 18.9693 208.408 21.1058 207.322 26.4478C207.021 27.9306 205.15 26.4478 205.15 21.1058C205.149 15.7638 209.492 9.35272 219.266 9.35272Z" fill="#292F33"/>
<path d="M213.113 30.1486C212.267 30.1486 211.575 29.4565 211.575 28.6105V27.0723C211.575 26.2264 212.267 25.5342 213.113 25.5342C213.959 25.5342 214.651 26.2264 214.651 27.0723V28.6105C214.651 29.4565 213.959 30.1486 213.113 30.1486ZM225.418 30.1486C224.572 30.1486 223.88 29.4565 223.88 28.6105V27.0723C223.88 26.2264 224.572 25.5342 225.418 25.5342C226.264 25.5342 226.957 26.2264 226.957 27.0723V28.6105C226.957 29.4565 226.264 30.1486 225.418 30.1486Z" fill="#662113"/>
<path d="M220.419 34.3786H218.112C217.477 34.3786 216.958 33.8602 216.958 33.225C216.958 32.5897 217.477 32.0714 218.112 32.0714H220.419C221.055 32.0714 221.573 32.5897 221.573 33.225C221.573 33.8602 221.055 34.3786 220.419 34.3786Z" fill="#C1694F"/>
<path d="M219.173 51.5029C219.173 51.5029 224.374 55.3391 225.471 55.7744C225.711 55.8697 224.906 50.1509 224.906 50.1509H213.442C213.442 50.1509 212.636 55.9667 213.081 55.7267C214.065 55.2006 219.173 51.5029 219.173 51.5029Z" fill="#99AAB5"/>
<path d="M221.192 55.4375C221.192 55.4375 221.768 54.4762 222.008 54.044C222.288 53.5395 222.705 51.6291 222.705 51.6291L219.34 50.1509C219.34 50.1386 219.093 50.1601 219.093 50.1601L218.81 50.2232L218.546 50.3186C218.209 50.4262 218.69 50.3309 218.69 50.3432L215.653 51.6291C215.653 51.6291 216.094 53.5395 216.377 54.044C216.617 54.4762 217.188 55.4375 217.188 55.4375C217.188 55.4375 216.031 56.302 215.596 59.3814H222.774C222.345 56.928 221.192 55.4375 221.192 55.4375Z" fill="#BE1931"/>
<path d="M211.927 44.9594C212.796 45.83 219.171 50.163 219.171 50.163C219.171 50.163 215.903 52.0734 212.887 55.6004C212.587 55.9542 210.515 48.4864 210.45 46.8191C210.433 46.353 211.511 44.541 211.927 44.9594V44.9594ZM226.449 44.9594C225.578 45.83 219.205 50.163 219.205 50.163C219.205 50.163 222.474 52.0734 225.487 55.6004C225.787 55.9542 227.857 48.4864 227.921 46.8191C227.939 46.353 226.864 44.541 226.449 44.9594Z" fill="#F5F8FA"/>
<path d="M219.196 51.2075C219.795 51.1752 221.57 52.3934 221.384 53.1302C220.675 55.9419 220.076 55.2697 219.244 55.2697C218.304 55.2697 217.76 55.9973 217.104 53.2517C216.961 52.6564 218.332 51.2567 219.196 51.2075V51.2075ZM222.32 59.3797H216.132C216.132 59.3797 216.964 56.0481 219.236 56.0481C221.507 56.0481 222.32 59.3797 222.32 59.3797Z" fill="#DD2E44"/>
<path d="M311.049 81.9985C311.049 88.9751 318.094 101.515 335.043 101.515C351.992 101.515 358.719 89.6659 358.719 79.3333C358.719 76.5726 348.815 70.4901 335.263 70.4901C321.712 70.4901 311.049 76.9204 311.049 81.9985Z" fill="#292F33"/>
<path d="M363.745 109.831C356.396 104.935 335.263 116.323 335.263 116.323C335.263 116.323 314.13 104.935 306.781 109.831C299.432 114.731 293.619 128.571 293.619 128.571H376.907C376.907 128.571 371.094 114.731 363.745 109.831Z" fill="#A0041E"/>
<path d="M359.759 111.424H310.766C303.417 111.424 300.968 128.571 300.968 128.571H369.558C369.558 128.571 367.108 111.424 359.759 111.424Z" fill="#55ACEE"/>
<path d="M350.098 128.571C347.132 125.646 341.608 123.672 335.263 123.672C328.919 123.672 323.395 125.646 320.428 128.571H350.098V128.571Z" fill="#DD2E44"/>
<path d="M326.273 113.922C329.864 116.531 335.253 116.323 335.253 116.323C335.253 116.323 340.645 116.531 344.236 113.922V100.047H326.273V113.922V113.922Z" fill="#F7DECE"/>
<path d="M326.383 108.668C324.982 106.659 322.461 106.429 319.85 106.429C317.4 106.429 315.666 108.31 315.666 108.31C315.666 108.31 311.991 106.439 308.15 108.259C303.721 110.358 300.968 115.546 300.968 115.546C300.968 115.546 305.867 111.424 310.766 111.424C315.666 111.424 318.115 118.772 318.115 118.772C323.015 116.323 335.263 116.323 335.263 116.323C332.813 116.323 328.144 111.193 326.383 108.668ZM362.375 108.259C358.534 106.439 354.86 108.31 354.86 108.31C354.86 108.31 353.125 106.429 350.676 106.429C348.065 106.429 345.544 106.659 344.143 108.668C342.381 111.193 337.712 116.323 335.263 116.323C335.263 116.323 347.511 116.323 352.41 118.772C352.41 118.772 354.86 111.424 359.759 111.424C364.658 111.424 369.558 115.546 369.558 115.546C369.558 115.546 366.804 110.358 362.375 108.259V108.259Z" fill="#DD2E44"/>
<path d="M326.111 102.063C328.614 104.893 331.721 105.659 335.096 105.659C338.474 105.659 341.58 104.895 344.086 102.063V94.8712H326.111V102.063V102.063Z" fill="#EEC2AD"/>
<path d="M314.87 78.8875C314.87 93.1762 323.875 104.082 334.984 104.082C346.088 104.082 355.093 93.1762 355.093 78.8875C355.093 64.5963 346.088 53.012 334.984 53.012C323.877 53.0095 314.87 64.5963 314.87 78.8875" fill="#F7DECE"/>
<path d="M324.377 54.9104C324.377 54.9104 318.116 50.1826 310.767 55.0819C303.418 59.9812 308.317 69.7797 308.317 69.7797C308.317 69.7797 303.418 72.2294 303.418 77.1286C303.418 82.0279 308.317 84.4776 308.317 84.4776C308.317 84.4776 305.867 86.9272 305.867 89.3768C305.867 91.8265 310.767 94.2786 310.767 96.7282C310.767 99.1778 305.867 101.627 305.867 101.627C305.867 101.627 315.666 101.627 315.666 96.7282C315.666 91.8289 310.767 77.1286 325.464 67.3301C325.464 67.3301 332.813 69.7797 337.713 69.7797C342.612 69.7797 354.86 72.2294 354.86 79.5783V96.7282C354.86 99.1778 359.759 101.627 362.209 101.627C362.209 101.627 359.571 99.2709 359.571 96.8213C359.571 94.3716 365.651 89.5655 365.651 84.6662C365.651 79.7669 362.209 77.1286 362.209 77.1286C362.209 77.1286 367.108 69.7797 364.659 64.8805C362.209 59.9812 355.945 59.0699 355.945 59.0699C355.945 59.0699 355.828 51.3878 348.479 48.9382C341.13 46.4886 334.082 51.3903 334.082 51.3903C334.082 51.3903 330.349 48.1911 327.258 49.4698C324.056 50.795 324.377 54.9104 324.377 54.9104V54.9104Z" fill="#292F33"/>
<path d="M351.242 72.2294C344.393 72.2294 339.827 74.3287 335.263 74.3287C330.699 74.3287 326.131 72.2294 319.284 72.2294C312.435 72.2294 317.001 84.2399 319.284 86.3393C321.567 88.4386 330.699 84.2399 335.263 84.2399C339.827 84.2399 348.959 88.4386 351.242 86.3393C353.525 84.2399 358.091 72.2294 351.242 72.2294V72.2294Z" fill="#226699"/>
<path d="M326.69 82.6869C325.55 82.6869 324.617 81.7536 324.617 80.6121V78.5421C324.617 77.403 325.55 76.4697 326.69 76.4697C327.831 76.4697 328.764 77.403 328.764 78.5421V80.6121C328.762 81.7536 327.829 82.6869 326.69 82.6869ZM343.837 82.6869C342.698 82.6869 341.765 81.7536 341.765 80.6121V78.5421C341.765 77.403 342.698 76.4697 343.837 76.4697C344.976 76.4697 345.909 77.403 345.909 78.5421V80.6121C345.909 81.7536 344.976 82.6869 343.837 82.6869Z" fill="#88C9F9"/>
<path d="M334.986 98.0558C331.052 98.0558 328.992 96.1108 328.771 95.8879C328.115 95.2338 328.115 94.1731 328.771 93.5191C329.423 92.8699 330.467 92.865 331.126 93.5019C331.211 93.5803 332.475 94.7047 334.986 94.7047C337.529 94.7047 338.795 93.546 338.847 93.4995C339.516 92.8724 340.569 92.892 341.206 93.5485C341.843 94.2074 341.843 95.2412 341.196 95.8879C340.976 96.1108 338.918 98.0558 334.986 98.0558" fill="#DF1F32"/>
<path d="M337.166 90.6017H333.026C332.456 90.6017 331.99 90.1363 331.99 89.5655V89.1907C331.99 88.62 332.453 88.1521 333.026 88.1521H337.166C337.737 88.1521 338.205 88.6175 338.205 89.1907V89.5655C338.205 90.1363 337.74 90.6017 337.166 90.6017Z" fill="#C1694F"/>
<path d="M108.556 114.62C101.21 114.471 66.91 114.471 59.5635 114.62C43.8564 114.941 47.3153 131.768 47.3153 131.768H120.804C120.804 131.768 124.263 114.941 108.556 114.62Z" fill="#292F33"/>
<path d="M86.0199 128.828L88.9595 124.419L84.0602 121.969L79.161 124.419L82.1005 128.828L64.4631 124.419L69.3624 131.768H98.7581L103.657 124.419L86.0199 128.828Z" fill="#99AAB5"/>
<path d="M74.9209 115.794C78.5121 118.403 82.1816 118.195 83.916 118.195C85.6503 118.195 89.2905 118.403 92.8816 115.794V101.919H74.9209V115.794V115.794Z" fill="#7C533E"/>
<path d="M74.9084 105.26C77.412 108.09 80.5181 108.856 83.8937 108.856C87.2718 108.856 90.3779 108.092 92.8839 105.26V98.0682H74.9084V105.26V105.26Z" fill="#664131"/>
<path d="M63.6672 82.0844C63.6672 67.7932 72.6721 56.2089 83.7812 56.2089C94.8854 56.2089 103.89 67.7932 103.89 82.0844C103.89 96.3731 94.8854 107.279 83.7812 107.279C72.6746 107.279 63.6672 96.3731 63.6672 82.0844" fill="#7C533E"/>
<path d="M106.107 55.8292C111.006 55.8292 113.453 58.2788 113.453 58.2788C111.004 50.9299 101.205 50.9299 101.205 50.9299C98.8828 45.5309 94.9046 45.5309 94.9046 45.5309C97.0407 47.2211 97.0652 49.5434 97.0652 49.5434L96.9427 49.5654C93.8365 47.569 86.5954 44.2693 74.2615 46.0306C74.2615 46.0306 79.1608 46.0306 81.6104 48.4802C81.6104 48.4802 64.4629 46.0306 57.114 58.2788C57.114 58.2788 60.715 54.7146 66.3614 55.2216C62.1897 57.9089 58.7871 62.3378 58.1159 67.5458C57.0307 75.9652 59.451 79.8723 60.3108 86.2022C61.2857 93.3748 65.3179 95.6676 68.5416 96.6279C73.1787 102.754 78.1099 102.492 86.3872 102.492C97.9372 102.492 105.144 96.9463 108.578 87.0914C109.781 88.8895 109.646 90.2466 109.646 90.2466C109.646 90.2466 112.902 80.9673 112.096 70.6495C111.293 60.334 106.107 55.8292 106.107 55.8292Z" fill="#0B0200"/>
<path d="M102.344 74.0938C100.779 71.9283 98.7776 70.1842 94.3878 69.5669C96.034 70.3214 97.6115 72.9278 97.8173 74.3682C98.0231 75.8085 98.2289 76.9746 96.9257 75.5342C91.7055 69.7628 86.0199 72.0361 80.3832 68.5111C76.4467 66.0492 75.2488 63.3252 75.2488 63.3252C75.2488 63.3252 74.7687 66.9605 68.8014 70.6643C67.0719 71.7373 65.0069 74.1305 63.8629 77.6605C63.0398 80.1983 63.2946 82.4618 63.2946 86.3297C63.2946 97.6201 72.6007 107.115 84.0797 107.115C95.5588 107.115 104.865 97.5393 104.865 86.3297C104.862 79.3066 104.128 76.563 102.344 74.0938V74.0938Z" fill="#7C533E"/>
<path d="M117.49 113.396C115.56 110.214 105.507 109.721 98.3585 109.721C95.975 109.721 91.208 114.255 84.06 114.255C76.9119 114.255 72.1449 109.721 69.7614 109.721C62.6109 109.721 52.5601 110.214 50.6298 113.396C47.0606 119.275 55.3943 121.969 60.1588 121.969C64.9258 121.969 73.9846 119.52 84.06 119.52C94.1353 119.52 103.194 121.969 107.961 121.969C112.726 121.969 121.059 119.275 117.49 113.396Z" fill="#BE1931"/>
<path d="M62.9564 107.83C63.8432 107.688 66.3075 111.316 66.2487 112.029C66.1899 112.742 60.8693 113.2 60.5386 112.636C60.2054 112.073 62.0696 107.972 62.9564 107.83ZM51.8399 115.921C52.3641 116.734 60.1981 115.73 60.2422 114.672C60.2863 113.616 56.1292 108.621 54.8285 108.886C53.5302 109.153 51.3182 115.108 51.8399 115.921V115.921ZM107.559 112.636C107.229 113.2 101.908 112.742 101.849 112.029C101.79 111.316 104.255 107.688 105.142 107.83C106.026 107.972 107.893 112.073 107.559 112.636ZM113.267 108.888C111.966 108.624 107.809 113.616 107.853 114.674C107.897 115.73 115.734 116.737 116.256 115.924C116.78 115.108 114.565 109.153 113.267 108.888Z" fill="#99AAB5"/>
<path d="M84.0602 75.4263L96.3084 72.9767L98.7581 68.0774L103.657 72.9767L101.208 80.3256L103.657 85.2249L98.7581 90.1241L96.3084 95.0234L93.8588 90.1241L84.0602 85.2249L74.2617 90.1241L71.812 95.0234L69.3624 90.1241L64.4631 85.2249L66.9128 80.3256L64.4631 72.9767L69.3624 68.0774L71.812 72.9767L84.0602 75.4263Z" fill="#BE1931"/>
<path d="M78.5951 82.7752C78.5951 83.9142 77.6618 84.8476 76.5203 84.8476H74.4503C73.3112 84.8476 72.3779 83.9142 72.3779 82.7752C72.3779 81.6336 73.3112 80.7003 74.4503 80.7003H76.5203C77.6618 80.7028 78.5951 81.6361 78.5951 82.7752ZM95.7426 82.7752C95.7426 81.6361 94.8093 80.7028 93.6677 80.7028H91.5978C90.4587 80.7028 89.5254 81.6361 89.5254 82.7752C89.5254 83.9142 90.4587 84.8476 91.5978 84.8476H93.6677C94.8093 84.8476 95.7426 83.9142 95.7426 82.7752Z" fill="black"/>
<path d="M91.0026 96.5471C89.3075 97.2845 86.1572 98.5583 83.3867 98.5583H77.9362C77.2626 98.5583 76.7114 99.1095 76.7114 99.7831C76.7114 100.457 77.2626 101.008 77.9362 101.008H88.2345C88.2492 101.008 88.2517 101.001 88.2664 101.001L88.4329 101.008C89.8562 101.008 90.9218 99.4671 91.4999 98.23C92.1907 96.7456 92.1392 96.0523 91.0026 96.5471V96.5471ZM85.9637 93.7986H81.8238C81.2531 93.7986 80.7876 93.3332 80.7876 92.7624V92.3876C80.7876 91.8169 81.2506 91.349 81.8238 91.349H85.9637C86.5345 91.349 87.0024 91.8144 87.0024 92.3876V92.7624C87.0024 93.3332 86.5369 93.7986 85.9637 93.7986Z" fill="#3D2E24"/>
<path d="M279.809 113.606C274.53 110.948 216.498 110.948 211.219 113.606C201.433 118.532 206.32 130.753 206.32 130.753H284.708C284.708 130.753 289.595 118.532 279.809 113.606Z" fill="#292F33"/>
<path d="M230.816 130.753L225.917 123.404L245.514 128.304L265.111 123.404L260.212 130.753H230.816Z" fill="#99AAB5"/>
<path d="M245.514 120.954L250.413 123.404L245.514 130.753L240.615 123.404L245.514 120.954Z" fill="#99AAB5"/>
<path d="M234.834 111.404C239.106 114.51 241.81 116.212 245.514 116.212C249.218 116.212 251.92 114.507 256.192 111.404V102.068H234.831V111.404H234.834Z" fill="#FFDC5D"/>
<path d="M234.814 105.032C235.715 109.997 241.487 110.468 245.504 110.468C249.519 110.468 255.313 110 256.192 105.032V97.6364H234.812V105.032H234.814Z" fill="#F9CA55"/>
<path d="M229.454 81.6036C229.454 85.1507 227.656 88.0266 225.439 88.0266C223.222 88.0266 221.424 85.1507 221.424 81.6036C221.424 78.0565 223.222 75.1782 225.439 75.1782C227.656 75.1758 229.454 78.0541 229.454 81.6036ZM269.601 81.6036C269.601 85.1507 267.806 88.0266 265.586 88.0266C263.369 88.0266 261.571 85.1507 261.571 81.6036C261.571 78.0565 263.367 75.1782 265.586 75.1782C267.806 75.1758 269.601 78.0541 269.601 81.6036Z" fill="#FFDC5D"/>
<path d="M245.514 59.7137C233.266 59.7137 225.917 64.613 225.917 71.9619C225.917 79.3108 225.917 94.0087 230.816 101.358C235.716 108.707 240.615 108.707 245.514 108.707C250.413 108.707 255.313 108.707 260.212 101.358C265.111 94.0087 265.111 79.3108 265.111 71.9619C265.111 64.613 257.762 59.7137 245.514 59.7137Z" fill="#FFDC5D"/>
<path d="M247.525 50.2041C249.629 50.3756 253.63 47.12 257.757 48.3889C255.217 50.4001 258.448 53.0628 260.393 54.4371C261.542 55.2479 267.154 55.1475 268.024 56.1175C263.788 58.0234 265.873 60.4044 266.615 62.2269C267.556 64.5419 267.994 67.0013 267.994 69.4338C267.994 78.2623 266.265 81.7971 264.535 78.2623C262.806 74.7323 261.214 70.0119 261.214 70.0119C261.214 70.0119 250.7 71.2 247.241 67.6676L248.473 72.0671C248.473 72.0671 245.054 71.2539 241.347 66.3864L240.076 70.7272C240.076 70.7272 237.697 69.5587 233.405 65.9038C233.405 65.9038 228.217 69.4362 226.488 78.2647C226.008 80.7168 223.029 78.2647 223.029 69.4362C223.029 66.4624 223.119 62.832 224.3 59.863C225.15 57.7245 228.009 55.5884 224.41 52.3059C228.433 50.5054 232.511 54.0647 235.052 54.322C236.384 52.1957 242.082 46.0765 244.419 45.5302C243.995 48.1783 245.134 50.0106 247.525 50.2041V50.2041Z" fill="#FFAC33"/>
<path d="M245.514 74.4114L257.762 71.9618L260.212 67.0625L265.111 71.9618L262.662 79.3107L265.111 84.21L260.212 89.1092L257.762 94.0085L255.313 89.1092L245.514 84.21L235.716 89.1092L233.266 94.0085L230.816 89.1092L225.917 84.21L228.367 79.3107L225.917 71.9618L230.816 67.0625L233.266 71.9618L245.514 74.4114Z" fill="#BE1931"/>
<path d="M239.39 80.5356C239.39 81.8829 238.287 82.9852 236.94 82.9852H234.49C233.143 82.9852 232.041 81.8829 232.041 80.5356C232.041 79.1883 233.143 78.0859 234.49 78.0859H236.94C238.287 78.0859 239.39 79.1883 239.39 80.5356ZM258.987 80.5356C258.987 79.1883 257.884 78.0859 256.537 78.0859H254.088C252.74 78.0859 251.638 79.1883 251.638 80.5356C251.638 81.8829 252.74 82.9852 254.088 82.9852H256.537C257.884 82.9852 258.987 81.8829 258.987 80.5356Z" fill="black"/>
<path d="M247.351 90.9466H243.677C242.665 90.9466 241.839 90.121 241.839 89.1093C241.839 88.0976 242.665 87.2721 243.677 87.2721H247.351C248.363 87.2721 249.188 88.0976 249.188 89.1093C249.188 90.121 248.363 90.9466 247.351 90.9466ZM252.456 94.4471C250.764 95.1844 247.611 96.4582 244.843 96.4582H239.39C238.716 96.4582 238.165 97.0094 238.165 97.6831C238.165 98.3567 238.716 98.9079 239.39 98.9079H249.688C249.703 98.9079 249.705 98.9005 249.72 98.9005L249.887 98.9079C251.31 98.9079 252.375 97.3671 252.954 96.1275C253.644 94.6455 253.593 93.9547 252.456 94.4471V94.4471Z" fill="#C1694F"/>
<path d="M282.259 113.606C280.275 110.423 267.561 108.706 260.212 108.706C257.763 108.706 252.863 116.21 245.515 116.21C238.166 116.21 233.266 108.706 230.817 108.706C223.468 108.706 210.754 110.423 208.77 113.606C205.103 119.485 218.569 120.954 223.468 120.954C228.367 120.954 235.16 118.505 245.515 118.505C255.869 118.505 262.662 120.954 267.561 120.954C272.461 120.954 285.926 119.485 282.259 113.606Z" fill="#BE1931"/>
<path d="M215.672 105.965C217.365 105.794 221.865 112.579 221.674 113.689C221.483 114.801 211.356 115.203 210.79 114.301C210.224 113.4 213.979 106.137 215.672 105.965V105.965ZM221.333 110.232C221.757 110.894 229.233 110.519 229.368 109.696C229.5 108.873 226.125 103.898 224.875 104.037C223.626 104.174 220.909 109.569 221.333 110.232ZM280.203 114.301C279.639 115.205 269.513 114.801 269.319 113.689C269.128 112.577 273.628 105.794 275.321 105.965C277.016 106.137 280.769 113.4 280.203 114.301ZM266.117 104.037C264.868 103.898 261.493 108.875 261.625 109.696C261.757 110.519 269.233 110.894 269.66 110.232C270.083 109.569 267.367 104.174 266.117 104.037Z" fill="#99AAB5"/>
<path d="M187.61 111.943H138.617C131.268 111.943 128.819 129.091 128.819 129.091H197.409C197.409 129.091 194.959 111.943 187.61 111.943Z" fill="#292F33"/>
<path d="M148.416 129.091L143.517 121.742L163.114 126.641L182.711 121.742L177.812 129.091H148.416Z" fill="#99AAB5"/>
<path d="M163.114 119.292L168.013 121.742L163.114 129.091L158.214 121.742L163.114 119.292Z" fill="#99AAB5"/>
<path d="M163.114 53.1519C172.912 53.1519 176.119 54.2126 176.119 54.2126C176.119 54.2126 176.016 50.7121 172.91 48.2526C172.91 48.2526 180.259 50.6998 180.259 55.5991C180.259 55.5991 190.057 55.5991 192.507 62.948C192.507 62.9505 190.06 60.5008 185.16 60.5008C185.16 60.5008 190.346 65.0057 191.152 75.3211C191.958 85.639 188.703 94.9182 188.703 94.9182C188.703 94.9182 188.95 92.8262 186.5 90.3766C186.5 90.3766 185.672 97.3066 179.208 102.199C179.208 102.199 176.695 98.2644 171.795 95.8148C166.896 93.3652 158.214 92.3461 153.315 97.2454L145.966 104.594C145.966 104.594 136.168 94.7957 136.168 80.0979C136.168 65.4001 148.416 53.1519 163.114 53.1519Z" fill="#292F33"/>
<path d="M153.974 113.116C157.565 115.725 161.235 115.517 162.969 115.517C164.704 115.517 168.344 115.725 171.935 113.116V99.2417H153.974V113.116V113.116Z" fill="#F7DECE"/>
<path d="M153.962 102.583C156.465 105.412 159.571 106.179 162.947 106.179C166.325 106.179 169.431 105.415 171.937 102.583V95.3909H153.962V102.583V102.583Z" fill="#EEC2AD"/>
<path d="M142.72 79.4073C142.72 65.1161 151.725 53.5317 162.834 53.5317C173.939 53.5317 182.944 65.1161 182.944 79.4073C182.944 93.696 173.939 104.602 162.834 104.602C151.728 104.602 142.72 93.696 142.72 79.4073" fill="#F7DECE"/>
<path d="M170.463 65.4001C170.463 65.4001 172.912 75.1986 177.812 80.0979C182.711 84.9972 180.261 94.7957 180.261 94.7957C180.261 94.7957 185.16 87.4468 185.16 77.6483C185.16 67.8497 177.812 55.6015 177.812 55.6015C177.812 55.6015 170.463 48.2526 153.315 50.7023C153.315 50.7023 158.214 50.7023 160.664 53.1519C160.664 53.1519 143.517 50.7023 136.168 62.9504C136.168 62.9504 141.067 58.0512 148.416 60.5008C148.416 60.5008 143.517 62.9504 141.067 72.749C138.617 82.5475 143.517 92.3461 143.517 92.3461C143.517 92.3461 150.866 65.4001 170.463 65.4001Z" fill="#292F33"/>
<path d="M163.114 72.7491L175.362 70.2994L177.812 65.4001L182.711 70.2994L180.262 77.6483L182.711 82.5476L177.812 87.4469L175.362 92.3462L172.913 87.4469L163.114 82.5476L153.316 87.4469L150.866 92.3462L148.416 87.4469L143.517 82.5476L145.967 77.6483L143.517 70.2994L148.416 65.4001L150.866 70.2994L163.114 72.7491Z" fill="#BE1931"/>
<path d="M157.648 80.0978C157.648 81.2369 156.715 82.1702 155.573 82.1702H153.504C152.364 82.1702 151.431 81.2369 151.431 80.0978C151.431 78.9563 152.364 78.0229 153.504 78.0229H155.573C156.715 78.0254 157.648 78.9587 157.648 80.0978ZM174.796 80.0978C174.796 78.9587 173.862 78.0254 172.721 78.0254H170.651C169.512 78.0254 168.579 78.9587 168.579 80.0978C168.579 81.2369 169.512 82.1702 170.651 82.1702H172.721C173.862 82.1702 174.796 81.2369 174.796 80.0978Z" fill="black"/>
<path d="M194.095 113.168C192.164 109.986 184.561 107.044 177.412 107.044C175.029 107.044 170.262 111.578 163.114 111.578C155.966 111.578 151.199 107.044 148.815 107.044C141.665 107.044 134.064 109.986 132.133 113.168C128.564 119.047 134.448 119.292 139.213 119.292C143.98 119.292 153.039 116.842 163.114 116.842C173.189 116.842 182.248 119.292 187.015 119.292C191.78 119.292 197.664 119.047 194.095 113.168Z" fill="#BE1931"/>
<path d="M165.017 91.1213H160.878C160.307 91.1213 159.841 90.6558 159.841 90.0851V89.7103C159.841 89.1395 160.304 88.6716 160.878 88.6716H165.017C165.588 88.6716 166.056 89.1371 166.056 89.7103V90.0851C166.056 90.6558 165.591 91.1213 165.017 91.1213ZM170.056 93.8698C168.361 94.6071 165.211 95.8809 162.44 95.8809H156.99C156.316 95.8809 155.765 96.4321 155.765 97.1057C155.765 97.7794 156.316 98.3306 156.99 98.3306H167.288C167.303 98.3306 167.305 98.3232 167.32 98.3232L167.487 98.3306C168.91 98.3306 169.975 96.7897 170.554 95.5527C171.244 94.0682 171.193 93.3749 170.056 93.8698V93.8698Z" fill="#C1694F"/>
<path d="M144.46 105.152C145.347 105.01 147.811 108.638 147.753 109.351C147.694 110.064 142.373 110.522 142.042 109.959C141.709 109.395 143.574 105.295 144.46 105.152ZM133.344 113.244C133.868 114.057 141.702 113.053 141.746 111.994C141.79 110.939 137.633 105.944 136.332 106.208C135.034 106.475 132.822 112.43 133.344 113.244V113.244ZM184.164 109.959C183.833 110.522 178.513 110.064 178.454 109.351C178.395 108.638 180.859 105.01 181.746 105.152C182.631 105.295 184.497 109.395 184.164 109.959ZM189.872 106.211C188.571 105.946 184.414 110.939 184.458 111.997C184.502 113.053 192.338 114.059 192.86 113.246C193.384 112.43 191.17 106.475 189.872 106.211Z" fill="#99AAB5"/>
<path d="M263.462 255.931V241.906C263.462 228.626 248.696 219.866 235.412 219.866H187.325C174.049 219.866 159.274 228.626 159.274 241.906V255.931H263.462Z" fill="#F2760F"/>
<path d="M211.148 131.983C227.598 131.983 255.015 140.21 255.015 175.851C255.015 211.499 255.015 219.722 246.788 219.722C238.562 219.722 227.594 211.495 211.144 211.495C194.694 211.495 183.955 219.722 175.5 219.722C166.335 219.722 167.273 186.818 167.273 175.851C167.277 140.21 194.698 131.983 211.148 131.983" fill="#FFAC33"/>
<path d="M195.34 219.866H227.398C227.398 219.866 223.318 239.902 211.369 239.902C199.419 239.902 195.34 219.866 195.34 219.866Z" fill="#292F33"/>
<path d="M191.332 219.866H231.404V235.895H191.332V219.866Z" fill="#292F33"/>
<path d="M196.654 219.938C202.528 224.206 208.531 223.866 211.368 223.866C214.205 223.866 220.16 224.206 226.035 219.938V207.103H196.654V219.938Z" fill="#FFDC5D"/>
<path d="M196.63 212.569C200.726 217.197 205.807 218.452 211.329 218.452C216.855 218.452 221.936 217.201 226.035 212.569V200.804H196.63V212.569V212.569Z" fill="#F9CA55"/>
<path d="M178.244 174.657C178.244 151.279 192.974 132.328 211.147 132.328C229.312 132.328 244.042 151.279 244.042 174.657C244.042 198.031 229.312 215.871 211.147 215.871C192.974 215.871 178.244 198.031 178.244 174.657Z" fill="#FFDC5D"/>
<path d="M211.148 206.013C204.712 206.013 201.342 202.832 200.982 202.467C199.908 201.397 199.908 199.662 200.982 198.592C202.048 197.53 203.755 197.522 204.833 198.564C204.973 198.692 207.041 200.532 211.148 200.532C215.308 200.532 217.379 198.636 217.463 198.56C218.557 197.534 220.281 197.566 221.322 198.64C222.364 199.718 222.364 201.409 221.306 202.467C220.95 202.832 217.584 206.013 211.148 206.013" fill="#DF1F32"/>
<path d="M170.193 187.809C170.109 183.801 170.017 186.911 170.017 185.945C170.017 172.233 178.244 187.925 178.244 178.159C178.244 168.386 183.726 167.408 189.208 161.926C191.953 159.181 197.435 153.807 197.435 153.807C197.435 153.807 211.143 162.09 222.111 162.09C233.075 162.09 244.047 167.6 244.047 178.568C244.047 189.532 252.274 172.22 252.274 185.929C252.274 186.907 252.181 183.801 252.113 187.809H254.995C255.019 179.794 255.019 180.099 255.019 174.977C255.019 139.333 227.601 126.061 211.147 126.061C194.702 126.061 167.28 139.113 167.28 174.757C167.28 177.935 167.2 179.794 167.312 187.809H170.193V187.809Z" fill="#FFAC33"/>
<path d="M197.776 183.348C195.912 183.348 194.385 181.822 194.385 179.954V176.568C194.385 174.705 195.912 173.178 197.776 173.178C199.643 173.178 201.17 174.705 201.17 176.568V179.954C201.17 181.822 199.643 183.348 197.776 183.348ZM224.885 183.348C223.021 183.348 221.494 181.822 221.494 179.954V176.568C221.494 174.705 223.021 173.178 224.885 173.178C226.748 173.178 228.275 174.705 228.275 176.568V179.954C228.275 181.822 226.748 183.348 224.885 183.348Z" fill="#662113"/>
<path d="M214.718 193.819H207.946C207.012 193.819 206.251 193.058 206.251 192.124V191.511C206.251 190.578 207.008 189.812 207.946 189.812H214.718C215.652 189.812 216.417 190.574 216.417 191.511V192.124C216.417 193.058 215.652 193.819 214.718 193.819Z" fill="#C1694F"/>
<path d="M185.097 175.53C185.097 181.333 182.156 186.037 178.529 186.037C174.902 186.037 171.961 181.333 171.961 175.53C171.961 169.728 174.902 165.019 178.529 165.019C182.156 165.015 185.097 169.724 185.097 175.53ZM250.771 175.53C250.771 181.333 247.834 186.037 244.204 186.037C240.577 186.037 237.636 181.333 237.636 175.53C237.636 169.728 240.573 165.019 244.204 165.019C247.834 165.015 250.771 169.724 250.771 175.53Z" fill="#FFDC5D"/>
<path d="M215.376 251.676L211.368 255.927L207.361 251.92L203.354 235.895H217.379L215.376 251.676Z" fill="#292F33"/>
<path d="M235.412 219.866H247.434V255.931H235.412V219.866ZM175.303 219.866H187.325V255.931H175.303V219.866Z" fill="#FFF75F"/>
<path d="M181.315 219.866C181.315 224.146 187.326 234.541 195.34 243.1C201.675 249.86 211.369 255.931 211.369 255.931C211.369 242.824 207.362 238.82 203.354 234.541C199.347 230.269 191.333 228.426 191.333 219.866C191.333 215.594 181.315 219.866 181.315 219.866ZM241.423 219.866C241.423 224.146 235.412 234.541 227.398 243.1C221.062 249.86 211.369 255.931 211.369 255.931C211.369 242.824 215.376 238.82 219.383 234.541C223.391 230.269 231.405 228.426 231.405 219.866C231.405 215.594 241.423 219.866 241.423 219.866Z" fill="#55ACEE"/>
<path d="M259.456 155.75C247.434 147.736 255.417 139.044 247.434 127.7C239.929 117.029 227.398 111.671 211.361 111.671C191.333 111.671 182.814 117.029 175.304 127.7C167.322 139.044 175.304 147.736 163.283 155.75C155.825 160.719 187.326 165.019 211.369 165.019C235.413 165.019 266.914 160.719 259.456 155.75Z" fill="#FFF75F"/>
<path d="M203.354 157.754V112.024C201.951 112.152 200.617 112.32 199.347 112.521V153.719C190.971 153.519 178.813 152.132 168.679 150.301C167.982 151.491 167.036 152.665 165.754 153.815C177.415 156.083 192.186 157.754 201.35 157.754H203.354V157.754ZM254.867 151.531C243.434 152.749 231.469 153.603 223.39 153.731V112.841C222.096 112.577 220.745 112.392 219.383 112.22V157.754H221.386C229.473 157.754 244.612 156.708 258.61 155.121C256.999 153.939 255.772 152.745 254.867 151.531Z" fill="#FFAC33"/>
<path d="M60.8171 212.155H124.933V252.227H60.8171V212.155Z" fill="#AE7E57"/>
<path d="M124.932 212.155V252.227H148.976V236.198C148.976 222.918 138.216 212.155 124.932 212.155ZM60.8166 212.155C47.5406 212.155 36.7732 222.918 36.7732 236.198V252.227H60.8166V212.155Z" fill="#292F33"/>
<path d="M93.6077 252.227H129.677L150.046 224.477C150.046 224.477 136.689 209.534 110.891 204.641C110.891 209.867 114.85 218.013 114.85 218.013L93.6077 246.088V252.227V252.227Z" fill="#8CC6EB"/>
<path d="M93.6076 252.227H57.5384L37.1697 224.477C37.1697 224.477 50.5258 209.534 76.3244 204.641C76.3244 209.867 72.3652 218.013 72.3652 218.013L93.6076 246.088V252.227Z" fill="#8CC6EB"/>
<path d="M140.697 216.539C140.697 216.539 130.867 209.867 122.039 206.733C109.785 202.381 112.522 214.503 112.522 214.503C112.522 214.503 97.2146 240.266 93.6081 246.092C93.6081 246.088 121.795 223.912 140.697 216.539ZM46.519 216.539C46.519 216.539 56.3488 209.867 65.1767 206.733C77.4308 202.381 74.6939 214.503 74.6939 214.503C74.6939 214.503 90.0015 240.266 93.6081 246.092C93.6081 246.088 65.4172 223.912 46.519 216.539V216.539Z" fill="#1D6398"/>
<path d="M93.6117 246.469C93.6117 246.469 122.997 216.499 142.199 212.992C125.838 199.3 101.626 200.802 101.626 200.802C101.626 205.707 109.593 206.284 109.593 212.351C109.593 222.309 97.2102 239.212 93.6077 244.678L93.6117 246.469Z" fill="#4191CE"/>
<path d="M93.6036 246.469C93.6036 246.469 64.2185 216.499 45.0159 212.992C61.3774 199.3 85.5891 200.802 85.5891 200.802C85.5891 205.707 77.6227 206.284 77.6227 212.351C77.6227 222.309 90.0051 239.212 93.6076 244.678L93.6036 246.469Z" fill="#4191CE"/>
<path d="M77.5747 212.155C77.5747 212.155 79.5783 226.18 93.6036 226.18C107.629 226.18 109.633 212.155 109.633 212.155V196.126H77.5747V212.155Z" fill="#AE7E57"/>
<path d="M77.5747 204.141C82.4475 209.646 87.0117 211.029 93.5876 211.029C100.155 211.029 104.756 209.642 109.633 204.141V197.629H77.5747V204.141V204.141Z" fill="#9A6A4A"/>
<path d="M126.764 158.366C127.293 155.861 127.621 152.323 127.621 147.811C127.621 134.939 114.542 119.491 93.6038 119.491C70.0533 119.491 59.5864 134.939 59.5864 147.811C59.5864 149.974 59.7467 151.782 59.9631 153.429C56.7212 154.07 54.2007 158.45 54.2007 163.811C54.2007 169.141 56.6892 173.497 59.903 174.178C60.2115 176.542 60.7004 178.839 61.3376 181.047C61.5139 181.656 61.7223 182.241 61.9226 182.838C62.8363 185.575 63.9663 188.175 65.3328 190.58C66.1222 191.966 66.9958 193.273 67.9174 194.535C74.1647 203.058 83.3373 208.468 93.6078 208.468C112.47 208.468 127.761 190.311 127.761 167.911C127.753 164.617 127.389 161.431 126.764 158.366V158.366Z" fill="#AE7E57"/>
<path d="M84.2672 163.72L94.6099 148.933L77.1304 141.82L61.3298 181.047C61.5062 181.656 61.7145 182.241 61.9149 182.838L69.7811 179.612L65.321 190.584C66.1105 191.971 66.984 193.277 67.9057 194.539L95.4715 161.263L84.2672 163.72V163.72Z" fill="#DD2F45"/>
<path d="M93.6044 195.333C82.5685 195.333 79.1784 192.508 78.6134 191.935C77.5875 190.909 77.5875 189.246 78.6134 188.22C79.6072 187.226 81.2021 187.198 82.2279 188.128C82.4363 188.276 85.1171 190.079 93.6044 190.079C102.42 190.079 104.969 188.136 104.993 188.116C106.019 187.094 107.626 187.142 108.652 188.176C109.677 189.202 109.621 190.913 108.596 191.935C108.026 192.508 104.64 195.333 93.6044 195.333ZM96.6099 179.095H90.599C88.944 179.095 87.5936 177.745 87.5936 176.09C87.5936 174.435 88.944 173.084 90.599 173.084H96.6099C98.2649 173.084 99.6153 174.435 99.6153 176.09C99.6153 177.745 98.2649 179.095 96.6099 179.095Z" fill="#915B34"/>
<path d="M109.633 168.075C107.429 168.075 105.625 166.272 105.625 164.068V160.061C105.625 157.857 107.429 156.054 109.633 156.054C111.837 156.054 113.64 157.857 113.64 160.061V164.068C113.64 166.272 111.833 168.075 109.633 168.075ZM77.5749 168.075C75.3709 168.075 73.5676 166.272 73.5676 164.068V160.061C73.5676 157.857 75.3709 156.054 77.5749 156.054C79.7788 156.054 81.5821 157.857 81.5821 160.061V164.068C81.5821 166.272 79.7748 168.075 77.5749 168.075Z" fill="#662213"/>
<path d="M132.514 140.109C133.956 140.373 135.623 140.566 137.078 140.405C134.666 138.682 131.384 135.805 129.196 133.83C119.923 119.319 103.778 113.898 92.6499 113.898C83.6496 113.898 69.7766 118.438 62.0827 127.186C54.3888 135.933 61.8182 148.039 69.3718 151.097C68.6706 147.394 67.9773 142.429 68.5944 138.394C72.6898 142.557 79.3418 146.721 89.9089 148.708C91.4757 149.197 97.4345 151.301 102.183 156.262C102.035 153.213 100.929 151.049 100.063 149.786C101.245 149.834 102.363 149.923 103.618 149.923C112.774 149.923 118.909 153.87 121.434 161.496C121.298 163.547 120.672 168.592 117.803 173.349C120.857 172.355 122.552 170.524 123.309 169.502C125.289 175.228 130.19 180.009 130.19 180.009C132.442 164.228 138.581 163.439 135.102 148.095C134.453 145.214 133.56 142.573 132.514 140.109V140.109Z" fill="#88C9F9"/>
<path d="M47.8453 188.112C41.0531 188.112 35.5471 193.618 35.5471 200.414C35.5471 202.329 36.024 204.121 36.8054 205.736L35.8757 204.806C34.4852 203.415 32.3093 203.495 31.019 204.986L9.02726 229.919C6.84732 232.436 5.82948 236.503 9.07134 239.745C12.3132 242.987 16.3124 242.045 18.9051 239.797L22.4795 236.531V252.227H29.6284V230.003L43.4254 217.397C44.916 216.102 45.0002 213.93 43.6057 212.544L42.5197 211.458C44.1386 212.243 45.9299 212.72 47.8493 212.72C54.6456 212.72 60.1515 207.214 60.1515 200.418C60.1475 193.618 54.6376 188.112 47.8453 188.112Z" fill="#424143"/>
<path d="M54.4496 212.295C53.8485 212.896 52.8748 212.896 52.2737 212.295L35.9642 195.986C35.3632 195.384 35.3632 194.415 35.9642 193.814L38.1402 191.638C38.7413 191.037 39.715 191.037 40.3161 191.638L56.6255 207.947C57.2266 208.548 57.2266 209.522 56.6255 210.123L54.4496 212.295V212.295Z" fill="#59595C"/>
<path d="M383.11 212.521H335.023C321.747 212.521 306.472 221.281 306.472 234.561V252.593H410.66V234.561C410.66 221.281 396.394 212.521 383.11 212.521Z" fill="#292F33"/>
<path d="M358.566 212.188L333.769 214.597L358.566 246.835L379.52 214.597L358.566 212.188Z" fill="#F2D1A1"/>
<path d="M358.562 252.593H394.631C410.66 238.568 415 226.546 415 226.546C415 226.546 401.644 212.521 375.845 207.929C375.845 212.834 379.805 220.479 379.805 220.479L358.562 246.831V252.593V252.593Z" fill="#A88DC1"/>
<path d="M403.648 218.155C403.648 218.155 395.822 212.834 386.994 209.892C374.739 205.809 377.476 217.185 377.476 217.185C377.476 217.185 362.169 241.365 358.562 246.835C358.562 246.835 384.746 225.076 403.648 218.155V218.155Z" fill="#7355A2"/>
<path d="M358.566 246.835C358.566 246.835 387.951 216.865 407.154 213.358C390.792 199.666 366.581 201.168 366.581 201.168C366.581 206.073 372.543 208.654 372.543 214.721C372.543 224.679 362.165 239.578 358.562 245.044L358.566 246.835Z" fill="#522E8D"/>
<path d="M358.562 252.593H322.493C306.464 238.568 302.124 226.546 302.124 226.546C302.124 226.546 315.48 212.521 341.279 207.929C341.279 212.834 337.32 220.479 337.32 220.479L358.562 246.831V252.593V252.593Z" fill="#A88DC1"/>
<path d="M313.477 218.155C313.477 218.155 321.303 212.834 330.131 209.892C342.385 205.809 339.648 217.185 339.648 217.185C339.648 217.185 354.955 241.365 358.562 246.835C358.562 246.835 332.379 225.076 313.477 218.155V218.155Z" fill="#7355A2"/>
<path d="M358.558 246.835C358.558 246.835 329.173 216.865 309.97 213.358C326.332 199.666 350.544 201.168 350.544 201.168C350.544 206.073 344.581 208.654 344.581 214.721C344.581 224.679 354.96 239.578 358.562 245.044L358.558 246.835Z" fill="#522E8D"/>
<path d="M344.541 214.596C350.415 218.864 355.729 218.524 358.566 218.524C361.403 218.524 367.358 218.864 372.543 214.721L372.591 198.131H344.541V214.596Z" fill="#F2D1A1"/>
<path d="M344.541 205.128C348.448 209.544 353.296 210.738 358.562 210.738C363.831 210.738 368.684 209.544 372.591 205.128V193.903H344.541V205.128Z" fill="#E0BF94"/>
<path d="M395.139 195.486C394.438 196.965 392.999 198.448 392.19 199.213C400.08 200.924 405.65 203.004 405.65 203.004C405.65 203.004 403.715 200.351 402.869 195.49C402.573 193.799 401.302 192.18 401.034 189.98C400.717 187.372 400.377 184.398 400.2 181.132C399.992 177.321 399.716 173.883 399.868 169.279C401.026 133.655 374.799 124.278 358.353 124.278C341.907 124.278 313.32 132.521 314.478 168.145C314.626 172.749 314.554 176.985 314.349 180.796C314.173 184.062 313.897 187.019 313.576 189.632C313.308 191.832 313.011 193.787 312.714 195.478C311.865 200.339 311.043 203.008 311.043 203.008C311.043 203.008 338.717 192.621 358.349 199.169C367.301 196.184 377.908 196.729 386.82 198.199C388.211 197.806 392.579 196.564 395.139 195.486Z" fill="#F4ABBA"/>
<path d="M358.345 124.618C340.172 124.618 325.442 143.568 325.442 166.947C325.442 172.389 326.267 177.51 327.722 182.194C327.918 182.823 328.119 183.444 328.335 184.054C329.285 186.71 330.455 189.199 331.805 191.503C332.631 192.914 333.524 194.252 334.486 195.51C340.481 203.36 348.944 208.161 358.345 208.161C376.51 208.161 391.241 190.321 391.241 166.947C391.241 143.568 376.51 124.618 358.345 124.618V124.618Z" fill="#F2D1A1"/>
<path d="M350.615 164.967L360.958 150.18L343.478 143.068L327.718 182.194C327.914 182.823 328.115 183.444 328.331 184.053L336.129 180.856L331.801 191.503C332.627 192.913 333.52 194.252 334.482 195.51L361.82 162.507L350.615 164.967V164.967Z" fill="#DD2E44"/>
<path d="M358.346 198.303C351.91 198.303 348.54 195.121 348.179 194.757C347.105 193.687 347.105 191.952 348.179 190.882C349.245 189.82 350.952 189.812 352.03 190.854C352.17 190.982 354.238 192.821 358.346 192.821C362.505 192.821 364.577 190.926 364.661 190.85C365.755 189.824 367.478 189.856 368.52 190.926C369.562 192.004 369.562 193.695 368.504 194.753C368.147 195.121 364.781 198.303 358.346 198.303" fill="#DE2032"/>
<path d="M361.916 186.109H355.143C354.21 186.109 353.448 185.352 353.448 184.414V183.801C353.448 182.867 354.206 182.102 355.143 182.102H361.916C362.849 182.102 363.615 182.863 363.615 183.801V184.414C363.615 185.352 362.849 186.109 361.916 186.109Z" fill="#C1694F"/>
<path d="M372.082 175.638C370.219 175.638 368.692 174.111 368.692 172.244V168.858C368.692 166.995 370.219 165.468 372.082 165.468C373.946 165.468 375.472 166.995 375.472 168.858V172.244C375.472 174.111 373.946 175.638 372.082 175.638ZM344.973 175.638C343.11 175.638 341.583 174.111 341.583 172.244V168.858C341.583 166.995 343.11 165.468 344.973 165.468C346.841 165.468 348.368 166.995 348.368 168.858V172.244C348.368 174.111 346.841 175.638 344.973 175.638Z" fill="#662213"/>
<path d="M402.368 176.544C402.38 172.084 402.38 171.459 402.38 167.267C402.38 158.303 400.641 150.757 397.784 144.482C399.315 144.787 401.17 145.039 402.769 144.859C399.647 142.631 395.107 138.503 393.336 136.868C383.879 123.765 368.984 118.351 358.509 118.351C343.466 118.351 319.306 129.327 315.283 158.467L315.223 158.023C315.223 158.023 311.857 166.205 309.368 170.501C311.272 169.88 313.271 168.518 314.642 167.464C314.634 170.397 314.57 172.449 314.678 180.098H317.563C317.479 176.091 317.387 179.201 317.387 178.235C317.387 164.522 325.614 180.215 325.614 170.449C325.614 160.679 331.096 159.698 336.578 154.216C337.904 152.889 339.867 150.95 341.546 149.299C347.141 151.831 354.642 153.743 364.524 154.22C365.478 154.496 371.925 156.52 377.023 161.845C376.854 158.411 375.484 156.107 374.602 154.949C382.404 156.548 387.213 161.862 388.251 170.862L388.295 171.15C388.239 172.649 387.814 178.295 384.632 183.573C387.381 182.679 389.04 181.092 389.898 180.042C394.726 199.177 405.654 203.012 405.654 203.012C403.43 193.338 402.649 183.657 402.368 176.544V176.544Z" fill="#F4ABBA"/>
<path d="M332.295 167.82C332.295 173.623 329.354 178.327 325.727 178.327C322.101 178.327 319.159 173.623 319.159 167.82C319.159 162.018 322.101 157.309 325.727 157.309C329.354 157.309 332.295 162.018 332.295 167.82" fill="#F2D1A1"/>
<path d="M313.537 189.648C306.744 189.648 301.239 195.154 301.239 201.95C301.239 203.865 301.715 205.657 302.497 207.272L301.567 206.342C300.177 204.951 298.001 205.031 296.71 206.522L274.719 231.455C272.539 233.972 271.521 238.039 274.763 241.281C278.005 244.523 282.004 243.581 284.596 241.333L288.171 238.067V252.593H295.32V231.535L309.117 218.929C310.607 217.634 310.692 215.462 309.297 214.076L308.211 212.99C309.83 213.775 311.621 214.252 313.541 214.252C320.337 214.252 325.843 208.746 325.843 201.95C325.839 195.154 320.329 189.648 313.537 189.648Z" fill="#424143"/>
<path d="M320.141 213.831C319.539 214.432 318.566 214.432 317.965 213.831L301.655 197.522C301.054 196.921 301.054 195.951 301.655 195.35L303.831 193.174C304.432 192.573 305.406 192.573 306.007 193.174L322.316 209.483C322.918 210.084 322.918 211.058 322.316 211.659L320.141 213.831Z" fill="#59595C"/>
<path d="M24.5 1.70069e-06C38.031 1.10923e-06 49 10.969 49 24.5C49 38.031 38.031 49 24.5 49C10.969 49 -4.79471e-07 38.031 -1.07093e-06 24.5C-1.66239e-06 10.969 10.969 2.29214e-06 24.5 1.70069e-06Z" fill="#FFE600"/>
<path d="M45.999 47.2957L38.7739 44.144L43.1366 40.0039L45.999 47.2957Z" fill="#FFE600"/>
<path d="M16.8798 39.6453L19.1014 32.8027H29.9024L32.124 39.6453H38.9057L28.587 9.63739H20.4315L10.0981 39.6453H16.8798ZM20.7092 27.8502L24.3923 16.4947H24.6262L28.3093 27.8502H20.7092Z" fill="white"/>
<path d="M422 24.5C422 38.031 411.031 49 397.5 49C383.969 49 373 38.031 373 24.5C373 10.969 383.969 0 397.5 0C411.031 0 422 10.969 422 24.5Z" fill="#EFEFEF"/>
<path d="M374.704 45.9991L377.856 38.7739L381.996 43.1366L374.704 45.9991Z" fill="#EFEFEF"/>
<path d="M410.639 23.3592C410.639 14.1357 404.94 8.87695 397.501 8.87695C390.021 8.87695 384.364 14.1357 384.364 23.3592C384.364 32.5414 390.021 37.8415 397.501 37.8415C399.255 37.8415 400.913 37.5524 402.42 36.9742L404.68 39.7688H410.215L406.201 34.7028C408.941 32.2386 410.639 28.384 410.639 23.3592ZM395.447 27.6544L399.036 32.4175C398.556 32.5139 398.036 32.569 397.501 32.569C393.186 32.569 390.378 29.3339 390.378 23.3592C390.378 17.3846 393.186 14.1495 397.501 14.1495C401.803 14.1495 404.625 17.3846 404.625 23.3592C404.625 26.4292 403.872 28.7832 402.57 30.3388L400.488 27.6544H395.447Z" fill="white"/>
</svg>
