<svg width="393" height="277" viewBox="0 0 393 277" fill="none" xmlns="http://www.w3.org/2000/svg">
<path d="M156.608 190.614V183.469C156.608 171.63 147.012 162.034 135.173 162.034H78.0141C66.1787 162.034 56.5796 171.63 56.5796 183.469V190.614H156.608Z" fill="#3B88C3"/>
<path d="M106.595 190.61L86.5894 158.462H126.601L106.595 190.61Z" fill="#292F33"/>
<path d="M91.0182 169.314C97.2485 173.844 101.192 176.327 106.594 176.327C111.996 176.327 115.936 173.841 122.166 169.314V148.776H91.0146V169.314H91.0182Z" fill="#F7DECE"/>
<path d="M81.5872 162.034C81.5872 165.607 85.1596 172.752 92.3044 179.896C97.9524 185.544 106.594 190.614 106.594 190.614C106.594 179.671 103.022 176.324 99.4493 172.752C95.8769 169.179 88.732 165.607 88.732 158.462C88.732 154.889 81.5872 162.034 81.5872 162.034ZM131.601 162.034C131.601 165.607 128.029 172.752 120.884 179.896C115.236 185.544 106.594 190.614 106.594 190.614C106.594 179.671 110.167 176.324 113.739 172.752C117.311 169.179 124.456 165.607 124.456 158.462C124.456 154.889 131.601 162.034 131.601 162.034Z" fill="#55ACEE"/>
<path d="M90.9899 154.793C95.334 159.702 100.721 161.031 106.58 161.031C112.435 161.031 117.819 159.698 122.166 154.793V142.322H90.9863V154.793H90.9899Z" fill="#EEC2AD"/>
<path d="M83.1728 118.936C83.1728 124.109 80.5507 128.303 77.3176 128.303C74.0846 128.303 71.4624 124.109 71.4624 118.936C71.4624 113.763 74.0846 109.566 77.3176 109.566C80.5507 109.562 83.1728 113.76 83.1728 118.936ZM141.721 118.936C141.721 124.109 139.103 128.303 135.866 128.303C132.633 128.303 130.011 124.109 130.011 118.936C130.011 113.763 132.629 109.566 135.866 109.566C139.103 109.562 141.721 113.76 141.721 118.936Z" fill="#F7DECE"/>
<path d="M76.1462 122.591C76.1462 102.625 89.7786 86.4346 106.594 86.4346C123.409 86.4346 137.038 102.625 137.038 122.591C137.038 142.557 123.409 158.748 106.594 158.748C89.7822 158.748 76.1462 142.561 76.1462 122.591" fill="#F7DECE"/>
<path d="M106.596 147.037C96.7571 147.037 93.7348 144.518 93.2311 144.007C92.3165 143.093 92.3165 141.61 93.2311 140.696C94.117 139.81 95.5389 139.785 96.4534 140.614C96.6392 140.746 99.0291 142.353 106.596 142.353C114.455 142.353 116.727 140.621 116.748 140.603C117.663 139.692 119.095 139.735 120.01 140.656C120.925 141.571 120.874 143.096 119.96 144.007C119.456 144.518 116.434 147.037 106.596 147.037ZM109.275 132.561H103.916C102.441 132.561 101.237 131.357 101.237 129.882C101.237 128.407 102.441 127.203 103.916 127.203H109.275C110.75 127.203 111.954 128.407 111.954 129.882C111.954 131.357 110.75 132.561 109.275 132.561Z" fill="#C1694F"/>
<path d="M106.594 74.4382C126.771 74.4382 139.382 89.3281 139.382 101.735C139.382 114.142 136.86 119.108 134.338 114.142L129.293 104.218C129.293 104.218 114.164 104.218 109.12 99.2523C109.12 99.2523 116.686 114.142 101.554 99.2523C101.554 99.2523 104.076 109.18 88.9429 96.773C88.9429 96.773 81.3765 101.735 78.8543 114.142C78.1541 117.586 73.8101 114.142 73.8101 101.735C73.8065 89.3281 83.895 74.4382 106.594 74.4382Z" fill="#292F33"/>
<path d="M89.6244 132.562C97.0231 132.562 103.021 126.564 103.021 119.165C103.021 111.766 97.0231 105.769 89.6244 105.769C82.2256 105.769 76.2278 111.766 76.2278 119.165C76.2278 126.564 82.2256 132.562 89.6244 132.562Z" fill="#EEC2AD"/>
<path d="M123.562 132.562C130.961 132.562 136.958 126.564 136.958 119.165C136.958 111.766 130.961 105.769 123.562 105.769C116.163 105.769 110.165 111.766 110.165 119.165C110.165 126.564 116.163 132.562 123.562 132.562Z" fill="#EEC2AD"/>
<path d="M97.6631 115.593H115.525V124.524H97.6631V115.593Z" fill="#EEC2AD"/>
<path d="M90.5169 129.882C97.4224 129.882 103.02 124.284 103.02 117.379C103.02 110.473 97.4224 104.875 90.5169 104.875C83.6114 104.875 78.0134 110.473 78.0134 117.379C78.0134 124.284 83.6114 129.882 90.5169 129.882Z" fill="#E1E8ED"/>
<path d="M122.669 129.882C129.574 129.882 135.172 124.284 135.172 117.379C135.172 110.473 129.574 104.875 122.669 104.875C115.763 104.875 110.165 110.473 110.165 117.379C110.165 124.284 115.763 129.882 122.669 129.882Z" fill="#E1E8ED"/>
<path d="M97.6631 112.02H115.525V120.951H97.6631V112.02Z" fill="#E1E8ED"/>
<path d="M90.5182 126.31C95.4507 126.31 99.4493 122.311 99.4493 117.379C99.4493 112.446 95.4507 108.448 90.5182 108.448C85.5857 108.448 81.5872 112.446 81.5872 117.379C81.5872 122.311 85.5857 126.31 90.5182 126.31Z" fill="#292F33"/>
<path d="M122.67 126.31C127.602 126.31 131.601 122.311 131.601 117.379C131.601 112.446 127.602 108.448 122.67 108.448C117.737 108.448 113.739 112.446 113.739 117.379C113.739 122.311 117.737 126.31 122.67 126.31Z" fill="#292F33"/>
<path d="M45.8625 147.745L40.5039 151.317C40.5039 151.317 45.8625 160.248 45.8625 172.752V190.614H53.0074V172.752C53.0074 156.676 45.8625 147.745 45.8625 147.745Z" fill="#66757F"/>
<path d="M49.7171 147.055C50.4602 148.409 49.9708 150.106 48.6204 150.856L41.0111 155.064C39.6572 155.807 37.9567 155.314 37.2101 153.96L35.5989 151.045C34.8558 149.691 35.3417 147.991 36.6956 147.244L44.3049 143.036C45.6553 142.289 47.3593 142.782 48.106 144.14L49.7171 147.055V147.055Z" fill="#99AAB5"/>
<path d="M40.4683 142.686C55.4297 134.794 28.1863 120.283 28.1863 120.283C28.1863 120.283 25.507 150.577 40.4683 142.686Z" fill="#F4900C"/>
<path d="M38.576 138.331C46.4425 134.18 32.117 126.546 32.117 126.546C32.117 126.546 30.7095 142.475 38.576 138.331Z" fill="#FFDC5D"/>
<path d="M149.463 101.303C138.746 94.158 145.862 86.4094 138.746 76.2959C132.051 66.7825 120.884 62.0062 106.583 62.0062C88.7317 62.0062 81.1367 66.7825 74.442 76.2959C67.3257 86.4094 74.442 94.158 63.7247 101.303C57.0764 105.733 85.1593 109.566 106.594 109.566C128.028 109.566 156.111 105.733 149.463 101.303Z" fill="#3B88C3"/>
<path d="M99.449 103.089V62.3206C98.1987 62.4349 97.0091 62.585 95.8766 62.7636V99.4917C88.4102 99.3131 77.5715 98.077 68.5368 96.4444C67.9152 97.5054 67.0721 98.5522 65.929 99.5774C76.3283 101.596 89.4927 103.086 97.6628 103.086H99.449V103.089ZM115.525 103.089C124.174 103.089 137.092 101.685 147.345 99.6632C146.184 98.6343 145.333 97.5912 144.697 96.5302C136.013 98.1306 125.51 99.3417 117.308 99.5024V63.0494C116.154 62.8136 114.95 62.6493 113.735 62.4957V103.089H115.525V103.089Z" fill="#226699"/>
<path d="M271.216 126.31V119.348C271.216 107.813 261.866 98.4633 250.331 98.4633H194.637C183.105 98.4633 173.752 107.813 173.752 119.348V126.31H271.216Z" fill="#77B255"/>
<path d="M222.484 119.348C225.154 119.348 239.888 108.906 239.888 98.4633H205.08C205.08 108.906 219.814 119.348 222.484 119.348Z" fill="#3E721D"/>
<path d="M207.307 98.5953C207.307 108.502 237.66 108.905 237.66 98.5953V85.5457H207.307V98.5953Z" fill="#FFDC5D"/>
<path d="M207.279 91.4078C211.511 96.1905 216.76 97.4854 222.469 97.4854C228.174 97.4854 233.42 96.187 237.656 91.4078V79.2563H207.275V91.4078H207.279Z" fill="#F9CA55"/>
<path d="M199.664 56.4703C199.664 61.5105 197.109 65.597 193.958 65.597C190.808 65.597 188.253 61.5105 188.253 56.4703C188.253 51.4301 190.808 47.3401 193.958 47.3401C197.109 47.3366 199.664 51.4266 199.664 56.4703ZM256.711 56.4703C256.711 61.5105 254.159 65.597 251.006 65.597C247.856 65.597 245.301 61.5105 245.301 56.4703C245.301 51.4301 247.852 47.3401 251.006 47.3401C254.159 47.3366 256.711 51.4266 256.711 56.4703Z" fill="#FFDC5D"/>
<path d="M192.817 60.0315C192.817 40.5772 206.099 24.8021 222.484 24.8021C238.868 24.8021 252.147 40.5772 252.147 60.0315C252.147 79.4858 238.868 95.2609 222.484 95.2609C206.103 95.2609 192.817 79.4893 192.817 60.0315" fill="#FFDC5D"/>
<path d="M222.483 83.8509C212.897 83.8509 209.952 81.3969 209.461 80.8991C208.57 80.008 208.57 78.5635 209.461 77.6724C210.324 76.8092 211.71 76.7848 212.601 77.5923C212.782 77.7211 215.11 79.2875 222.483 79.2875C230.141 79.2875 232.354 77.5993 232.375 77.5819C233.266 76.6943 234.662 76.7361 235.553 77.6341C236.444 78.5252 236.396 80.0115 235.505 80.8991C235.014 81.3969 232.069 83.8509 222.483 83.8509Z" fill="#C1694F"/>
<path d="M222.484 13.1132C242.144 13.1132 254.431 27.6213 254.431 39.7102C254.431 51.7991 251.974 56.6374 249.516 51.7991L244.601 42.1294C244.601 42.1294 229.86 42.1293 224.945 37.291C224.945 37.291 232.317 51.7991 217.573 37.291C217.573 37.291 220.03 46.9642 205.285 34.8753C205.285 34.8753 197.913 39.7102 195.455 51.7991C194.773 55.1546 190.541 51.7991 190.541 39.7102C190.537 27.6213 200.367 13.1132 222.484 13.1132Z" fill="#FFAC33"/>
<path d="M208.56 60.174C206.646 60.174 205.08 58.6077 205.08 56.6932V53.2124C205.08 51.2979 206.646 49.7316 208.56 49.7316C210.475 49.7316 212.041 51.2979 212.041 53.2124V56.6932C212.041 58.6077 210.475 60.174 208.56 60.174ZM236.407 60.174C234.493 60.174 232.926 58.6077 232.926 56.6932V53.2124C232.926 51.2979 234.493 49.7316 236.407 49.7316C238.321 49.7316 239.888 51.2979 239.888 53.2124V56.6932C239.888 58.6077 238.321 60.174 236.407 60.174Z" fill="#662113"/>
<path d="M225.094 69.7461H219.873C218.435 69.7461 217.262 68.5731 217.262 67.1355C217.262 65.6979 218.435 64.5249 219.873 64.5249H225.094C226.532 64.5249 227.705 65.6979 227.705 67.1355C227.705 68.5731 226.532 69.7461 225.094 69.7461Z" fill="#C1694F"/>
<path d="M191.157 98.4633H201.599V126.31H191.157V98.4633ZM243.369 98.4633H253.812V126.31H243.369V98.4633Z" fill="#3B88C3"/>
<path d="M191.591 122.829H253.81V126.31H191.591V122.829Z" fill="#3B88C3"/>
<path d="M250.329 31.6313C250.329 36.2259 239.567 39.2891 222.483 39.2891C205.395 39.2891 194.636 36.2259 194.636 31.6313C194.636 19.2848 208.56 1 213.199 1C217.843 1 220.937 7.12625 222.483 7.12625C224.028 7.12625 227.123 1 231.766 1C236.406 1 250.329 19.2848 250.329 31.6313Z" fill="#C1694F"/>
<path d="M271.01 28.8464C271.01 34.6142 258.827 49.7314 222.278 49.7314C185.73 49.7314 173.547 34.6142 173.547 28.8464C173.547 23.0787 197.286 25.3656 222.278 25.3656C247.271 25.3656 271.01 23.0787 271.01 28.8464Z" fill="#C1694F"/>
<path d="M250.329 31.6312C250.329 36.2259 239.567 39.289 222.483 39.289C205.395 39.289 194.636 36.2259 194.636 31.6312C194.636 29.6611 194.991 27.5412 195.607 25.3657C203.92 32.3274 241.046 32.3274 249.362 25.3796C249.971 27.5482 250.329 29.6645 250.329 31.6312Z" fill="#292F33"/>
<path d="M170.271 111.516C170.271 109.114 168.322 107.165 165.92 107.165C163.518 107.165 161.569 109.114 161.569 111.516V126.31H170.271V111.516Z" fill="#C1694F"/>
<path d="M180.724 80.1888C180.724 88.3688 174.096 94.9928 165.92 94.9928C157.744 94.9928 151.116 88.3688 151.116 80.1888C151.116 79.8895 145.905 79.8964 145.905 80.1888C145.905 91.2439 154.868 100.204 165.92 100.204C176.972 100.204 185.935 91.2439 185.935 80.1888C185.935 79.8964 180.724 79.8895 180.724 80.1888Z" fill="#66757F"/>
<path d="M151.127 80.1887C151.127 81.6298 149.957 82.7993 148.516 82.7993C147.075 82.7993 145.905 81.6298 145.905 80.1887V50.6017C145.905 49.1606 147.075 47.9911 148.516 47.9911C149.957 47.9911 151.127 49.1606 151.127 50.6017V80.1887ZM185.935 80.1887C185.935 81.6298 184.765 82.7993 183.324 82.7993C181.883 82.7993 180.714 81.6298 180.714 80.1887V50.6017C180.714 49.1606 181.883 47.9911 183.324 47.9911C184.765 47.9911 185.935 49.1606 185.935 50.6017V80.1887ZM168.531 108.906C168.531 110.347 167.361 111.516 165.92 111.516C164.479 111.516 163.309 110.347 163.309 108.906V50.6017C163.309 49.1606 164.479 47.9911 165.92 47.9911C167.361 47.9911 168.531 49.1606 168.531 50.6017V108.906Z" fill="#66757F"/>
<path d="M292.531 99.9287C286.385 99.9287 280.592 101.379 275.414 103.896C274.01 103.654 272.575 103.5 271.103 103.5C257.297 103.5 246.104 114.692 246.104 128.499V171.355H246.169C246.822 194.45 265.707 212.981 288.96 212.981C312.212 212.981 331.097 194.45 331.751 171.355H331.815V139.213C331.815 117.517 314.227 99.9287 292.531 99.9287Z" fill="#FFAC33"/>
<path d="M321.102 196.354H260.39V228.495H335.387V210.639C335.387 202.75 328.991 196.354 321.102 196.354Z" fill="#9268CA"/>
<path d="M256.818 117.785V160.641C256.818 174.629 265.771 186.497 278.245 190.914V199.925C278.245 205.842 283.042 210.639 288.959 210.639C294.877 210.639 299.673 205.842 299.673 199.925V190.914C312.148 186.497 321.101 174.629 321.101 160.641V117.785H256.818Z" fill="#FFDC5D"/>
<path d="M321.098 117.785V114.214H253.247V139.213C274.675 139.213 274.675 117.785 274.675 117.785C274.675 117.785 281.817 142.784 324.673 142.784V117.785H321.098Z" fill="#FFAC33"/>
<path d="M268.432 116.317H282.753V133.113H268.432V116.317Z" fill="#FFAC33"/>
<path d="M291.581 165.591L298.106 168.058C298.106 168.058 274.789 217.149 271.632 221.706C268.475 226.263 264.954 229.045 255.311 227.992L291.581 165.591V165.591ZM317.53 214.21H321.102V228.495H317.53V214.21Z" fill="#7450A8"/>
<path d="M278.188 201.321C278.188 201.321 269.763 217.113 267.956 220.374C266.97 222.149 263.296 227.548 259.664 227.548C259.664 227.548 267.57 227.984 270.813 221.542C275.402 212.428 277.799 208.017 279.474 204.949C279.474 204.949 279.027 203.778 278.749 203.221C278.327 202.382 278.188 201.321 278.188 201.321V201.321Z" fill="#7450A8"/>
<path d="M310.947 158.394C310.855 158.187 308.819 153.795 304.708 152.934L302.958 157.916C303.091 157.912 303.183 157.884 303.319 157.884C307.469 157.884 309.605 159.391 309.655 159.427C309.805 159.541 309.987 159.594 310.165 159.594C310.355 159.594 310.544 159.53 310.697 159.409C311.001 159.169 311.105 158.752 310.947 158.394V158.394Z" fill="#662113"/>
<path d="M305.552 128.945L292.074 124.217C288.352 122.91 284.274 124.87 282.97 128.592L280.271 136.288L279.256 132.217C278.642 129.763 276.31 126.91 272.935 127.949C270.517 128.692 269.753 131.974 270.367 134.431L274.746 152.034L273.514 155.548L275.703 160.101L295.924 167.194C299.295 168.376 300.477 165.005 300.477 165.005L302.963 157.915L304.712 152.934L309.934 138.048C311.234 134.327 309.273 130.252 305.552 128.945V128.945Z" fill="#EF9645"/>
<path d="M303.319 152.755C298.258 152.755 295.794 158.166 295.691 158.398C295.533 158.751 295.633 159.166 295.937 159.408C296.237 159.651 296.666 159.658 296.98 159.433C296.998 159.419 299.044 158.016 302.955 157.923L304.705 152.941C304.262 152.844 303.812 152.755 303.319 152.755V152.755Z" fill="#4F140B"/>
<path d="M269.365 127.274C271.818 126.663 274.304 128.16 274.918 130.61L275.932 134.681L278.632 126.985C279.939 123.263 284.014 121.303 287.735 122.61L301.213 127.338C304.935 128.645 306.895 132.72 305.588 136.441L296.131 163.401C296.131 163.401 294.949 166.772 291.578 165.59L271.361 158.498L269.172 153.944L270.404 150.43L266.025 132.827C265.415 130.37 266.911 127.881 269.365 127.274V127.274Z" fill="#FFDC5D"/>
<path d="M291.613 142.977L297.523 126.128L300.895 127.31L294.984 144.159L291.613 142.977ZM281.506 139.431L287.42 122.582L290.788 123.764L284.877 140.613L281.506 139.431Z" fill="#EF9645"/>
<path d="M299.656 183.368C299.656 183.368 297.656 179.379 293.663 177.365C292.784 179.201 291.82 181.215 290.781 183.368H299.656ZM278.228 183.368H281.138L284.795 177.14C280.438 179.051 278.228 183.368 278.228 183.368V183.368Z" fill="#DF1F32"/>
<path d="M291.581 165.591L284.795 177.14L281.138 183.369L276.995 190.418L278.245 199.925C278.245 202.046 278.881 204.011 279.945 205.675C283.445 198.582 287.434 190.336 290.784 183.369L293.666 177.365C296.312 171.84 298.109 168.058 298.109 168.058L291.581 165.591V165.591Z" fill="#EF9645"/>
<path d="M293.663 177.365C292.316 176.683 290.741 176.226 288.941 176.226C287.377 176.226 286.017 176.608 284.795 177.14L281.138 183.368H290.784L293.663 177.365Z" fill="#A0041E"/>
<path d="M275.667 206.532C275.667 206.532 269.528 219.313 268.143 222.302C265.689 227.602 260.389 228.495 260.389 228.495C231.819 228.495 247.454 198.7 247.454 198.7L270.425 156.394L293.785 165.608L275.667 206.532V206.532Z" fill="#9268CA"/>
<path d="M239.212 276.999V261.835C239.212 247.476 223.246 238.005 208.883 238.005H156.89C142.535 238.005 126.56 247.476 126.56 261.835V276.999H239.212Z" fill="#292F33"/>
<path d="M166.977 238.092C173.329 242.706 179.819 246.671 182.887 246.671C185.955 246.671 192.393 242.706 198.745 238.092V224.205H166.977V238.092V238.092Z" fill="#FFDC5D"/>
<path d="M166.948 230.115C171.381 235.119 176.875 236.476 182.845 236.476C188.82 236.476 194.314 235.124 198.746 230.115V217.394H166.948V230.115V230.115Z" fill="#F9CA55"/>
<path d="M169.321 144.144C169.321 137.935 175.534 132.905 183.194 132.905C190.855 132.905 197.068 137.935 197.068 144.144C197.068 150.353 190.855 155.383 183.194 155.383C175.534 155.383 169.321 150.353 169.321 144.144Z" fill="#6D6E71"/>
<path d="M225.344 191.913C225.344 185.899 222.385 181.033 218.676 180.73C214.82 159.755 200.422 144.144 183.199 144.144C165.977 144.144 151.574 159.755 147.723 180.73C144.009 181.033 141.054 185.899 141.054 191.913C141.054 197.961 144.048 202.862 147.792 203.104C151.748 222.671 166.076 234.062 183.199 234.062C200.322 234.062 214.651 222.671 218.611 203.104C222.346 202.862 225.344 197.961 225.344 191.913" fill="#FFDC5D"/>
<path d="M183.196 221.844C176.116 221.844 173.378 219.729 172.902 219.305C171.74 218.274 171.636 216.497 172.668 215.336C173.66 214.205 175.371 214.075 176.532 215.02C176.701 215.128 178.499 216.224 183.196 216.224C188.118 216.224 189.856 215.024 189.873 215.007C191.038 213.975 192.754 214.136 193.781 215.293C194.812 216.454 194.652 218.274 193.491 219.305C193.019 219.725 190.272 221.844 183.196 221.844" fill="#DF1F32"/>
<path d="M186.009 212.008H180.389C178.838 212.008 177.582 211.393 177.582 209.842C177.582 208.291 178.843 207.676 180.389 207.676H186.009C187.56 207.676 188.821 208.291 188.821 209.842C188.821 211.393 187.56 212.008 186.009 212.008Z" fill="#C1694F"/>
<path d="M225.346 166.622C219.726 146.952 202.867 141.332 193.911 141.332C188.816 141.332 183.197 144.144 183.197 144.144C183.197 144.144 177.577 141.332 171.957 141.332C163.53 141.332 146.671 146.952 141.052 166.622C136.42 182.831 146.671 197.532 146.671 197.532C146.671 189.101 152.291 172.242 166.338 172.242C180.389 172.242 183.201 161.003 183.201 161.003C183.201 161.003 185.411 172.242 199.462 172.242C213.509 172.242 219.73 189.101 219.73 197.532C219.726 197.532 229.977 182.831 225.346 166.622" fill="#808285"/>
<path d="M222.531 203.152C224.084 203.152 225.343 201.893 225.343 200.34C225.343 198.787 224.084 197.528 222.531 197.528C220.978 197.528 219.719 198.787 219.719 200.34C219.719 201.893 220.978 203.152 222.531 203.152Z" fill="#AA8DD8"/>
<path d="M143.859 203.152C145.412 203.152 146.671 201.893 146.671 200.34C146.671 198.787 145.412 197.528 143.859 197.528C142.306 197.528 141.047 198.787 141.047 200.34C141.047 201.893 142.306 203.152 143.859 203.152Z" fill="#AA8DD8"/>
<path d="M172.055 186.011H163.39C162.198 186.011 161.223 185.037 161.223 183.845C161.223 182.654 162.198 181.679 163.39 181.679H172.055C173.247 181.679 174.222 182.654 174.222 183.845C174.222 185.037 173.247 186.011 172.055 186.011ZM202.385 186.011H193.719C192.528 186.011 191.553 185.037 191.553 183.845C191.553 182.654 192.528 181.679 193.719 181.679H202.385C203.576 181.679 204.551 182.654 204.551 183.845C204.551 185.037 203.576 186.011 202.385 186.011Z" fill="#808285"/>
<path d="M167.722 200.093C165.933 200.093 164.473 198.633 164.473 196.843V192.511C164.473 190.721 165.933 189.261 167.722 189.261C169.512 189.261 170.972 190.721 170.972 192.511V196.843C170.972 198.633 169.512 200.093 167.722 200.093ZM198.052 200.093C196.262 200.093 194.802 198.633 194.802 196.843V192.511C194.802 190.721 196.262 189.261 198.052 189.261C199.841 189.261 201.301 190.721 201.301 192.511V196.843C201.301 198.633 199.841 200.093 198.052 200.093Z" fill="#662113"/>
<path d="M204.504 238.005C204.144 235.115 202.519 232.048 200.171 233.672C197.818 235.302 183.117 246.463 182.862 246.653C182.61 246.463 167.909 235.302 165.556 233.672C163.208 232.048 161.583 235.115 161.224 238.005C160.864 240.895 162.667 258.226 165.556 259.669C168.42 261.099 182.615 246.944 182.866 246.692C183.117 246.944 197.311 261.099 200.175 259.669C203.061 258.226 204.863 240.895 204.504 238.005Z" fill="#F5F8FA"/>
<path d="M139.921 265.479C141.008 265.479 141.658 277 141.658 277H137.516C137.516 277 138.352 265.479 139.921 265.479ZM152.919 265.479C154.007 265.479 154.657 277 154.657 277H150.514C150.514 277 151.351 265.479 152.919 265.479ZM225.909 265.479C224.821 265.479 224.171 277 224.171 277H228.314C228.309 277 227.473 265.479 225.909 265.479ZM212.911 265.479C211.823 265.479 211.173 277 211.173 277H215.315C215.311 277 214.475 265.479 212.911 265.479Z" fill="#66757F"/>
<path d="M121.598 223.555C123.626 228.928 122.369 234.379 118.786 235.739C115.207 237.087 110.658 233.828 108.625 228.456C106.598 223.087 107.854 217.632 111.437 216.276C115.016 214.924 119.566 218.183 121.598 223.555" fill="#C1694F"/>
<path d="M126.959 277L111.885 237.104L112.969 236.696C117.726 234.898 120.144 229.543 118.35 224.781C116.552 220.028 111.192 217.606 106.435 219.404L97.791 222.671C93.0336 224.461 90.6116 229.82 92.4097 234.582C94.2035 239.339 99.5674 241.757 104.32 239.959L105.404 239.552L119.55 277H126.959V277Z" fill="#662113"/>
<path d="M102.138 230.903C104.166 236.276 102.909 241.727 99.3261 243.087C95.7472 244.439 91.1978 241.181 89.1658 235.804C87.138 230.435 88.3945 224.98 91.9777 223.624C95.5609 222.273 100.11 225.531 102.138 230.903Z" fill="#C1694F"/>
<path d="M136.605 277L134.586 270.119C133.013 264.751 127.337 261.649 121.973 263.222L116.536 264.816C111.315 266.35 108.273 271.766 109.56 277H136.605V277Z" fill="#FFDC5D"/>
<path d="M393 47.5C393 73.7335 371.734 95 345.5 95C319.266 95 298 73.7335 298 47.5C298 21.2665 319.266 0 345.5 0C371.734 0 393 21.2665 393 47.5Z" fill="#EFEFEF"/>
<path d="M301.304 89.1818L307.415 75.1739L315.442 83.6322L301.304 89.1818Z" fill="#EFEFEF"/>
<path d="M370.974 45.2883C370.974 27.406 359.925 17.2104 345.503 17.2104C331.001 17.2104 320.031 27.406 320.031 45.2883C320.031 63.0906 331.001 73.3663 345.503 73.3663C348.902 73.3663 352.116 72.8058 355.038 71.6848L359.42 77.1029H370.151L362.369 67.2809C367.681 62.5034 370.974 55.0302 370.974 45.2883ZM341.519 53.6156L348.477 62.8504C347.548 63.0372 346.539 63.144 345.503 63.144C337.136 63.144 331.691 56.8718 331.691 45.2883C331.691 33.7049 337.136 27.4327 345.503 27.4327C353.843 27.4327 359.314 33.7049 359.314 45.2883C359.314 51.2402 357.853 55.8042 355.33 58.8202L351.293 53.6156H341.519Z" fill="white"/>
<path d="M16.2455 28.629C25.2176 18.3405 40.8314 17.2733 51.1199 26.2454C61.4084 35.2175 62.4756 50.8313 53.5035 61.1198C44.5314 71.4084 28.9176 72.4755 18.6291 63.5034C8.34056 54.5313 7.2734 38.9175 16.2455 28.629Z" fill="#FFE600"/>
<path d="M66.4631 43.6426L59.2759 47.0465L59.0206 40.984L66.4631 43.6426Z" fill="#FFE600"/>
<path d="M27.1864 60.1543L29.4277 53.251H40.3246L42.5659 60.1543H49.4078L38.9975 29.8801H30.7695L20.3445 60.1543H27.1864ZM31.0497 48.2545L34.7655 36.7982H35.0015L38.7173 48.2545H31.0497Z" fill="white"/>
<path d="M14.7805 235.283C13.2449 217.489 26.4252 201.818 44.2195 200.283C62.0138 198.747 77.6838 211.927 79.2195 229.722C80.7551 247.516 67.5748 263.186 49.7805 264.722C31.9862 266.257 16.3162 253.077 14.7805 235.283Z" fill="#FFE600"/>
<path d="M74.5382 201.642L71.2135 211.502L65.2737 206.234L74.5382 201.642Z" fill="#FFE600"/>
<path d="M36.9416 252.494L39.874 243.462H54.1311L57.0635 252.494H66.0151L52.3947 212.884H41.6296L27.99 252.494H36.9416ZM41.9962 236.925L46.8579 221.936H47.1665L52.0282 236.925H41.9962Z" fill="white"/>
</svg>
