<svg width="374" height="195" viewBox="0 0 374 195" fill="none" xmlns="http://www.w3.org/2000/svg">
<path d="M227.228 195V185.466C227.228 169.673 214.42 156.864 198.627 156.864H122.355C106.562 156.864 93.7532 169.673 93.7532 185.466V195H227.228Z" fill="#E1E8ED"/>
<path d="M197.669 157.469C197.669 163.952 181.027 169.072 160.491 169.072C139.96 169.072 123.313 164.019 123.313 157.536C123.313 157.241 123.385 156.864 123.452 156.864H119.953L116.592 157.336L116.621 162.184C117.164 173.648 136.575 178.353 160.491 178.353C184.307 178.353 203.651 173.544 204.347 162.079L204.414 157.436C204.414 157.446 197.669 157.174 197.669 157.469V157.469Z" fill="#EA596E"/>
<path d="M160.491 173.591C184.749 173.591 204.414 166.252 204.414 157.198C204.414 148.144 184.749 140.804 160.491 140.804C136.234 140.804 116.569 148.144 116.569 157.198C116.569 166.252 136.234 173.591 160.491 173.591Z" fill="#BE1931"/>
<path d="M160.49 168.939C139.959 168.939 123.313 163.681 123.313 157.198C123.313 150.715 139.959 145.457 160.49 145.457C181.022 145.457 197.668 150.715 197.668 157.198C197.668 163.681 181.022 168.939 160.49 168.939Z" fill="#292F33"/>
<path d="M139.708 156.564C148.021 162.603 153.284 163.767 160.492 163.767C167.694 163.767 172.962 162.599 181.276 156.564V138.397H139.708V156.564Z" fill="#FFDC5D"/>
<path d="M139.669 147.202C145.466 153.751 152.654 155.525 160.472 155.525C168.285 155.525 175.474 153.751 181.275 147.202V130.56H139.669V147.202V147.202Z" fill="#F9CA55"/>
<path d="M129.239 99.3505C129.239 106.253 125.74 111.85 121.426 111.85C117.112 111.85 113.613 106.253 113.613 99.3505C113.613 92.4479 117.112 86.8467 121.426 86.8467C125.744 86.8515 129.239 92.4479 129.239 99.3505V99.3505ZM207.365 99.3505C207.365 106.253 203.866 111.85 199.552 111.85C195.237 111.85 191.738 106.253 191.738 99.3505C191.738 92.4479 195.237 86.8467 199.552 86.8467C203.87 86.8515 207.365 92.4479 207.365 99.3505V99.3505Z" fill="#FFDC5D"/>
<path d="M119.867 104.237C119.867 77.5939 138.057 55.99 160.491 55.99C182.924 55.99 201.115 77.5891 201.115 104.237C201.115 130.879 182.924 152.478 160.491 152.478C138.057 152.478 119.867 130.879 119.867 104.237Z" fill="#FFDC5D"/>
<path d="M160.491 136.852C147.363 136.852 143.33 133.487 142.658 132.81C141.438 131.59 141.438 129.611 142.658 128.391C143.84 127.209 145.733 127.175 146.958 128.277C147.206 128.458 150.395 130.598 160.491 130.598C170.979 130.598 174.011 128.286 174.039 128.262C175.255 127.047 177.166 127.104 178.391 128.324C179.612 129.545 179.545 131.585 178.325 132.805C177.653 133.487 173.62 136.852 160.491 136.852V136.852Z" fill="#C1694F"/>
<path d="M160.491 39.973C187.415 39.973 204.242 59.8418 204.242 76.3975C204.242 92.9532 200.877 99.5793 197.511 92.9532L190.78 79.7105C190.78 79.7105 170.587 79.7105 163.856 73.0844C163.856 73.0844 173.953 92.9532 153.76 73.0844C153.76 73.0844 157.125 86.3318 136.932 69.7714C136.932 69.7714 126.836 76.3975 123.47 92.9532C122.536 97.5438 116.74 92.9532 116.74 76.3975C116.74 59.8418 130.201 39.973 160.491 39.973Z" fill="#FFAC33"/>
<path d="M141.423 104.427C138.801 104.427 136.656 102.282 136.656 99.6602V94.8933C136.656 92.2714 138.801 90.1263 141.423 90.1263C144.045 90.1263 146.19 92.2714 146.19 94.8933V99.6602C146.19 102.282 144.045 104.427 141.423 104.427ZM179.559 104.427C176.937 104.427 174.792 102.282 174.792 99.6602V94.8933C174.792 92.2714 176.937 90.1263 179.559 90.1263C182.181 90.1263 184.326 92.2714 184.326 94.8933V99.6602C184.326 102.282 182.181 104.427 179.559 104.427Z" fill="#662113"/>
<path d="M164.066 117.536H156.916C154.947 117.536 153.341 115.93 153.341 113.961C153.341 111.992 154.947 110.386 156.916 110.386H164.066C166.035 110.386 167.641 111.992 167.641 113.961C167.641 115.93 166.035 117.536 164.066 117.536Z" fill="#C1694F"/>
<path d="M212.927 180.699V195H227.228V185.466C227.228 183.84 227.062 182.253 226.799 180.699H212.927Z" fill="#55ACEE"/>
<path d="M217.694 185.466H227.228V195H217.694V185.466Z" fill="#FFCC4D"/>
<path d="M170.044 195C164.333 170.469 141.213 152.097 113.522 152.097C85.8307 152.097 62.7108 170.469 57 195H170.044V195Z" fill="#E1E8ED"/>
<path d="M163.68 195C158.088 173.72 137.786 157.922 113.522 157.922C89.2577 157.922 68.9552 173.72 63.3635 195H163.68Z" fill="#292F33"/>
<path d="M158.76 195C153.288 176.232 135.135 162.427 113.522 162.427C91.9081 162.427 73.7554 176.232 68.283 195H158.76Z" fill="#FFAC33"/>
<path d="M142.353 190.462L142.844 190.161C146.51 187.93 147.267 182.83 144.279 179.76C142.048 177.472 139.545 175.427 136.814 173.72C134.144 172.052 131.289 170.76 128.304 169.778C124.357 168.476 120.148 170.888 119.409 174.978C118.842 178.129 120.477 181.395 123.485 182.501C127.608 184.017 131.241 186.448 134.12 189.527C136.232 191.777 139.717 192.068 142.353 190.462V190.462Z" fill="#FFDC5D"/>
<path d="M85.8596 91.3753L78.5089 88.6534L75.6487 78.166C75.2721 76.7836 74.0136 75.8254 72.5835 75.8254C71.1487 75.8254 69.895 76.7836 69.5184 78.1708L66.6582 88.6581L59.3075 91.3801C58.0586 91.8377 57.2339 93.0294 57.2339 94.3594C57.2339 95.6894 58.0586 96.8812 59.3075 97.3388L66.6201 100.046L69.4993 111.559C69.8521 112.97 71.1248 113.961 72.5835 113.961C74.0422 113.961 75.3102 112.97 75.6678 111.554L78.547 100.042L85.8596 97.334C87.1085 96.8764 87.9332 95.6847 87.9332 94.3547C87.9332 93.0294 87.1085 91.8377 85.8596 91.3753V91.3753Z" fill="#9266CC"/>
<path d="M109.39 45.4789L96.948 40.874L92.3431 28.4322C91.5757 26.3681 89.6117 25 87.4093 25C85.207 25 83.243 26.3681 82.4755 28.4322L77.8706 40.874L65.4288 45.4789C63.3647 46.2464 61.9966 48.2104 61.9966 50.4127C61.9966 52.6151 63.3647 54.5838 65.4288 55.3466L77.8706 59.9515L82.4755 72.3932C83.2382 74.4573 85.207 75.8255 87.4093 75.8255C89.6117 75.8255 91.5804 74.4573 92.3431 72.3932L96.948 59.9515L109.39 55.3466C111.454 54.5791 112.822 52.6151 112.822 50.4127C112.822 48.2104 111.454 46.2416 109.39 45.4789V45.4789Z" fill="#5DADEC"/>
<path d="M374 69C374 107.108 343.108 138 305 138C266.892 138 236 107.108 236 69C236 30.8924 266.892 0 305 0C343.108 0 374 30.8924 374 69Z" fill="#EFEFEF"/>
<path d="M240.8 129.548L249.676 109.2L261.336 121.487L240.8 129.548Z" fill="#EFEFEF"/>
<path d="M342.005 65.7873C342.005 39.8109 325.954 25.0004 305.004 25.0004C283.938 25.0004 268.003 39.8109 268.003 65.7873C268.003 91.6474 283.938 106.574 305.004 106.574C309.943 106.574 314.611 105.76 318.855 104.132L325.221 112.002H340.809L329.504 97.7344C337.221 90.7944 342.005 79.9386 342.005 65.7873ZM299.217 77.8838L309.325 91.2984C307.975 91.5698 306.509 91.7249 305.004 91.7249C292.851 91.7249 284.941 82.6138 284.941 65.7873C284.941 48.9608 292.851 39.8496 305.004 39.8496C317.119 39.8496 325.067 48.9608 325.067 65.7873C325.067 74.4332 322.945 81.063 319.28 85.4441L313.415 77.8838H299.217Z" fill="white"/>
<path d="M24.7175 106.555C38.3685 106.555 49.4349 117.622 49.4349 131.273C49.4349 144.924 38.3685 155.99 24.7175 155.99C11.0664 155.99 -4.83727e-07 144.924 -1.08043e-06 131.273C-1.67714e-06 117.622 11.0664 106.555 24.7175 106.555Z" fill="#FFE600"/>
<path d="M46.4074 154.271L39.1181 151.091L43.5195 146.914L46.4074 154.271Z" fill="#FFE600"/>
<path d="M17.0296 146.552L19.2709 139.649H30.1678L32.4091 146.552H39.251L28.8407 116.278H20.6128L10.1877 146.552H17.0296ZM20.8929 134.653L24.6088 123.196H24.8447L28.5606 134.653H20.8929Z" fill="white"/>
</svg>
