<svg width="292" height="297" viewBox="0 0 292 297" fill="none" xmlns="http://www.w3.org/2000/svg">
<path d="M269.35 149.6C272.68 149.27 275.67 147.37 278.44 145.44C281.96 143.007 285.4 140.463 288.76 137.81C289.265 137.572 289.715 137.231 290.08 136.809C290.446 136.387 290.719 135.893 290.882 135.358C291.045 134.824 291.094 134.262 291.027 133.708C290.959 133.153 290.776 132.619 290.49 132.14C288.85 127.333 287.133 122.557 285.34 117.81C284.268 114.399 282.443 111.272 280 108.66C276.78 104.873 273.503 101.137 270.17 97.45C267.09 94.04 266.29 89.04 264.41 84.86C264.243 84.4043 263.973 83.9936 263.62 83.66C263.132 83.3579 262.563 83.2115 261.99 83.24C256.23 82.96 246.63 85.82 253.1 92.72C253.924 93.7828 254.856 94.7579 255.88 95.63C257.31 96.76 259.03 97.46 260.52 98.51C261.728 99.4182 262.843 100.443 263.85 101.57C266.93 104.354 268.998 108.083 269.73 112.17C270.65 115.92 272.88 125.06 273.73 128.71C273.782 128.833 273.809 128.964 273.81 129.098C273.81 129.231 273.784 129.363 273.733 129.486C273.681 129.609 273.606 129.72 273.511 129.814C273.416 129.907 273.304 129.981 273.18 130.03C271.367 131.416 269.781 133.076 268.48 134.95C267.965 135.614 267.59 136.376 267.38 137.19C267.268 137.992 267.292 138.806 267.45 139.6C268 143 268.64 146.22 269.35 149.6Z" fill="#BE6F72"/>
<path d="M230.06 131.3C230.017 131.633 230.059 131.972 230.181 132.285C230.303 132.597 230.502 132.874 230.76 133.09C231.798 134.153 232.979 135.065 234.27 135.8C234.534 135.923 234.764 136.108 234.94 136.34C235.039 136.53 235.1 136.737 235.12 136.95C235.6 140.59 234.12 144.22 232.18 147.35C228.32 153.85 221.06 159.02 213.25 158.29C204.55 157.29 201.78 150.18 201.98 142.29C201.98 139.94 201.98 137.5 203.07 135.41C203.413 134.661 203.956 134.021 204.64 133.56C205.64 132.96 206.89 132.94 207.89 132.35C208.309 132.091 208.665 131.741 208.93 131.325C209.195 130.91 209.362 130.439 209.42 129.95C209.394 129.552 209.503 129.157 209.73 128.83C209.945 128.66 210.206 128.559 210.48 128.54C215.6 127.82 222.48 126.04 227.59 126.4C231.58 126.26 230.23 128.62 230.06 131.3Z" fill="#BE6F72"/>
<path opacity="0.05" d="M230.06 131.3C230.017 131.633 230.059 131.972 230.181 132.285C230.303 132.597 230.502 132.874 230.76 133.09C231.798 134.153 232.979 135.065 234.27 135.8C234.534 135.923 234.764 136.108 234.94 136.34C235.039 136.53 235.1 136.737 235.12 136.95C235.6 140.59 234.12 144.22 232.18 147.35C228.32 153.85 221.06 159.02 213.25 158.29C204.55 157.29 201.78 150.18 201.98 142.29C201.98 139.94 201.98 137.5 203.07 135.41C203.413 134.661 203.956 134.021 204.64 133.56C205.64 132.96 206.89 132.94 207.89 132.35C208.309 132.091 208.665 131.741 208.93 131.325C209.195 130.91 209.362 130.439 209.42 129.95C209.394 129.552 209.503 129.157 209.73 128.83C209.945 128.66 210.206 128.559 210.48 128.54C215.6 127.82 222.48 126.04 227.59 126.4C231.58 126.26 230.23 128.62 230.06 131.3Z" fill="black"/>
<path d="M225.08 282C226.76 285.23 231.46 288 230.31 292.08C228.31 295.56 221.31 296.32 217.68 295.94C217.07 295.889 216.468 295.761 215.89 295.56C214.03 294.85 212.89 292.97 212.17 291.12C211.938 290.397 211.619 289.706 211.22 289.06C209.66 286.86 205.7 286.26 205.52 283.16C205.566 282.544 205.673 281.934 205.84 281.34C206.12 278.93 205.67 276.43 206.63 274.11C206.732 273.722 206.948 273.374 207.25 273.11C207.52 272.932 207.829 272.822 208.15 272.79C213.081 271.876 218.174 272.497 222.74 274.57C223.21 275.05 223.16 275.66 223.24 276.3C223.479 278.301 224.104 280.237 225.08 282V282Z" fill="#00B2FF"/>
<path d="M198 274.83C198.475 279.173 199.329 283.466 200.55 287.66C200.871 288.352 200.934 289.135 200.73 289.87C200.527 290.242 200.24 290.561 199.89 290.8C195.07 294.41 188.07 292.7 183.06 290.12C182.843 290.022 182.648 289.879 182.49 289.7C182.303 289.465 182.179 289.186 182.13 288.89C180.782 283.557 181.459 277.913 184.03 273.05C184.404 272.275 184.923 271.579 185.56 271C186.538 270.311 187.66 269.853 188.84 269.66C191.502 268.873 194.207 268.235 196.94 267.75C197.75 269.85 197.71 272.6 198 274.83Z" fill="#00B2FF"/>
<path d="M214.39 223.37C208.27 223.58 202.25 225.14 196.13 225.28C193.21 225.34 190.13 225.03 187.8 223.37C185.969 221.882 184.475 220.021 183.42 217.91C182.396 216.322 181.567 214.616 180.95 212.83C179.95 209.65 180.42 206.24 180.95 202.96C181.57 198.22 183.21 195.06 188.1 193.96C197.364 191.428 206.799 189.567 216.33 188.39C221.703 187.973 227.098 188.826 232.08 190.88C241.86 194.48 240.9 203.29 237.36 211.34L234 220C233.3 221.81 232.85 225.06 230.62 225.47C228.39 225.88 225.21 224.29 223.07 223.95C220.196 223.533 217.294 223.339 214.39 223.37V223.37Z" fill="#554044"/>
<path d="M218.88 134.48C221.069 134.481 223.237 134.051 225.26 133.215C227.283 132.378 229.121 131.152 230.67 129.605C232.219 128.057 233.448 126.221 234.287 124.199C235.126 122.177 235.559 120.009 235.56 117.82C234.68 95.71 203.06 95.71 202.19 117.82C202.191 120.01 202.624 122.178 203.464 124.201C204.303 126.224 205.533 128.061 207.083 129.608C208.633 131.155 210.473 132.382 212.497 133.218C214.521 134.054 216.69 134.483 218.88 134.48Z" fill="#BE6F72"/>
<path d="M217.66 153L224.9 144.75C225.545 143.992 226.233 143.27 226.96 142.59C230.96 139.65 230.52 137.92 230.04 133.35C230.027 133.152 230.069 132.954 230.161 132.778C230.252 132.601 230.39 132.453 230.56 132.35C231.04 132.08 231.39 132.4 231.77 132.58C232.7 133.02 233.85 132.66 234.77 133.06C236.03 133.6 236.88 135.7 238.48 135.15C238.84 135 239.11 134.68 239.48 134.52C240.34 134.1 241.32 134.74 242.28 134.74C243.112 134.622 243.917 134.362 244.66 133.97C245.533 133.71 246.439 133.572 247.35 133.56L255.53 132.99C255.68 138.99 254.43 145.05 252.97 150.92C251.51 156.79 249.97 162.92 246.97 168.35C245.33 171.35 242.97 174.5 243.71 178.12C243.762 178.463 243.907 178.785 244.13 179.05C244.572 181.914 243.899 184.838 242.25 187.22C240.53 189.44 237.25 192.12 238.86 195.22C236.28 196.05 233.59 194.67 230.97 193.99C225.14 192.49 218.97 194.58 213.69 197.34C211.982 198.418 210.068 199.13 208.07 199.43C204.47 199.66 201.38 197.02 197.96 195.87C192.19 193.95 186.01 196.38 180.05 197.51C178.05 198.04 176.51 197.23 176.34 195.01C176 191.68 177.81 188.56 178.76 185.36C180.104 180.614 179.596 175.536 177.34 171.15C175.952 168.529 175.507 165.51 176.08 162.6L178.17 149.15C178.348 147.571 178.683 146.013 179.17 144.5C181.88 137.5 189.82 134.85 196.58 133.17C199.463 132.33 202.404 131.708 205.38 131.31C205.587 131.26 205.803 131.258 206.011 131.305C206.22 131.352 206.414 131.446 206.58 131.58C206.731 131.789 206.809 132.042 206.8 132.3C206.91 133.97 206.26 135.57 206.19 137.22C206.27 143.12 212.79 150 217.66 153Z" fill="#E6E6E6"/>
<path d="M253.59 134.72C255.14 133.02 258.69 132.9 260.83 132.31C261.485 132.148 262.155 132.057 262.83 132.04C263.34 132.04 263.83 132.14 264.33 132.13C265.097 132.086 265.852 131.924 266.57 131.65L272.81 129.65C269.93 133.84 270.36 139.51 270.6 144.42C270.897 146.035 270.991 147.681 270.88 149.32C270.18 152.63 269.15 155.15 272.98 156.66C266.724 157.971 260.748 160.378 255.33 163.77C254.098 164.652 252.752 165.366 251.33 165.89C250.383 166.13 249.415 166.278 248.44 166.33L245.34 166.6C244.8 159.23 247.09 151.98 249.34 144.93C250.61 141.52 251.43 137.7 253.59 134.72Z" fill="#E6E6E6"/>
<path d="M206.07 158.24C205.361 158.295 204.649 158.295 203.94 158.24C203.817 158.229 203.695 158.265 203.598 158.341C203.501 158.417 203.437 158.528 203.42 158.65L202.06 168.86C201.954 169.592 201.653 170.283 201.19 170.86C200.802 171.322 200.514 171.858 200.342 172.436C200.17 173.014 200.118 173.621 200.19 174.22V191.57C200.19 191.57 200.1 193.88 201.89 193.88C204.018 194.15 206.172 194.15 208.3 193.88C208.3 193.88 209.72 193.61 209.72 191.48V174.5C209.831 173.905 209.81 173.293 209.658 172.707C209.506 172.121 209.227 171.576 208.84 171.11C208.4 170.524 208.114 169.836 208.01 169.11L206.58 158.64C206.56 158.522 206.497 158.415 206.403 158.341C206.308 158.267 206.19 158.231 206.07 158.24Z" fill="#FFE600"/>
<path d="M205.66 174.6H204.35C203.868 174.599 203.391 174.692 202.946 174.876C202.501 175.059 202.096 175.328 201.755 175.668C201.415 176.008 201.144 176.412 200.959 176.857C200.775 177.302 200.68 177.778 200.68 178.26V185.53C200.68 186.011 200.775 186.488 200.959 186.933C201.144 187.378 201.415 187.782 201.755 188.122C202.096 188.462 202.501 188.731 202.946 188.914C203.391 189.098 203.868 189.191 204.35 189.19H205.66C206.631 189.19 207.562 188.804 208.248 188.118C208.934 187.432 209.32 186.501 209.32 185.53V178.26C209.32 177.289 208.934 176.358 208.248 175.672C207.562 174.986 206.631 174.6 205.66 174.6V174.6Z" fill="#E6E6E6"/>
<path opacity="0.25" d="M205.66 174.6H204.35C203.868 174.599 203.391 174.692 202.946 174.876C202.501 175.059 202.096 175.328 201.755 175.668C201.415 176.008 201.144 176.412 200.959 176.857C200.775 177.302 200.68 177.778 200.68 178.26V185.53C200.68 186.011 200.775 186.488 200.959 186.933C201.144 187.378 201.415 187.782 201.755 188.122C202.096 188.462 202.501 188.731 202.946 188.914C203.391 189.098 203.868 189.191 204.35 189.19H205.66C206.631 189.19 207.562 188.804 208.248 188.118C208.934 187.432 209.32 186.501 209.32 185.53V178.26C209.32 177.289 208.934 176.358 208.248 175.672C207.562 174.986 206.631 174.6 205.66 174.6V174.6Z" fill="#FFE600"/>
<path d="M174.41 183.71C173.52 187.44 174.11 192.9 178.53 193.84C181.38 194.33 183.8 192.21 186.32 191.29C189.194 190.405 192.281 190.507 195.09 191.58C195.985 191.922 196.9 192.209 197.83 192.44C198.642 192.583 199.465 192.657 200.29 192.66C203.377 192.925 206.486 192.767 209.53 192.19C210.386 192.051 211.195 191.708 211.89 191.19C212.57 190.522 213.058 189.682 213.3 188.76C214.82 184.49 213.14 180.17 208.61 178.96C206.927 178.521 205.199 178.279 203.46 178.24C202.67 178.086 201.852 178.142 201.09 178.404C200.329 178.665 199.649 179.123 199.12 179.73L197 181.58C196.59 181.987 196.118 182.325 195.6 182.58C195.149 182.742 194.678 182.839 194.2 182.87C192.636 183.039 191.063 183.102 189.49 183.06C189.34 182.11 189.91 181.17 189.86 180.21C189.7 178.12 187.48 177.21 185.66 176.93C180 175.79 175.2 177.53 174.41 183.71Z" fill="#BE6F72"/>
<path d="M214.18 198.31C222.71 195.14 232.46 193.93 240.83 197.48C243.43 198.57 244.6 200.07 243.65 202.78C242.84 206.84 245.95 212.87 241.54 215.56C240.633 224.446 238.268 233.123 234.54 241.24C233.88 242.468 233.37 243.771 233.02 245.12C232.8 246.509 232.7 247.914 232.72 249.32C232.54 253.59 231.24 257.73 229.94 261.8C229.687 262.686 229.352 263.546 228.94 264.37C227.2 267.45 222.44 270.74 224.71 274.64C225.37 275.64 223.04 276.2 221.87 276.22C216.779 276.308 211.687 276.101 206.62 275.6C206.209 275.63 205.803 275.497 205.49 275.229C205.177 274.961 204.983 274.581 204.95 274.17C204.45 272.4 203.95 270.51 204.54 268.77C204.986 267.905 205.286 266.972 205.43 266.01C205.288 265.172 205.049 264.353 204.72 263.57C204.11 261.02 206.29 258.76 207.88 256.68C211.22 252.33 212.54 246.8 213.74 241.44C215.32 234.46 216.857 227.46 218.35 220.44C217.06 221.44 217.21 223.14 215.96 224.22C214.5 225.47 212.04 224.68 210.96 223.1C207.72 217.24 212 204.44 214.18 198.31Z" fill="#554044"/>
<path d="M202.86 200.67C200.8 195.67 195.97 191.67 190.56 191.18C185.15 190.69 179.43 194.18 177.82 199.36C177.474 200.609 177.246 201.888 177.14 203.18C175.69 216.07 175.69 229.32 178.9 241.91C180.22 246.91 182.07 252.79 178.9 257.43C178.42 258.009 178.029 258.656 177.74 259.35C177.579 260.195 177.644 261.068 177.93 261.88L180.63 272.36C180.749 273.033 181.034 273.665 181.46 274.2C183.79 276.33 190.9 273.66 193.46 272.38C196.02 271.1 198.53 268.91 198.38 266.1C198.234 265.414 198.234 264.706 198.38 264.02C198.632 263.545 198.972 263.121 199.38 262.77C202.45 259.2 200.38 254.17 198.31 250.58C197.31 248.66 198.54 246.14 198.87 244.05C200.01 236.8 197.66 229.2 199.7 222.15C203.81 225.5 207.13 223.15 206 218.09C205.05 212.26 205.09 206.14 202.86 200.67Z" fill="#554044"/>
<path d="M204.27 119.48C204.82 120.03 204.98 121.06 205.64 121.39C206.3 121.72 207.15 121.02 207.54 120.22C209.35 116.86 206.91 109.5 211.99 108.66C212.862 108.801 213.682 109.166 214.37 109.72C216.583 111.162 219.045 112.18 221.63 112.72C222.359 112.932 223.138 112.89 223.84 112.6C224.202 112.387 224.483 112.058 224.635 111.666C224.787 111.274 224.803 110.842 224.68 110.44C226.46 110.02 228.42 111.57 228.76 113.69C228.86 114.35 228.83 115.03 228.91 115.69C228.999 116.665 229.405 117.584 230.066 118.307C230.727 119.029 231.607 119.515 232.57 119.69C232.914 119.734 233.263 119.671 233.57 119.51C234.049 119.132 234.398 118.615 234.57 118.03C235.659 115.656 236.384 113.131 236.72 110.54C236.812 109.033 236.778 107.521 236.62 106.02C236.594 104.18 236.21 102.363 235.49 100.67C234.24 98.24 231.74 97.17 229.43 96.34C227.12 95.51 224.72 94.72 222.33 94.01C220.098 93.2715 217.79 92.7884 215.45 92.57C211.362 92.3291 207.311 93.4703 203.95 95.81C200.95 97.72 198.61 101.08 199.07 104.75C199.386 106.155 199.773 107.544 200.23 108.91C200.62 111.251 200.62 113.639 200.23 115.98C200.066 116.921 200.104 117.885 200.34 118.81C200.64 119.74 201.34 120.44 202.15 119.98C202.96 119.52 203.42 118.63 204.27 119.48Z" fill="#00B2FF"/>
<path d="M175.74 166C175.393 167.343 175.149 168.71 175.01 170.09C175.3 174.59 173.01 178.77 173.01 183.18C174.083 182.691 175.272 182.518 176.44 182.68C175.66 177.2 187.68 180.35 190.32 181.68C190.381 181.722 190.45 181.749 190.523 181.759C190.596 181.769 190.67 181.763 190.74 181.74C190.91 181.65 190.91 181.4 190.91 181.21C190.91 179.51 192.67 178.33 193.09 176.69C193.249 175.47 193.09 174.23 192.63 173.09C191.38 168.65 191.86 163.94 191.49 159.34C191.29 156.74 190.66 153.93 188.64 152.27C187.712 151.571 186.608 151.143 185.452 151.035C184.295 150.928 183.131 151.144 182.09 151.66C177.27 154 176.79 161.44 175.74 166Z" fill="#E6E6E6"/>
<path d="M21.65 149.6C18.32 149.27 15.33 147.37 12.56 145.44C9.04002 143.007 5.59668 140.463 2.23002 137.81C1.25377 137.185 0.503725 136.263 0.0900183 135.18C-0.060781 134.16 0.085021 133.119 0.510018 132.18C2.14335 127.38 3.86002 122.607 5.66002 117.86C6.2729 116.034 7.05636 114.269 8.00002 112.59C8.89631 111.207 9.89937 109.896 11 108.67C14.22 104.877 17.4967 101.14 20.83 97.46C23.91 94.05 24.71 89.05 26.59 84.86C26.7537 84.4055 27.0247 83.9973 27.38 83.67C27.8633 83.3651 28.4295 83.2183 29 83.25C34.76 82.98 44.36 85.84 37.89 92.74C37.0655 93.8027 36.134 94.7779 35.11 95.65C33.67 96.78 31.96 97.48 30.47 98.53C29.2643 99.4407 28.1492 100.465 27.14 101.59C24.0616 104.376 21.9938 108.104 21.26 112.19C20.34 115.94 18.11 125.06 17.21 128.71C17.1582 128.833 17.1316 128.966 17.1318 129.099C17.132 129.233 17.159 129.365 17.2112 129.488C17.2634 129.611 17.3398 129.723 17.4358 129.816C17.5317 129.909 17.6454 129.982 17.77 130.03C19.5805 131.418 21.1658 133.078 22.47 134.95C22.9874 135.616 23.3618 136.382 23.57 137.2C23.6818 137.998 23.6581 138.81 23.5 139.6C23 143 22.36 146.22 21.65 149.6Z" fill="#FFDCC9"/>
<path d="M60.9399 131.3C60.963 131.638 60.9223 131.977 60.8199 132.3C60.6804 132.605 60.4835 132.88 60.24 133.11C59.2022 134.173 58.0207 135.085 56.7299 135.82C56.4646 135.945 56.2319 136.13 56.0499 136.36C55.9496 136.549 55.8916 136.757 55.8799 136.97C55.3999 140.61 56.8799 144.24 58.8199 147.37C62.6899 153.85 69.9999 159 77.7499 158.28C86.4499 157.28 89.2199 150.17 89.0199 142.28C89.0199 139.94 89.02 137.5 87.93 135.4C87.5839 134.655 87.0411 134.019 86.3599 133.56C85.3599 132.96 84.1099 132.94 83.1099 132.34C82.6903 132.084 82.3345 131.735 82.0694 131.321C81.8043 130.907 81.6369 130.438 81.58 129.95C81.608 129.552 81.4986 129.157 81.2699 128.83C81.0577 128.662 80.8 128.561 80.5299 128.54C75.3999 127.82 68.5299 126.04 63.4099 126.39C59.4099 126.24 60.7799 128.62 60.9399 131.3Z" fill="#FFDCC9"/>
<path opacity="0.05" d="M60.9399 131.3C60.963 131.638 60.9223 131.977 60.8199 132.3C60.6804 132.605 60.4835 132.88 60.24 133.11C59.2022 134.173 58.0207 135.085 56.7299 135.82C56.4646 135.945 56.2319 136.13 56.0499 136.36C55.9496 136.549 55.8916 136.757 55.8799 136.97C55.3999 140.61 56.8799 144.24 58.8199 147.37C62.6899 153.85 69.9999 159 77.7499 158.28C86.4499 157.28 89.2199 150.17 89.0199 142.28C89.0199 139.94 89.02 137.5 87.93 135.4C87.5839 134.655 87.0411 134.019 86.3599 133.56C85.3599 132.96 84.1099 132.94 83.1099 132.34C82.6903 132.084 82.3345 131.735 82.0694 131.321C81.8043 130.907 81.6369 130.438 81.58 129.95C81.608 129.552 81.4986 129.157 81.2699 128.83C81.0577 128.662 80.8 128.561 80.5299 128.54C75.3999 127.82 68.5299 126.04 63.4099 126.39C59.4099 126.24 60.7799 128.62 60.9399 131.3Z" fill="black"/>
<path d="M65.9201 282C64.2601 285.21 59.5101 288.05 60.6901 292.08C62.6901 295.56 69.6901 296.32 73.3101 295.94C73.9237 295.89 74.5285 295.762 75.1101 295.56C76.9701 294.85 78.1101 292.97 78.8301 291.12C79.0779 290.395 79.4138 289.703 79.8301 289.06C81.3701 286.86 85.3601 286.26 85.5301 283.16C85.4844 282.544 85.3772 281.934 85.2101 281.34C84.9201 278.93 85.3801 276.43 84.4201 274.11C84.3184 273.722 84.1024 273.374 83.8001 273.11C83.5303 272.932 83.2215 272.822 82.9001 272.79C77.9703 271.887 72.8823 272.515 68.3201 274.59C67.8501 275.06 67.9001 275.68 67.8201 276.32C67.5626 278.319 66.9171 280.248 65.9201 282V282Z" fill="#00B2FF"/>
<path d="M92.9999 274.83C92.5247 279.173 91.6715 283.466 90.4499 287.66C90.1293 288.352 90.0655 289.135 90.2699 289.87C90.4725 290.242 90.7604 290.561 91.1099 290.8C95.9299 294.41 102.93 292.7 107.94 290.12C108.157 290.022 108.352 289.879 108.51 289.7C108.697 289.465 108.821 289.186 108.87 288.89C110.22 283.556 109.539 277.91 106.96 273.05C106.59 272.275 106.074 271.579 105.44 271C104.462 270.311 103.34 269.853 102.16 269.66C99.4782 268.87 96.7539 268.232 93.9999 267.75C93.2499 269.85 93.2899 272.6 92.9999 274.83Z" fill="#00B2FF"/>
<path d="M76.61 223.37C82.73 223.58 88.75 225.14 94.87 225.28C97.79 225.34 100.87 225.03 103.2 223.37C105.031 221.884 106.522 220.022 107.57 217.91C108.601 216.324 109.433 214.618 110.05 212.83C111.05 209.65 110.58 206.24 110.05 202.96C109.43 198.22 107.79 195.06 102.9 193.96C93.6358 191.428 84.2014 189.567 74.67 188.39C69.2973 187.973 63.9019 188.826 58.92 190.88C49.14 194.48 50.1 203.29 53.64 211.34L57 220C57.7 221.81 58.15 225.06 60.37 225.47C62.59 225.88 65.79 224.29 67.93 223.95C70.804 223.533 73.706 223.339 76.61 223.37V223.37Z" fill="#554044"/>
<path d="M72.1299 134.48C74.3199 134.483 76.489 134.054 78.5131 133.218C80.5373 132.382 82.3769 131.155 83.9268 129.608C85.4767 128.061 86.7066 126.224 87.5462 124.201C88.3858 122.178 88.8186 120.01 88.8199 117.82C87.9399 95.71 56.3199 95.71 55.4399 117.82C55.4413 120.01 55.8741 122.178 56.7137 124.201C57.5532 126.224 58.7831 128.061 60.3331 129.608C61.883 131.155 63.7226 132.382 65.7468 133.218C67.7709 134.054 69.94 134.483 72.1299 134.48Z" fill="#FFDCC9"/>
<path d="M73.3399 153L66.0999 144.75C65.443 143.977 64.7418 143.242 63.9999 142.55C59.9999 139.61 60.4399 137.88 60.9199 133.31C60.9326 133.112 60.8908 132.914 60.7992 132.738C60.7075 132.561 60.5695 132.413 60.3999 132.31C59.9299 132.04 59.5699 132.36 59.1799 132.54C58.2599 132.98 57.0999 132.62 56.1799 133.02C54.9199 133.56 54.0599 135.66 52.4699 135.11C52.1099 134.96 51.8399 134.64 51.4699 134.48C50.6099 134.06 49.6199 134.7 48.6699 134.7C47.8353 134.581 47.027 134.321 46.2799 133.93C45.4101 133.669 44.508 133.531 43.5999 133.52L35.3999 132.95C35.2999 139 36.5499 145 37.9999 150.87C39.4499 156.74 40.9999 162.87 43.9999 168.3C45.6299 171.25 47.9999 174.45 47.2499 178.07C47.2004 178.413 47.0548 178.736 46.8299 179C46.393 181.863 47.0655 184.786 48.7099 187.17C50.4299 189.39 53.7099 192.07 52.0999 195.17C54.6799 196 57.3699 194.61 59.9899 193.94C65.8199 192.44 71.9299 194.53 77.2599 197.29C79.0499 198.22 80.8799 199.29 82.8899 199.37C86.4899 199.61 89.5699 196.97 92.9999 195.82C98.7699 193.9 104.94 196.33 110.91 197.46C112.91 197.99 114.45 197.17 114.62 194.96C114.96 191.63 113.15 188.51 112.2 185.31C110.85 180.565 111.358 175.484 113.62 171.1C115.003 168.477 115.447 165.46 114.88 162.55L112.81 149.09C112.632 147.511 112.297 145.953 111.81 144.44C109.08 137.44 101.17 134.79 94.3999 133.11C91.5171 132.271 88.5756 131.649 85.5999 131.25C85.3926 131.2 85.1765 131.198 84.9684 131.245C84.7603 131.292 84.5658 131.386 84.3999 131.52C84.2486 131.729 84.1711 131.982 84.1799 132.24C84.0699 133.91 84.7199 135.51 84.7899 137.16C84.7399 143.11 78.1999 150 73.3399 153Z" fill="#E6E6E6"/>
<path d="M37.41 134.72C35.86 133.02 32.31 132.9 30.17 132.31C29.5151 132.148 28.8445 132.058 28.17 132.04C27.67 132.04 27.17 132.14 26.68 132.13C25.9132 132.086 25.1576 131.924 24.44 131.65L18.2 129.65C21.07 133.84 20.65 139.51 20.4 144.42C20.1112 146.036 20.0206 147.682 20.13 149.32C20.83 152.64 21.85 155.14 18.04 156.66C24.2944 157.978 30.2664 160.392 35.68 163.79C36.9129 164.672 38.2582 165.385 39.68 165.91C40.6264 166.152 41.5945 166.3 42.57 166.35L45.67 166.62C46.2 159.25 43.91 152 41.67 144.96C40.39 141.54 39.55 137.69 37.41 134.72Z" fill="#E6E6E6"/>
<path d="M74.79 178.73C74.6822 178.885 74.601 179.058 74.55 179.24C74.29 179.97 73.98 180.78 73.69 181.51C73.3588 182.584 72.8556 183.597 72.2 184.51C72.02 184.67 71.78 184.85 71.85 185.07C72.129 185.14 72.4209 185.14 72.7 185.07C73.0611 184.961 73.3997 184.788 73.7 184.56L77.35 182.22C77.7549 181.977 78.1307 181.689 78.47 181.36C78.7423 181.042 78.996 180.708 79.23 180.36C79.97 179.36 81.08 178.58 81.67 177.46C80.28 177.22 77.67 178.37 76.03 178.51C75.65 178.52 75.06 178.38 74.79 178.73Z" fill="#FFE600"/>
<path d="M76.26 179.71C76.1598 179.868 76.0824 180.04 76.03 180.22C75.77 180.96 75.45 181.75 75.17 182.49C74.8395 183.566 74.3326 184.58 73.67 185.49C73.5 185.65 73.26 185.83 73.33 186.05C73.609 186.12 73.9009 186.12 74.18 186.05C74.5377 185.938 74.8753 185.769 75.18 185.55L78.82 183.2C79.2267 182.96 79.6027 182.671 79.94 182.34C80.2123 182.022 80.466 181.688 80.7 181.34C81.5601 180.443 82.3649 179.495 83.11 178.5C83.11 178.5 83.11 178.5 83.11 178.44C83.11 178.38 83 178.34 82.93 178.35C81.07 178.54 79.31 179.21 77.47 179.49C77.12 179.5 76.53 179.37 76.26 179.71Z" fill="#FFE600"/>
<path d="M66.46 178.24C66.3503 178.394 66.269 178.567 66.22 178.75C65.96 179.49 65.64 180.28 65.36 181.02C65.0268 182.093 64.5237 183.106 63.87 184.02C63.69 184.18 63.45 184.36 63.52 184.58C63.8024 184.65 64.0976 184.65 64.38 184.58C64.7394 184.467 65.0774 184.295 65.38 184.07L69 181.73C69.4084 181.492 69.7848 181.203 70.12 180.87C70.3953 180.554 70.6492 180.22 70.88 179.87C71.7483 178.961 72.563 178.003 73.32 177C73.3244 176.98 73.3244 176.96 73.32 176.94C73.32 176.86 73.21 176.84 73.14 176.85C71.28 177.04 69.52 177.71 67.68 177.99C67.29 178 66.72 177.9 66.46 178.24Z" fill="#FFE600"/>
<path d="M73.81 176.28C73.7022 176.435 73.6211 176.608 73.57 176.79C73.32 177.53 72.99 178.32 72.71 179.06C72.3789 180.134 71.8757 181.147 71.22 182.06C71.05 182.22 70.81 182.4 70.88 182.62C71.159 182.69 71.451 182.69 71.73 182.62C72.089 182.511 72.4271 182.341 72.73 182.12L76.37 179.77C76.7798 179.53 77.1592 179.241 77.5 178.91C77.77 178.58 78.02 178.24 78.26 177.91C79.1165 176.985 79.9211 176.014 80.67 175C80.6744 174.98 80.6744 174.96 80.67 174.94C79.29 174.7 76.67 175.85 75.03 175.99C74.67 176.07 74.07 175.93 73.81 176.28Z" fill="#FFE600"/>
<path d="M72.34 175.3C72.2285 175.453 72.1471 175.626 72.1 175.81C71.84 176.54 71.52 177.34 71.24 178.08C70.9068 179.153 70.4037 180.166 69.75 181.08C69.58 181.24 69.33 181.42 69.4 181.64C69.6824 181.71 69.9776 181.71 70.26 181.64C70.6194 181.527 70.9574 181.355 71.26 181.13L74.9 178.79C75.3084 178.552 75.6847 178.263 76.02 177.93C76.2953 177.614 76.5492 177.28 76.78 176.93C77.52 175.93 78.64 175.15 79.22 174.03C77.84 173.8 75.22 174.94 73.58 175.08C73.2 175.09 72.6 175 72.34 175.3Z" fill="#FFE600"/>
<path opacity="0.05" d="M72.34 175.3C72.2285 175.453 72.1471 175.626 72.1 175.81C71.84 176.54 71.52 177.34 71.24 178.08C70.9068 179.153 70.4037 180.166 69.75 181.08C69.58 181.24 69.33 181.42 69.4 181.64C69.6824 181.71 69.9776 181.71 70.26 181.64C70.6194 181.527 70.9574 181.355 71.26 181.13L74.9 178.79C75.3084 178.552 75.6847 178.263 76.02 177.93C76.2953 177.614 76.5492 177.28 76.78 176.93C77.52 175.93 78.64 175.15 79.22 174.03C77.84 173.8 75.22 174.94 73.58 175.08C73.2 175.09 72.6 175 72.34 175.3Z" fill="black"/>
<path d="M72.83 168.44C72.7204 168.591 72.6391 168.76 72.59 168.94C72.33 169.69 72.01 170.48 71.73 171.22C71.3947 172.292 70.8918 173.305 70.24 174.22C70.06 174.38 69.82 174.56 69.89 174.78C70.173 174.845 70.467 174.845 70.75 174.78C71.1069 174.661 71.4439 174.489 71.75 174.27L75.39 171.93C75.8009 171.692 76.1777 171.399 76.51 171.06C76.7856 170.744 77.0395 170.41 77.27 170.06C78.1281 169.158 78.9359 168.21 79.69 167.22C79.6944 167.2 79.6944 167.18 79.69 167.16C79.69 167.08 79.58 167.06 79.51 167.07C77.65 167.26 75.89 167.93 74.05 168.2C73.69 168.22 73.1 168.1 72.83 168.44Z" fill="#FFE600"/>
<path opacity="0.05" d="M72.83 168.44C72.7204 168.591 72.6391 168.76 72.59 168.94C72.33 169.69 72.01 170.48 71.73 171.22C71.3947 172.292 70.8918 173.305 70.24 174.22C70.06 174.38 69.82 174.56 69.89 174.78C70.173 174.845 70.467 174.845 70.75 174.78C71.1069 174.661 71.4439 174.489 71.75 174.27L75.39 171.93C75.8009 171.692 76.1777 171.399 76.51 171.06C76.7856 170.744 77.0395 170.41 77.27 170.06C78.1281 169.158 78.9359 168.21 79.69 167.22C79.6944 167.2 79.6944 167.18 79.69 167.16C79.69 167.08 79.58 167.06 79.51 167.07C77.65 167.26 75.89 167.93 74.05 168.2C73.69 168.22 73.1 168.1 72.83 168.44Z" fill="black"/>
<path d="M69.39 179.71C69.2898 179.868 69.2124 180.04 69.16 180.22C68.9 180.96 68.58 181.75 68.3 182.49C67.9695 183.566 67.4626 184.58 66.8 185.49C66.63 185.65 66.39 185.83 66.46 186.05C66.739 186.12 67.0309 186.12 67.31 186.05C67.669 185.94 68.007 185.771 68.31 185.55L72 183.2C72.4098 182.96 72.7892 182.671 73.13 182.34C73.4 182.01 73.65 181.67 73.89 181.34C74.7473 180.44 75.5519 179.492 76.3 178.5V178.44C74.9 178.21 72.3 179.35 70.65 179.49C70.25 179.5 69.66 179.37 69.39 179.71Z" fill="#FFE600"/>
<path d="M77.7401 174.81C77.6303 174.964 77.5491 175.137 77.5001 175.32C77.2401 176.06 76.9201 176.85 76.6401 177.59C76.3075 178.665 75.8008 179.679 75.1401 180.59C74.9701 180.75 74.7301 180.93 74.8001 181.15C75.0791 181.22 75.371 181.22 75.6501 181.15C76.0078 181.033 76.3452 180.861 76.6501 180.64L80.3001 178.3C80.705 178.057 81.0808 177.769 81.4201 177.44C81.6891 177.121 81.9395 176.788 82.1701 176.44C82.9201 175.44 84.0301 174.66 84.6101 173.54C84.6101 173.46 84.5101 173.44 84.4401 173.45C82.5801 173.64 80.8201 174.31 78.9801 174.59C78.5901 174.6 78.0001 174.47 77.7401 174.81Z" fill="#FFE600"/>
<path opacity="0.05" d="M77.7401 174.81C77.6303 174.964 77.5491 175.137 77.5001 175.32C77.2401 176.06 76.9201 176.85 76.6401 177.59C76.3075 178.665 75.8008 179.679 75.1401 180.59C74.9701 180.75 74.7301 180.93 74.8001 181.15C75.0791 181.22 75.371 181.22 75.6501 181.15C76.0078 181.033 76.3452 180.861 76.6501 180.64L80.3001 178.3C80.705 178.057 81.0808 177.769 81.4201 177.44C81.6891 177.121 81.9395 176.788 82.1701 176.44C82.9201 175.44 84.0301 174.66 84.6101 173.54C84.6101 173.46 84.5101 173.44 84.4401 173.45C82.5801 173.64 80.8201 174.31 78.9801 174.59C78.5901 174.6 78.0001 174.47 77.7401 174.81Z" fill="black"/>
<path d="M84.1901 178.73C84.2902 178.888 84.3677 179.06 84.4201 179.24C84.6901 179.97 85.0001 180.78 85.2801 181.51C85.6106 182.586 86.1175 183.6 86.7801 184.51C86.9501 184.67 87.1901 184.85 87.1301 185.07C86.8477 185.14 86.5525 185.14 86.2701 185.07C85.909 184.961 85.5703 184.788 85.2701 184.56L81.6301 182.22C81.2202 181.98 80.8409 181.691 80.5001 181.36C80.231 181.041 79.9806 180.708 79.7501 180.36C79.0001 179.36 77.8901 178.58 77.3101 177.46C78.7001 177.22 81.3101 178.37 82.9501 178.51C83.3301 178.52 83.9201 178.38 84.1901 178.73Z" fill="#FFE600"/>
<path opacity="0.05" d="M84.1901 178.73C84.2902 178.888 84.3677 179.06 84.4201 179.24C84.6901 179.97 85.0001 180.78 85.2801 181.51C85.6106 182.586 86.1175 183.6 86.7801 184.51C86.9501 184.67 87.1901 184.85 87.1301 185.07C86.8477 185.14 86.5525 185.14 86.2701 185.07C85.909 184.961 85.5703 184.788 85.2701 184.56L81.6301 182.22C81.2202 181.98 80.8409 181.691 80.5001 181.36C80.231 181.041 79.9806 180.708 79.7501 180.36C79.0001 179.36 77.8901 178.58 77.3101 177.46C78.7001 177.22 81.3101 178.37 82.9501 178.51C83.3301 178.52 83.9201 178.38 84.1901 178.73Z" fill="black"/>
<path d="M82.7 179.71C82.8079 179.865 82.889 180.038 82.9401 180.22C83.2001 180.96 83.5201 181.76 83.8001 182.49C84.1312 183.564 84.6344 184.577 85.29 185.49C85.46 185.65 85.71 185.83 85.64 186.05C85.3576 186.12 85.0625 186.12 84.78 186.05C84.4211 185.941 84.083 185.772 83.78 185.55L80.14 183.17C79.7334 182.93 79.3573 182.641 79.02 182.31C78.7478 181.992 78.494 181.658 78.26 181.31C77.3995 180.411 76.5915 179.462 75.84 178.47C75.8357 178.45 75.8357 178.43 75.84 178.41C75.84 178.34 75.95 178.32 76.02 178.32C77.88 178.51 79.6401 179.18 81.4801 179.46C81.8701 179.5 82.45 179.37 82.7 179.71Z" fill="#FFE600"/>
<path opacity="0.05" d="M82.7 179.71C82.8079 179.865 82.889 180.038 82.9401 180.22C83.2001 180.96 83.5201 181.76 83.8001 182.49C84.1312 183.564 84.6344 184.577 85.29 185.49C85.46 185.65 85.71 185.83 85.64 186.05C85.3576 186.12 85.0625 186.12 84.78 186.05C84.4211 185.941 84.083 185.772 83.78 185.55L80.14 183.17C79.7334 182.93 79.3573 182.641 79.02 182.31C78.7478 181.992 78.494 181.658 78.26 181.31C77.3995 180.411 76.5915 179.462 75.84 178.47C75.8357 178.45 75.8357 178.43 75.84 178.41C75.84 178.34 75.95 178.32 76.02 178.32C77.88 178.51 79.6401 179.18 81.4801 179.46C81.8701 179.5 82.45 179.37 82.7 179.71Z" fill="black"/>
<path d="M88.1099 176.77C88.2178 176.925 88.2989 177.098 88.3499 177.28C88.6099 178.02 88.9199 178.82 89.2099 179.55C89.5432 180.623 90.0462 181.636 90.6999 182.55C90.8799 182.71 91.12 182.89 91.05 183.11C90.7771 183.175 90.4928 183.175 90.2199 183.11C89.8627 182.996 89.5253 182.828 89.2199 182.61L85.5399 180.28C85.1301 180.04 84.7507 179.751 84.41 179.42C84.1409 179.101 83.8905 178.767 83.66 178.42C82.7994 177.521 81.9914 176.572 81.2399 175.58C81.2356 175.56 81.2356 175.54 81.2399 175.52C81.2399 175.45 81.3399 175.42 81.4199 175.43C83.2799 175.62 85.0399 176.29 86.8799 176.57C87.2599 176.56 87.8499 176.43 88.1099 176.77Z" fill="#FFE600"/>
<path opacity="0.05" d="M88.1099 176.77C88.2178 176.925 88.2989 177.098 88.3499 177.28C88.6099 178.02 88.9199 178.82 89.2099 179.55C89.5432 180.623 90.0462 181.636 90.6999 182.55C90.8799 182.71 91.12 182.89 91.05 183.11C90.7771 183.175 90.4928 183.175 90.2199 183.11C89.8627 182.996 89.5253 182.828 89.2199 182.61L85.5399 180.28C85.1301 180.04 84.7507 179.751 84.41 179.42C84.1409 179.101 83.8905 178.767 83.66 178.42C82.7994 177.521 81.9914 176.572 81.2399 175.58C81.2356 175.56 81.2356 175.54 81.2399 175.52C81.2399 175.45 81.3399 175.42 81.4199 175.43C83.2799 175.62 85.0399 176.29 86.8799 176.57C87.2599 176.56 87.8499 176.43 88.1099 176.77Z" fill="black"/>
<path d="M70.0001 177.26C70.1159 177.41 70.2039 177.579 70.2601 177.76C70.5201 178.51 70.8301 179.3 71.1101 180.04C71.449 181.113 71.9552 182.125 72.6101 183.04C72.7801 183.2 73.0301 183.38 72.9501 183.6C72.6711 183.67 72.3791 183.67 72.1001 183.6C71.7411 183.491 71.4031 183.322 71.1001 183.1L67.4601 180.75C67.0503 180.51 66.6709 180.221 66.3301 179.89C66.0601 179.56 65.8101 179.22 65.5701 178.89C64.6971 177.973 63.8759 177.008 63.1101 176V175.94C63.1101 175.86 63.2201 175.84 63.3001 175.85C65.1601 176.04 66.9201 176.71 68.7601 176.99C69.0901 177.05 69.6901 176.93 70.0001 177.26Z" fill="#FFE600"/>
<path opacity="0.05" d="M70.0001 177.26C70.1159 177.41 70.2039 177.579 70.2601 177.76C70.5201 178.51 70.8301 179.3 71.1101 180.04C71.449 181.113 71.9552 182.125 72.6101 183.04C72.7801 183.2 73.0301 183.38 72.9501 183.6C72.6711 183.67 72.3791 183.67 72.1001 183.6C71.7411 183.491 71.4031 183.322 71.1001 183.1L67.4601 180.75C67.0503 180.51 66.6709 180.221 66.3301 179.89C66.0601 179.56 65.8101 179.22 65.5701 178.89C64.6971 177.973 63.8759 177.008 63.1101 176V175.94C63.1101 175.86 63.2201 175.84 63.3001 175.85C65.1601 176.04 66.9201 176.71 68.7601 176.99C69.0901 177.05 69.6901 176.93 70.0001 177.26Z" fill="black"/>
<path d="M83.2 175.79C83.3097 175.944 83.391 176.117 83.44 176.3C83.7 177.03 84.02 177.83 84.3 178.57C84.6353 179.642 85.1382 180.655 85.79 181.57C85.97 181.73 86.21 181.91 86.14 182.13C85.8609 182.2 85.569 182.2 85.29 182.13C84.9301 182.018 84.5919 181.845 84.29 181.62L80.63 179.26C80.2201 179.02 79.8408 178.731 79.5 178.4C79.23 178.07 78.98 177.73 78.74 177.4C77.883 176.497 77.0784 175.545 76.33 174.55V174.5C76.33 174.42 76.44 174.4 76.52 174.41C78.37 174.6 80.14 175.27 81.98 175.55C82.35 175.58 82.94 175.44 83.2 175.79Z" fill="#FFE600"/>
<path d="M73.39 165C73.4902 165.158 73.5676 165.33 73.62 165.51C73.88 166.26 74.2 167.05 74.48 167.79C74.8148 168.864 75.3213 169.878 75.98 170.79C76.15 170.94 76.39 171.13 76.32 171.35C76.0404 171.415 75.7496 171.415 75.47 171.35C75.1123 171.233 74.7749 171.061 74.47 170.84L70.83 168.5C70.4177 168.26 70.0379 167.967 69.7 167.63C69.43 167.31 69.18 166.96 68.94 166.63C68.0827 165.727 67.278 164.775 66.53 163.78V163.73C66.53 163.65 66.64 163.63 66.72 163.63C68.57 163.83 70.34 164.5 72.18 164.77C72.53 164.8 73.12 164.66 73.39 165Z" fill="#FFE600"/>
<path d="M86.64 164C86.7496 164.151 86.8309 164.32 86.88 164.5C87.14 165.25 87.46 166.04 87.73 166.78C88.0648 167.854 88.5713 168.868 89.23 169.78C89.4 169.94 89.65 170.12 89.57 170.34C89.2904 170.405 88.9996 170.405 88.72 170.34C88.3626 170.227 88.0251 170.058 87.72 169.84L84.08 167.5C83.6677 167.26 83.2879 166.967 82.95 166.63C82.68 166.3 82.43 165.96 82.19 165.63C81.3355 164.725 80.531 163.773 79.78 162.78V162.73C79.78 162.65 79.89 162.62 79.97 162.63C81.82 162.82 83.59 163.5 85.43 163.78C85.78 163.82 86.37 163.68 86.64 164Z" fill="#FFE600"/>
<path d="M89.58 179.71C89.6878 179.865 89.7689 180.038 89.82 180.22C90.08 180.96 90.4 181.75 90.68 182.49C91.0111 183.564 91.5143 184.577 92.17 185.49C92.35 185.65 92.59 185.83 92.52 186.05C92.241 186.12 91.949 186.12 91.67 186.05C91.3122 185.938 90.9746 185.769 90.67 185.55L87 183.17C86.5911 182.933 86.2146 182.644 85.88 182.31C85.6077 181.992 85.3539 181.658 85.12 181.31C84.2599 180.413 83.4551 179.465 82.71 178.47C82.7031 178.451 82.7031 178.429 82.71 178.41C82.71 178.34 82.82 178.32 82.89 178.32C84.75 178.51 86.51 179.18 88.35 179.46C88.73 179.5 89.32 179.37 89.58 179.71Z" fill="#FFE600"/>
<path d="M97.66 181.22C97.6013 181.401 97.5171 181.573 97.41 181.73C96.98 182.38 96.56 183.13 96.15 183.8C95.5229 184.721 95.0406 185.733 94.72 186.8C94.72 187.04 94.72 187.34 94.49 187.42C94.2703 187.235 94.0958 187.003 93.98 186.74C93.8485 186.387 93.7742 186.016 93.76 185.64L93.34 181.33C93.2799 180.862 93.2799 180.388 93.34 179.92C93.4274 179.497 93.5409 179.079 93.68 178.67C93.851 177.437 94.0947 176.215 94.41 175.01C94.47 174.96 94.55 175.01 94.6 175.09C95.6 176.67 96.16 178.46 97.09 180.09C97.27 180.42 97.76 180.8 97.66 181.22Z" fill="#FFE600"/>
<path d="M67.23 181.22C67.1713 181.401 67.0871 181.573 66.98 181.73C66.56 182.38 66.13 183.13 65.72 183.8C65.2478 184.558 64.8333 185.35 64.48 186.17C64.3775 186.377 64.3131 186.6 64.29 186.83C64.29 187.07 64.2899 187.37 64.0599 187.45C63.8403 187.265 63.6658 187.033 63.5499 186.77C63.4136 186.419 63.3392 186.047 63.33 185.67L62.9099 181.36C62.85 180.892 62.85 180.418 62.9099 179.95C62.9974 179.527 63.1109 179.109 63.2499 178.7C63.421 177.452 63.6715 176.216 63.9999 175V175C64.0599 174.95 64.14 175 64.19 175.08C65.19 176.66 65.7499 178.45 66.6799 180.08C66.8699 180.42 67.33 180.8 67.23 181.22Z" fill="#FFE600"/>
<path d="M99 183.47C98.8885 183.621 98.7494 183.75 98.59 183.85C97.96 184.32 97.29 184.85 96.67 185.35C95.9598 185.885 95.2912 186.474 94.67 187.11C94.5083 187.273 94.3703 187.458 94.26 187.66C94.16 187.87 94.06 188.16 93.84 188.16C93.697 187.906 93.6148 187.621 93.6 187.33C93.6078 186.953 93.6719 186.579 93.79 186.22L94.94 182.06C95.0433 181.597 95.2081 181.149 95.43 180.73C95.6605 180.383 95.9109 180.049 96.18 179.73C96.7864 178.643 97.4541 177.591 98.18 176.58C98.18 176.49 98.34 176.58 98.37 176.69C98.75 178.51 98.63 180.39 98.92 182.23C98.94 182.59 99.23 183.11 99 183.47Z" fill="#FFE600"/>
<path d="M88.11 174.81C88.2197 174.964 88.301 175.137 88.35 175.32C88.61 176.06 88.92 176.85 89.21 177.59C89.5433 178.663 90.0463 179.676 90.7 180.59C90.88 180.75 91.12 180.93 91.05 181.15C90.7772 181.215 90.4928 181.215 90.22 181.15C89.8622 181.033 89.5249 180.861 89.22 180.64L85.57 178.3C85.1633 178.06 84.7872 177.771 84.45 177.44C84.18 177.11 83.93 176.77 83.69 176.44C82.95 175.44 81.84 174.66 81.25 173.54C81.25 173.46 81.36 173.44 81.43 173.45C83.29 173.64 85.05 174.31 86.89 174.59C87.26 174.6 87.85 174.47 88.11 174.81Z" fill="#FFE600"/>
<path d="M96.63 191.1H65.3001C65.0066 191.101 64.7213 191.003 64.4907 190.821C64.2601 190.64 64.0978 190.386 64.03 190.1L62.23 182.92C62.1834 182.727 62.1809 182.526 62.2228 182.332C62.2646 182.138 62.3498 181.955 62.4719 181.799C62.5939 181.642 62.7498 181.515 62.9278 181.427C63.1058 181.339 63.3014 181.292 63.5 181.29H98.42C98.6193 181.29 98.8159 181.336 98.9949 181.423C99.1739 181.511 99.3306 181.638 99.4531 181.795C99.5756 181.952 99.6606 182.135 99.7016 182.33C99.7427 182.525 99.7387 182.727 99.6901 182.92L97.9001 190.1C97.8261 190.382 97.662 190.633 97.4328 190.813C97.2036 190.994 96.9217 191.094 96.63 191.1V191.1Z" fill="#00B2FF"/>
<path d="M55.3899 116.62C52.8799 113.13 56.1599 108.82 56.7199 105.14C57.0499 102.81 56.4799 100.14 57.6499 98.24C59.2599 95.68 62.3799 96.17 64.7899 95.05C67.8499 93.38 70.6499 88.88 74.6499 90.39C76.3799 91.02 77.6499 92.73 79.2299 93.77C80.041 94.2448 80.8754 94.6787 81.7299 95.07C83.2513 95.9374 84.6906 96.9416 86.0299 98.07C88.8099 99.93 89.3999 102.46 88.1599 105.56C87.8454 106.235 87.6719 106.966 87.6499 107.71C87.8006 108.595 88.1798 109.426 88.7499 110.12C90.0104 111.871 90.7081 113.963 90.7499 116.12C90.6523 117.087 90.6189 118.059 90.6499 119.03C90.7501 119.47 90.8004 119.919 90.7999 120.37C90.7999 120.81 90.4699 121.28 90.0899 121.27C89.8657 121.231 89.6594 121.122 89.4999 120.96C88.2499 119.96 86.5799 119.03 85.2799 119.96C85.1478 120.092 84.9754 120.177 84.7899 120.2C84.6334 120.18 84.4904 120.102 84.3899 119.98C82.3899 118.06 82.1599 114.04 79.7499 112.98C78.6799 112.5 77.4699 112.78 76.3299 112.62C74.9599 112.42 73.7099 111.62 72.3299 111.23C67.8999 110.23 65.3299 113.95 64.1199 117.87C63.4699 119.43 61.2799 122.87 59.5399 121.04C58.9699 120.46 58.8899 119.47 58.2399 118.87C57.4099 118 56.1999 117.66 55.3899 116.62Z" fill="#00B2FF"/>
<path d="M76.82 198.31C68.28 195.14 58.54 193.93 50.17 197.48C47.57 198.57 46.4 200.06 47.35 202.78C48.16 206.85 45.04 212.87 49.45 215.56C50.3623 224.445 52.727 233.121 56.45 241.24C57.1155 242.469 57.6357 243.771 58 245.12C58.2116 246.51 58.3086 247.914 58.29 249.32C58.47 253.59 59.77 257.73 61.07 261.8C61.3227 262.686 61.6575 263.546 62.07 264.37C63.8 267.45 68.58 270.72 66.29 274.62C65.63 275.62 67.95 276.18 69.12 276.2C74.2106 276.295 79.3025 276.095 84.37 275.6C84.7741 275.62 85.1699 275.481 85.474 275.215C85.7781 274.948 85.9667 274.573 86 274.17C86.5 272.4 87 270.51 86.42 268.77C85.967 267.907 85.6627 266.974 85.52 266.01C85.6609 265.172 85.8992 264.353 86.23 263.57C86.84 261.02 84.67 258.76 83.07 256.68C79.74 252.33 78.41 246.8 77.21 241.44C75.6433 234.46 74.1066 227.46 72.6 220.44C73.89 221.44 73.75 223.14 74.99 224.22C76.46 225.47 78.91 224.68 79.99 223.1C83.3 217.34 79 204.36 76.82 198.31Z" fill="#554044"/>
<path d="M88.14 200.67C89.1515 198.127 90.8295 195.904 92.9974 194.234C95.1654 192.564 97.7433 191.509 100.46 191.18C105.89 190.72 111.59 194.18 113.2 199.36C113.541 200.61 113.769 201.889 113.88 203.18C115.32 216.07 115.32 229.32 112.11 241.91C110.79 246.91 108.95 252.79 112.11 257.43C112.596 258.006 112.991 258.654 113.28 259.35C113.438 260.196 113.369 261.069 113.08 261.88L110.39 272.36C110.266 273.031 109.981 273.663 109.56 274.2C107.22 276.33 100.1 273.67 97.56 272.38C95.02 271.09 92.5 268.91 92.65 266.1C92.785 265.413 92.785 264.707 92.65 264.02C92.3976 263.545 92.0585 263.121 91.65 262.77C88.58 259.2 90.65 254.17 92.72 250.58C93.72 248.66 92.49 246.14 92.16 244.05C91.02 236.8 93.37 229.2 91.33 222.15C87.22 225.5 83.9 223.15 85.03 218.09C86 212.26 85.91 206.14 88.14 200.67Z" fill="#554044"/>
<path d="M13.3499 101.38C12.5099 101.32 12.2299 100.19 12.5599 99.45C12.9943 98.7621 13.5041 98.1248 14.0799 97.55C15.4399 95.73 14.9899 93.22 14.8599 90.95C14.827 87.5315 15.2371 84.1231 16.0799 80.81C16.5799 77.11 18.6499 73.24 22.6699 72.65C22.7753 71.9138 23.0837 71.2216 23.5606 70.6511C24.0376 70.0805 24.6641 69.6542 25.3699 69.42C26.8592 69.0134 28.4377 69.0762 29.8899 69.6C30.0906 69.6895 30.3124 69.7207 30.5299 69.69C30.7636 69.6008 30.9678 69.4485 31.1199 69.25C31.8075 68.5981 32.6979 68.2017 33.6424 68.1271C34.587 68.0525 35.5286 68.3041 36.3099 68.84C37.6899 60.38 39.1699 52 40.7299 43.6C41.1199 41.17 42.6199 38.11 45.3799 38C45.8511 38.0392 46.3151 38.14 46.7599 38.3C47.8078 38.537 48.7533 39.1008 49.4599 39.91C49.8115 40.4615 50.04 41.0822 50.1299 41.73C50.9999 46 49.8699 50.26 49.9999 54.54C49.9399 59.2 48.7599 63.75 47.9999 68.36C47.1699 73.81 46.9999 79.43 45.0899 84.58C43.0899 90.58 35.2199 99.58 40.7199 105.36C40.7199 106.06 39.7199 106.08 38.9999 106.07C36.0446 106.149 33.0872 106.072 30.1399 105.84C24.3299 105.1 19.1799 101.81 13.3499 101.38Z" fill="#00B2FF"/>
<path d="M16.18 100.93C15.49 100.93 15.27 99.86 15.57 99.16C15.9577 98.5064 16.4099 97.8933 16.92 97.33C18.12 95.6 17.82 93.27 17.78 91.16C17.8596 87.9523 18.3092 84.7645 19.12 81.66C19.68 78.3 21.29 74.66 24.92 73.85C25.0194 73.1718 25.2914 72.5305 25.7099 71.9877C26.1284 71.4448 26.6794 71.0186 27.31 70.75C28.5461 70.3147 29.8939 70.3147 31.13 70.75C31.298 70.8176 31.4812 70.8383 31.66 70.81C31.8663 70.7165 32.0452 70.572 32.18 70.39C32.7129 69.7654 33.4613 69.3641 34.2765 69.2659C35.0917 69.1677 35.914 69.3798 36.58 69.86C38 62 39.51 54.13 41.1 46.22C41.3128 44.8732 41.8329 43.5934 42.62 42.48C42.9054 42.0399 43.2831 41.6671 43.7268 41.3873C44.1706 41.1076 44.6698 40.9277 45.19 40.86C45.5866 40.8809 45.9777 40.9618 46.35 41.1C47.2328 41.3069 48.0191 41.8076 48.58 42.52C48.8586 43.0339 49.032 43.5983 49.09 44.18C49.67 48.18 48.61 52.18 48.56 56.13C48.36 60.48 47.21 64.77 46.48 69.13C45.61 74.24 45.31 79.49 43.48 84.36C41.7 89.84 34.65 98.62 39.15 103.88C39.09 104.53 38.27 104.58 37.67 104.6L34.5 104.69C33.0631 104.758 31.6233 104.732 30.19 104.61C25.35 104.06 21.1 101.15 16.18 100.93Z" stroke="white" stroke-miterlimit="10"/>
<path d="M89.05 157.93C88.4672 158.251 87.8583 158.522 87.23 158.74C87.1757 158.755 87.1248 158.781 87.0806 158.816C87.0364 158.851 86.9996 158.894 86.9726 158.943C86.9455 158.993 86.9287 159.047 86.9231 159.103C86.9175 159.16 86.9233 159.216 86.94 159.27L89.44 168.52C89.6162 169.175 89.6162 169.865 89.44 170.52C89.2724 171.057 89.2169 171.622 89.2771 172.181C89.3374 172.741 89.5119 173.281 89.79 173.77L96 188.71C96 188.71 96.75 190.71 98.28 190.09C100.208 189.562 102.059 188.789 103.79 187.79C103.79 187.79 104.92 187.05 104.15 185.22L98 170.56C97.8768 170.007 97.6338 169.487 97.2883 169.038C96.9428 168.589 96.503 168.221 96 167.96C95.4027 167.619 94.9033 167.13 94.55 166.54L89.55 158.1C89.4987 158.019 89.4211 157.958 89.3301 157.927C89.2391 157.896 89.1402 157.897 89.05 157.93Z" fill="#FFE600"/>
<path d="M94.56 172.13L93.44 172.6C92.6068 172.947 91.9452 173.611 91.6003 174.445C91.2554 175.279 91.2553 176.216 91.6 177.05L94.21 183.3C94.5612 184.132 95.2272 184.792 96.0628 185.134C96.8983 185.477 97.8356 185.476 98.67 185.13L99.79 184.66C100.623 184.313 101.285 183.649 101.63 182.815C101.975 181.981 101.975 181.044 101.63 180.21L99 174C98.6564 173.166 97.9969 172.501 97.1652 172.151C96.3335 171.8 95.3971 171.793 94.56 172.13V172.13Z" fill="#E6E6E6"/>
<path opacity="0.25" d="M94.56 172.13L93.44 172.6C92.6068 172.947 91.9452 173.611 91.6003 174.445C91.2554 175.279 91.2553 176.216 91.6 177.05L94.21 183.3C94.5612 184.132 95.2272 184.792 96.0628 185.134C96.8983 185.477 97.8356 185.476 98.67 185.13L99.79 184.66C100.623 184.313 101.285 183.649 101.63 182.815C101.975 181.981 101.975 181.044 101.63 180.21L99 174C98.6564 173.166 97.9969 172.501 97.1652 172.151C96.3335 171.8 95.3971 171.793 94.56 172.13V172.13Z" fill="#FFE600"/>
<path d="M116.59 183.71C117.49 187.43 116.85 192.9 112.45 193.84C109.6 194.33 107.18 192.21 104.66 191.29C101.786 190.405 98.699 190.507 95.89 191.58C94.995 191.922 94.08 192.209 93.15 192.44C92.3376 192.583 91.5147 192.656 90.69 192.66C87.6029 192.925 84.4942 192.767 81.45 192.19C80.5944 192.051 79.785 191.708 79.09 191.19C78.4095 190.522 77.9224 189.682 77.68 188.76C76.16 184.49 77.84 180.17 82.36 178.96C84.0429 178.521 85.7712 178.28 87.51 178.24C88.3038 178.085 89.1245 178.143 89.8885 178.409C90.6526 178.674 91.3328 179.137 91.86 179.75L94 181.6C94.4091 182.007 94.882 182.345 95.4 182.6C95.849 182.769 96.3209 182.871 96.8 182.9C98.3643 183.063 99.9375 183.127 101.51 183.09C101.66 182.09 101.09 181.19 101.14 180.23C101.3 178.14 103.52 177.23 105.34 176.96C110.93 175.81 115.81 177.53 116.59 183.71Z" fill="#FFDCC9"/>
<path d="M115.26 166C115.607 167.343 115.851 168.71 115.99 170.09C115.7 174.59 117.99 178.77 117.99 183.18C116.916 182.696 115.728 182.523 114.56 182.68C114.657 182.129 114.564 181.561 114.295 181.07C114.026 180.579 113.597 180.194 113.08 179.98C112.029 179.581 110.894 179.454 109.78 179.61C106.647 179.739 103.563 180.437 100.68 181.67C100.619 181.712 100.55 181.739 100.477 181.749C100.404 181.759 100.33 181.753 100.26 181.73C100.08 181.64 100.09 181.39 100.09 181.2C100.09 179.5 98.33 178.32 97.9 176.68C97.7497 175.46 97.9114 174.221 98.37 173.08C99.6 168.64 99.14 163.93 99.5 159.33C99.71 156.73 100.34 153.92 102.35 152.26C103.281 151.556 104.391 151.126 105.553 151.018C106.716 150.91 107.885 151.129 108.93 151.65C113.73 154 114.21 161.44 115.26 166Z" fill="#E6E6E6"/>
<path d="M194.41 6.41002C203.786 11.8252 210.627 20.7427 213.429 31.2013C216.23 41.6599 214.763 52.803 209.35 62.18C180.41 108 113.43 69.31 138.64 21.35C144.057 11.9762 152.975 5.13684 163.432 2.33534C173.89 -0.466152 185.032 0.999456 194.41 6.41002V6.41002Z" fill="#FFE600"/>
<path d="M186 92.57L178.23 82L188 79.66L186 92.57Z" fill="#FFE600"/>
<path d="M161.3 67L165 55.6H183L186.7 67H198L180.81 17H167.22L150 67H161.3ZM167.68 47.35L173.82 28.43H174.21L180.34 47.35H167.68Z" fill="white"/>
<path d="M153.64 112.16C151.943 118.492 147.801 123.89 142.125 127.168C136.448 130.446 129.702 131.335 123.37 129.64C92.03 119.9 104.17 74.64 136.16 81.89C142.492 83.5868 147.89 87.729 151.168 93.4055C154.446 99.0819 155.335 105.828 153.64 112.16V112.16Z" fill="#FFE600"/>
<path d="M101.94 120.76L106.94 114.54L109.84 119.88L101.94 120.76Z" fill="#FFE600"/>
<path d="M122.08 121L124.32 114.1H135.21L137.46 121H144.3L133.89 90.73H125.66L115.24 121H122.08ZM125.94 109.1L129.66 97.65H129.89L133.61 109.1H125.94Z" fill="white"/>
</svg>
