<svg width="308" height="258" viewBox="0 0 308 258" fill="none" xmlns="http://www.w3.org/2000/svg">
<path d="M36.3061 252.784C56.3573 252.784 72.6121 251.537 72.6121 249.999C72.6121 248.461 56.3573 247.214 36.3061 247.214C16.2548 247.214 0 248.461 0 249.999C0 251.537 16.2548 252.784 36.3061 252.784Z" fill="#E6E6E6"/>
<path d="M114.623 258C134.675 258 150.929 256.753 150.929 255.215C150.929 253.677 134.675 252.43 114.623 252.43C94.5722 252.43 78.3174 253.677 78.3174 255.215C78.3174 256.753 94.5722 258 114.623 258Z" fill="#E6E6E6"/>
<path d="M157.589 15.1332C157.177 15.1336 156.781 15.2987 156.489 15.592C156.198 15.8854 156.034 16.2832 156.033 16.6981V81.381C156.034 81.7959 156.198 82.1937 156.489 82.4871C156.781 82.7805 157.177 82.9455 157.589 82.9459H306.444C306.857 82.9455 307.252 82.7805 307.544 82.4871C307.835 82.1937 308 81.7959 308 81.381V16.6981C308 16.2832 307.835 15.8854 307.544 15.592C307.252 15.2987 306.857 15.1336 306.444 15.1332H157.589Z" fill="#FFE600"/>
<path d="M81.8225 165.375C82.0184 170.219 78.9415 174.514 76.0606 178.373C74.7468 180.181 62.5374 192.432 58.8498 197.786C57.9566 199.084 36.0326 224.536 34.909 226.894C34.6448 227.453 34.427 228.032 34.2579 228.627C33.6011 230.887 33.5723 233.321 33.6299 235.732V237.418C33.7452 241.098 33.9122 244.795 34.7823 248.359C34.909 248.881 35.0531 249.408 35.128 249.935C34.8953 249.782 34.6756 249.609 34.4712 249.42L22.5555 240.524L21.8122 239.968C21.0517 237.754 20.3314 235.517 19.519 233.333C19.035 232.035 19.5536 230.551 20.4063 229.467C21.3302 228.442 22.3489 227.506 23.4486 226.674C24.2929 225.795 25.0458 224.832 25.6958 223.8C33.918 211.764 57.0751 168.574 58.7633 159.881C60.9889 159.464 63.2692 159.435 65.5048 159.794L77.3916 161.382C78.6765 161.556 80.0824 161.794 80.9178 162.784C81.4884 163.528 81.8056 164.436 81.8225 165.375Z" fill="#FFDCC9"/>
<path d="M132.562 175.249C132.309 177.056 131.674 178.787 130.701 180.326C129.479 182.198 115.449 218.492 111.087 233.477C110.286 236.23 110.707 238.89 110.621 239.811C110.551 240.576 110.488 241.341 110.43 242.1C110.35 243.045 110.286 243.99 110.217 244.928C110.039 247.414 109.883 250.028 110.926 252.288C111.335 253.18 111.952 253.951 112.222 254.844C111.816 254.633 111.44 254.368 111.105 254.055L99.189 245.16C98.2174 242.391 97.4679 239.548 96.9477 236.659C96.648 235.019 96.504 233.136 97.5238 231.878C97.5824 231.801 97.6459 231.727 97.714 231.658C98.0466 231.344 98.4185 231.075 98.8203 230.858C99.1887 230.655 99.543 230.426 99.8804 230.174C100.134 229.975 100.362 229.745 100.56 229.491C101.54 228.274 101.891 226.564 102.185 224.959C103.338 218.387 113.098 178.066 112.914 177.069C112.712 176.09 107.169 166.696 103.366 164.61C107.312 161.286 111.813 158.692 116.659 156.949C117.513 156.549 118.458 156.387 119.396 156.479C119.898 156.59 120.377 156.786 120.813 157.059C123.424 158.531 125.423 160.849 127.336 163.167C130.188 166.655 133.04 170.758 132.562 175.249Z" fill="#FFDCC9"/>
<path d="M127.362 161.288C126.993 164.792 117.203 167.894 104.823 169.823C101.625 170.322 93.7695 150.86 90.3444 151.189C86.2258 151.584 86.5133 171.73 82.4401 171.838C68.5734 172.206 59.6126 170.777 56.7157 166.642C55.1485 166.26 53.2586 165.356 53.3335 163.745C53.3853 162.823 54.1113 162.006 54.1056 161.102C54.1056 159.526 58.6517 142.269 61.331 134.08C61.9994 132.046 62.4834 129.96 63.2382 127.949C66.4994 118.886 67.8995 111.932 73.8574 104.387C74.769 103.328 75.5186 102.139 76.0815 100.858C76.5929 99.3196 76.8593 97.7099 76.8709 96.0883L77.1993 90.415C86.0323 89.9978 94.6118 90.1658 103.255 92.0434C103.724 92.0294 104.179 92.2034 104.52 92.527C104.862 92.8507 105.061 93.2975 105.075 93.7691L105.075 93.7819C105.41 95.8565 105.644 97.9408 105.778 100.035C105.782 100.497 105.848 100.957 105.974 101.402C106.201 101.965 106.516 102.487 106.908 102.95C111.909 109.544 114.974 117.437 117.394 125.341C119.814 133.246 121.739 141.37 124.781 149.101C125.83 151.767 127.201 154.763 127.478 157.619C128.572 158.437 128.33 160.285 127.362 161.288Z" fill="#00B2FF"/>
<path d="M135.758 66.2614C137.279 64.9691 138.8 63.6711 140.194 62.2455C142.162 60.1481 143.979 57.9134 145.634 55.5581C147.397 53.1416 149.148 50.6671 150.243 47.8739C151.482 44.6751 151.862 41.0358 154.017 38.3817C154.261 38.0368 154.599 37.771 154.991 37.6168C156.218 37.2285 157.134 38.7758 157.371 40.0565C158.523 46.3266 155.775 52.5852 153.101 58.3686C152.219 60.2752 151.297 62.2339 149.771 63.6768C148.933 64.397 148.058 65.0721 147.149 65.6993C145.799 66.8029 144.557 68.0331 143.438 69.3733C141.518 71.5677 139.691 73.8412 137.959 76.194C135.809 79.0915 133.793 82.1281 131.246 84.6837C128.699 87.2393 125.513 89.3197 121.946 89.8238C122.966 89.6848 122.632 83.6638 122.523 82.9046C122.367 81.8035 121.618 80.5055 121.595 79.4276C121.566 78.1063 122.102 77.9151 123.185 76.9879L135.758 66.2614Z" fill="#FFDCC9"/>
<path d="M92.9927 28.339C92.9927 28.339 89.5356 45.724 85.5023 48.6215C81.4689 51.519 107.397 54.996 107.397 54.996C107.397 54.996 107.974 41.088 114.888 34.7135C121.802 28.339 92.9927 28.339 92.9927 28.339Z" fill="#FFDCC9"/>
<path d="M116.225 97.3747C117.08 97.6441 117.974 97.7617 118.869 97.7224C121.895 97.6894 124.876 96.9912 127.604 95.6768C127.86 95.5773 128.086 95.4137 128.261 95.2016C128.363 94.9797 128.418 94.739 128.423 94.4947C128.428 94.2504 128.383 94.0077 128.29 93.7818C126.665 87.1755 129.8 79.6826 126.688 73.6442C123.306 74.751 119.595 75.9622 116.213 77.04C115.694 77.2519 115.136 77.3468 114.577 77.3182C113.907 77.1782 113.293 76.8414 112.814 76.3504C109.149 73.1632 106.839 68.7242 104.747 64.3374C102.655 59.9506 100.604 55.4247 97.3084 51.855C94.0126 48.2853 90.9299 46.3962 86.113 46.9119C84.4031 47.147 82.8334 47.9898 81.6878 49.2879C78.9682 52.2317 78.4266 56.7113 79.3831 60.6171C80.3395 64.5229 82.5348 67.9825 84.8165 71.2799C87.7897 75.5797 90.9875 79.8159 95.1188 83.009C97.3537 84.6368 99.6733 86.1437 102.068 87.5232" fill="#E6E6E6"/>
<path d="M106.533 41.3777C116.08 41.3777 123.819 33.5942 123.819 23.9928C123.819 14.3913 116.08 6.60779 106.533 6.60779C96.9864 6.60779 89.2473 14.3913 89.2473 23.9928C89.2473 33.5942 96.9864 41.3777 106.533 41.3777Z" fill="#FFDCC9"/>
<path d="M113.447 74.0267C108.251 80.1896 107.153 88.0628 106.089 95.8333C100.869 94.0542 95.0842 97.0387 89.6796 95.9492C86.9651 95.0403 84.0933 94.7051 81.2441 94.9646C79.2448 94.7728 77.2627 93.5095 75.3555 94.1527C72.1849 96.1727 75.2724 83.6608 75.0841 80.0243C73.4223 18.6833 122.892 48.5243 113.447 74.0267Z" fill="#E6E6E6"/>
<path d="M142.672 68.5794C144.193 67.2871 145.714 65.989 147.108 64.5635C149.076 62.4661 150.894 60.2314 152.548 57.8761C154.311 55.4596 156.062 52.9851 157.157 50.1919C158.396 46.9931 158.776 43.3538 160.931 40.6997C161.175 40.3548 161.513 40.089 161.905 39.9348C163.132 39.5465 164.048 41.0938 164.285 42.3744C165.437 48.6446 162.689 54.9032 160.015 60.6866C159.133 62.5932 158.211 64.5519 156.685 65.9948C155.847 66.715 154.972 67.3901 154.063 68.0172C152.713 69.1209 151.471 70.3511 150.352 71.6913C148.432 73.8857 146.605 76.1592 144.873 78.512C142.724 81.4095 140.707 84.446 138.16 87.0017C135.613 89.5573 132.427 91.6377 128.86 92.1418C129.88 92.0027 129.546 85.9817 129.437 85.2226C129.281 84.1215 128.532 82.8235 128.509 81.7456C128.48 80.4243 129.016 80.2331 130.099 79.3059L142.672 68.5794Z" fill="#FFDCC9"/>
<path opacity="0.1" d="M111.719 74.6063L111.678 74.6816C110.682 76.5418 109.189 78.1065 108.164 79.9609C107.011 82.0587 106.475 84.452 106.015 86.8105C105.696 88.3945 105.402 89.9804 105.133 91.5683C103.064 90.3747 101.063 89.0648 99.1406 87.645C95.0093 84.452 91.8114 80.2158 88.8383 75.9102C86.5335 72.6128 84.344 69.1532 83.4048 65.2532C82.4657 61.3531 83.013 56.8678 85.7096 53.924C86.8549 52.6246 88.4244 51.7798 90.1347 51.5422C94.9517 51.0265 97.9939 52.8983 101.29 56.4622C104.586 60.0261 106.625 64.5752 108.728 68.9446C109.662 70.8396 110.618 72.7809 111.719 74.6063Z" fill="black"/>
<path d="M93.0273 49.23C91.3174 49.4651 89.7477 50.3079 88.6021 51.6059C85.8825 54.5498 85.3409 59.0293 86.2974 62.9351C87.2538 66.8409 89.4491 70.3006 91.7308 73.5979C94.704 77.8978 97.9018 82.1339 102.033 85.327C104.268 86.9548 106.588 88.4617 108.982 89.8413C112.961 92.306 116.784 91.5385 120.431 94.4773C121.23 95.2053 122.146 95.793 123.139 96.2158C123.994 96.4851 124.889 96.6027 125.784 96.5634C128.809 96.5304 131.79 94.6732 134.519 93.3588C134.774 93.2593 135 93.0957 135.176 92.8836C135.277 92.6617 135.333 92.421 135.337 92.1767C135.342 91.9324 135.297 91.6897 135.204 91.4638C133.58 84.8575 136.714 82.0006 133.603 75.9622C130.22 77.069 126.51 78.2802 123.127 79.358C122.609 79.5699 122.05 79.6648 121.491 79.6362C120.821 79.4962 120.207 79.1594 119.728 78.6685C116.063 75.4812 113.753 71.0422 111.661 66.6554C109.57 62.2686 107.518 57.7428 104.223 54.173C100.927 50.6033 97.8442 48.7142 93.0273 49.23Z" fill="#E6E6E6"/>
<path d="M117.097 255.052C116.327 255.84 115.325 256.357 114.24 256.528C113.154 256.7 112.043 256.515 111.07 256.003C110.664 255.792 110.288 255.527 109.952 255.214L98.0367 246.319L93.3119 242.79C92.8149 242.325 92.4172 241.763 92.1429 241.139C91.8686 240.515 91.7236 239.841 91.7166 239.158C91.7096 238.476 91.8408 237.799 92.1021 237.169C92.3635 236.539 92.7497 235.969 93.237 235.494L96.3715 233.037L97.6679 232.017L99.408 230.649L100.929 229.456L110.69 234.961L110.857 235.285L118.244 249.611C118.589 250.533 118.664 251.536 118.461 252.5C118.258 253.464 117.784 254.35 117.097 255.052Z" fill="#00B2FF"/>
<path d="M40.4635 250.416C39.6931 251.204 38.6913 251.721 37.6061 251.892C36.5208 252.064 35.4096 251.879 34.4365 251.367C34.281 251.285 34.1254 251.193 33.9756 251.094C33.7429 250.941 33.5232 250.768 33.3188 250.578L21.4031 241.683L20.6598 241.127L16.6784 238.154C16.1814 237.689 15.7836 237.128 15.5094 236.503C15.2351 235.879 15.09 235.205 15.083 234.522C15.076 233.84 15.2072 233.163 15.4686 232.533C15.73 231.903 16.1161 231.333 16.6035 230.858L19.7379 228.401L21.0344 227.381L22.7745 226.014L24.2956 224.82L24.5434 224.959L33.1056 229.786L34.0563 230.325L34.2234 230.649L41.6101 244.975C41.9552 245.897 42.0306 246.9 41.8274 247.864C41.6242 248.828 41.151 249.714 40.4635 250.416Z" fill="#00B2FF"/>
<path d="M122.808 9.17306C116.115 1.54588 108.568 -2.10196 99.5193 1.24737C85.0012 -3.6536 65.917 30.0278 77.6683 42.2427L97.5696 43.9117L103.663 32.8758L101.507 44.3069L117.426 45.9049C109.305 33.206 111.91 20.9993 122.808 9.17306Z" fill="#00B2FF"/>
<path d="M197.782 64.2301C206.124 64.2301 212.886 57.429 212.886 49.0395C212.886 40.6499 206.124 33.8489 197.782 33.8489C189.441 33.8489 182.678 40.6499 182.678 49.0395C182.678 57.429 189.441 64.2301 197.782 64.2301Z" fill="white"/>
<path d="M231.871 47.0184C231.408 47.026 230.966 47.2165 230.641 47.5487C230.316 47.881 230.134 48.3284 230.134 48.7945C230.134 49.2605 230.316 49.708 230.641 50.0402C230.966 50.3725 231.408 50.5629 231.871 50.5706H279.56C280.028 50.5783 280.48 50.3986 280.817 50.071C281.153 49.7434 281.347 49.2947 281.355 48.8236C281.362 48.3526 281.184 47.8978 280.858 47.5592C280.532 47.2207 280.086 47.0261 279.618 47.0184C279.598 47.018 279.579 47.018 279.56 47.0184H231.871Z" fill="white"/>
<path d="M231.871 36.728C231.408 36.7356 230.966 36.9261 230.641 37.2584C230.316 37.5906 230.134 38.038 230.134 38.504C230.134 38.9701 230.316 39.4175 230.641 39.7497C230.966 40.082 231.408 40.2725 231.871 40.2801H255.686C256.154 40.2875 256.606 40.1076 256.942 39.78C257.278 39.4524 257.472 39.004 257.479 38.5332C257.487 38.0624 257.309 37.6078 256.983 37.2693C256.658 36.9308 256.212 36.7361 255.744 36.728C255.725 36.7276 255.705 36.7276 255.686 36.728H231.871Z" fill="white"/>
<path d="M231.871 57.7988C231.408 57.8065 230.966 57.997 230.641 58.3292C230.316 58.6615 230.134 59.1089 230.134 59.5749C230.134 60.041 230.316 60.4884 230.641 60.8206C230.966 61.1528 231.408 61.3433 231.871 61.351H279.56C279.792 61.355 280.022 61.313 280.238 61.2274C280.454 61.1417 280.651 61.0142 280.818 60.8519C280.985 60.6897 281.118 60.496 281.211 60.2819C281.303 60.0678 281.352 59.8375 281.356 59.6041C281.36 59.3707 281.318 59.1389 281.233 58.9219C281.147 58.7048 281.02 58.5068 280.859 58.3392C280.698 58.1715 280.505 58.0375 280.292 57.9448C280.079 57.8521 279.85 57.8025 279.618 57.7988C279.599 57.7985 279.579 57.7985 279.56 57.7988H231.871Z" fill="white"/>
<path d="M268.563 185.429C246.786 191.264 224.401 178.34 218.566 156.563C212.731 134.785 225.654 112.401 247.432 106.566C269.209 100.73 291.594 113.654 297.429 135.432C303.264 157.209 290.34 179.594 268.563 185.429Z" fill="#EFEFEF"/>
<path d="M213.565 118.58L226.553 120.537L221.317 129.082L213.565 118.58Z" fill="#EFEFEF"/>
<path d="M280 145.909C280 130.682 270.457 122 258 122C245.474 122 236 130.682 236 145.909C236 161.068 245.474 169.818 258 169.818C260.936 169.818 263.712 169.341 266.236 168.386L270.021 173H279.289L272.567 164.636C277.155 160.568 280 154.205 280 145.909ZM254.559 153L260.569 160.864C259.766 161.023 258.895 161.114 258 161.114C250.774 161.114 246.071 155.773 246.071 145.909C246.071 136.045 250.774 130.705 258 130.705C265.203 130.705 269.929 136.045 269.929 145.909C269.929 150.977 268.667 154.864 266.488 157.432L263.001 153H254.559Z" fill="white"/>
<path d="M186.475 227.705C174.615 224.527 167.576 212.336 170.754 200.476C173.932 188.615 186.124 181.576 197.984 184.754C209.845 187.932 216.883 200.124 213.705 211.984C210.527 223.845 198.336 230.883 186.475 227.705Z" fill="#EFEFEF"/>
<path d="M178.739 181.199L184.332 185.658L179.535 188.263L178.739 181.199Z" fill="#EFEFEF"/>
<path d="M204 205.595C204 196.937 198.795 192 192 192C185.168 192 180 196.937 180 205.595C180 214.215 185.168 219.191 192 219.191C193.602 219.191 195.116 218.919 196.492 218.377L198.557 221H203.612L199.946 216.244C202.448 213.931 204 210.312 204 205.595ZM190.123 209.628L193.401 214.099C192.964 214.189 192.488 214.241 192 214.241C188.058 214.241 185.493 211.204 185.493 205.595C185.493 199.987 188.058 196.95 192 196.95C195.929 196.95 198.507 199.987 198.507 205.595C198.507 208.477 197.819 210.687 196.63 212.148L194.728 209.628H190.123Z" fill="white"/>
</svg>
